<?xml version="1.0" encoding="UTF-8" standalone="no"?>
<!-- Created with Inkscape (http://www.inkscape.org/) -->

<svg
   width="51.00005mm"
   height="74.673241mm"
   viewBox="0 0 51.000048 74.673242"
   version="1.1"
   id="svg1"
   xml:space="preserve"
   sodipodi:docname="dac.svg"
   inkscape:version="1.4.2 (ebf0e940, 2025-05-08)"
   xmlns:inkscape="http://www.inkscape.org/namespaces/inkscape"
   xmlns:sodipodi="http://sodipodi.sourceforge.net/DTD/sodipodi-0.dtd"
   xmlns="http://www.w3.org/2000/svg"
   xmlns:svg="http://www.w3.org/2000/svg"><sodipodi:namedview
     id="namedview1"
     pagecolor="#ffffff"
     bordercolor="#000000"
     borderopacity="0.25"
     inkscape:showpageshadow="2"
     inkscape:pageopacity="0.0"
     inkscape:pagecheckerboard="0"
     inkscape:deskcolor="#797979"
     inkscape:document-units="mm"
     showgrid="false"
     showguides="true"
     inkscape:zoom="0.44943534"
     inkscape:cx="-238.07651"
     inkscape:cy="28.925184"
     inkscape:window-width="2384"
     inkscape:window-height="1371"
     inkscape:window-x="1371"
     inkscape:window-y="25"
     inkscape:window-maximized="0"
     inkscape:current-layer="g49"><inkscape:grid
       id="grid1"
       units="mm"
       originx="437.12487"
       originy="-1195.446"
       spacingx="0.99999998"
       spacingy="1"
       empcolor="#0099e5"
       empopacity="0.30196078"
       color="#0099e5"
       opacity="0.14901961"
       empspacing="5"
       enabled="true"
       visible="false" /></sodipodi:namedview><defs
     id="defs1" /><g
     inkscape:label="Layer 1"
     inkscape:groupmode="layer"
     id="layer1"
     transform="translate(437.12486,-1195.446)"><g
       id="g281"
       transform="rotate(180,34.665114,341.3709)"><g
         id="g191"
         transform="translate(8.3867273,178.00957)" /></g><g
       id="g540"
       transform="matrix(0.8090083,0,0,0.889878,-89.218707,21.16354)" /><g
       id="g1"
       transform="rotate(-90,-179.83507,315.22888)"
       style="stroke:#cccccc" /><g
       id="g69"
       transform="translate(-0.31667328,0.83252488)"><g
         id="g49"
         transform="translate(67.38494,-275.88662)"><path
           id="path4"
           style="fill:#ececec;fill-opacity:1;fill-rule:evenodd;stroke:#cccccc;stroke-width:1;stroke-linecap:square;stroke-linejoin:round;stroke-dasharray:none;paint-order:stroke fill markers"
           d="m -498.69189,1471.0001 c -2.77075,0 -5.00124,2.2305 -5.00124,5.0012 v 61.4454 c 0,2.7707 2.23049,5.0012 5.00124,5.0012 h 39.99756 c 2.77076,0 5.00125,-2.2305 5.00125,-5.0012 v -61.4454 c 0,-2.7707 -2.23049,-5.0012 -5.00125,-5.0012 z m 2.99879,19.9998 a 4.9999976,4.9999976 0 0 1 5.00021,5.0002 4.9999976,4.9999976 0 0 1 -5.00021,4.9997 4.9999976,4.9999976 0 0 1 -5.00022,-4.9997 4.9999976,4.9999976 0 0 1 5.00022,-5.0002 z m 33.99999,0 a 4.9999976,4.9999976 0 0 1 5.00021,5.0002 4.9999976,4.9999976 0 0 1 -5.00021,4.9997 4.9999976,4.9999976 0 0 1 -5.00021,-4.9997 4.9999976,4.9999976 0 0 1 5.00021,-5.0002 z" /><path
           id="path6"
           style="fill:#cccccc;fill-opacity:1;fill-rule:evenodd;stroke-width:0;stroke-linecap:square;stroke-linejoin:round;paint-order:stroke fill markers"
           d="m -461.69311,1489 a 6.9999986,6.9999986 0 0 0 -7.00009,7.0001 6.9999986,6.9999986 0 0 0 7.00009,7.0001 h 8.00003 V 1489 h -7.98556 z m 0,1.9999 a 4.9999976,4.9999976 0 0 1 5.00021,5.0002 4.9999976,4.9999976 0 0 1 -5.00021,4.9997 4.9999976,4.9999976 0 0 1 -5.00021,-4.9997 4.9999976,4.9999976 0 0 1 5.00021,-5.0002 z" /><path
           id="path7"
           style="fill:#cccccc;fill-opacity:1;fill-rule:evenodd;stroke-width:0;stroke-linecap:square;stroke-linejoin:round;paint-order:stroke fill markers"
           d="m -503.69313,1489 v 14.0002 h 8.00003 a 6.9999986,6.9999986 0 0 0 7.00009,-7.0001 6.9999986,6.9999986 0 0 0 -7.00009,-7.0001 h -0.0145 z m 8.00003,1.9999 a 4.9999976,4.9999976 0 0 1 5.00021,5.0002 4.9999976,4.9999976 0 0 1 -5.00021,4.9997 4.9999976,4.9999976 0 0 1 -5.00022,-4.9997 4.9999976,4.9999976 0 0 1 5.00022,-5.0002 z" /><rect
           style="fill:#ff9955;fill-opacity:1;fill-rule:evenodd;stroke:none;stroke-width:0.0186105;paint-order:fill markers stroke"
           id="rect10"
           width="39.289955"
           height="24.136766"
           x="459.04813"
           y="-1542.3462"
           ry="0"
           transform="scale(-1)" /><rect
           style="fill:#ff7f2a;fill-opacity:1;fill-rule:evenodd;stroke:none;stroke-width:0.00900758;paint-order:fill markers stroke"
           id="rect19"
           width="39.289955"
           height="5.6543074"
           x="459.04813"
           y="-1521.0365"
           ry="2.8271537"
           transform="scale(-1)" /><g
           id="g18"
           transform="matrix(-1.6376375,0,0,-2.0264509,-836.3776,2034.8096)"><rect
             style="fill:#aa4400;fill-opacity:1;fill-rule:evenodd;stroke:none;stroke-width:0.00210823;paint-order:fill markers stroke"
             id="rect11"
             width="4.5999284"
             height="0.85726452"
             x="-217.75122"
             y="254.55016"
             ry="0.121225" /><rect
             style="fill:#aa4400;fill-opacity:1;fill-rule:evenodd;stroke:none;stroke-width:0.00210823;paint-order:fill markers stroke"
             id="rect14"
             width="4.5999284"
             height="0.85726452"
             x="-229.60594"
             y="254.55014"
             ry="0.121225" /><rect
             style="fill:#aa4400;fill-opacity:1;fill-rule:evenodd;stroke:none;stroke-width:0.00210823;paint-order:fill markers stroke"
             id="rect17"
             width="4.5999284"
             height="0.85726452"
             x="-223.67859"
             y="254.55016"
             ry="0.121225" /><rect
             style="fill:#aa4400;fill-opacity:1;fill-rule:evenodd;stroke:none;stroke-width:0.00210823;paint-order:fill markers stroke"
             id="rect18"
             width="4.5999284"
             height="0.85726452"
             x="-211.82387"
             y="254.55016"
             ry="0.121225" /></g><rect
           style="fill:#ff7f2a;fill-opacity:1;fill-rule:evenodd;stroke:none;stroke-width:0.0124096;paint-order:fill markers stroke"
           id="rect20"
           width="39.289955"
           height="10.731859"
           x="459.04813"
           y="-1545.1733"
           ry="2.7254069"
           transform="scale(-1)" /><rect
           style="fill:#8b2c3a;fill-opacity:1;fill-rule:evenodd;stroke-width:0;stroke-linecap:square;stroke-linejoin:round;paint-order:stroke fill markers"
           id="rect22"
           width="11.031602"
           height="3.9999957"
           x="473.19305"
           y="-1478.0002"
           transform="scale(-1)" /><rect
           style="fill:#ffeeaa;fill-opacity:1;fill-rule:evenodd;stroke-width:0;stroke-linecap:square;stroke-linejoin:round;paint-order:stroke fill markers"
           id="rect23"
           width="2"
           height="4.0000181"
           x="475.69305"
           y="-1479.0002"
           ry="1.0000201"
           transform="scale(-1)" /><rect
           style="fill:#ffeeaa;fill-opacity:1;fill-rule:evenodd;stroke-width:0;stroke-linecap:square;stroke-linejoin:round;paint-order:stroke fill markers"
           id="rect24"
           width="2"
           height="4.0000181"
           x="479.69305"
           y="-1479.0002"
           ry="0.99999976"
           transform="scale(-1)" /><path
           id="path24"
           style="fill:#c44156;fill-opacity:1;fill-rule:evenodd;stroke-width:0;stroke-linecap:square;stroke-linejoin:round;paint-order:stroke fill markers"
           d="m -469.19317,1485.0003 c 0.554,0 0.99994,-0.4459 0.99994,-0.9999 v -5.0003 -7 c 0,-0.554 -0.44594,-1 -0.99994,-1 h -2.99982 c -0.55399,0 -0.99994,0.446 -0.99994,1 v 6.0001 h -11.00036 v -6.0001 c 0,-0.554 -0.44594,-1 -0.99994,-1 h -2.99981 c -0.554,0 -0.99994,0.446 -0.99994,1 v 6.9975 c -1e-5,9e-4 0,0 0,0 v 5.0002 c 0,0.1731 0.0436,0.3358 0.1204,0.4775 0.0307,0.057 0.0668,0.1098 0.10749,0.1591 0.18312,0.2221 0.46042,0.3633 0.77205,0.3633 h 2.99981 z" /></g></g></g></svg>
