<?xml version="1.0" encoding="UTF-8" standalone="no"?>
<!-- Created with Inkscape (http://www.inkscape.org/) -->

<svg
   width="103.2439mm"
   height="65.487816mm"
   viewBox="0 0 103.2439 65.487817"
   version="1.1"
   id="svg1"
   xml:space="preserve"
   sodipodi:docname="pahub.svg"
   inkscape:version="1.4.2 (ebf0e940, 2025-05-08)"
   xmlns:inkscape="http://www.inkscape.org/namespaces/inkscape"
   xmlns:sodipodi="http://sodipodi.sourceforge.net/DTD/sodipodi-0.dtd"
   xmlns="http://www.w3.org/2000/svg"
   xmlns:svg="http://www.w3.org/2000/svg"><sodipodi:namedview
     id="namedview1"
     pagecolor="#ffffff"
     bordercolor="#000000"
     borderopacity="0.25"
     inkscape:showpageshadow="2"
     inkscape:pageopacity="0.0"
     inkscape:pagecheckerboard="0"
     inkscape:deskcolor="#797979"
     inkscape:document-units="mm"
     showgrid="false"
     showguides="true"
     inkscape:zoom="0.44943534"
     inkscape:cx="215.82638"
     inkscape:cy="-373.80238"
     inkscape:window-width="2384"
     inkscape:window-height="1371"
     inkscape:window-x="1371"
     inkscape:window-y="25"
     inkscape:window-maximized="0"
     inkscape:current-layer="layer1"><inkscape:grid
       id="grid1"
       units="mm"
       originx="583.60823"
       originy="-1169.4256"
       spacingx="0.99999998"
       spacingy="1"
       empcolor="#0099e5"
       empopacity="0.30196078"
       color="#0099e5"
       opacity="0.14901961"
       empspacing="5"
       enabled="true"
       visible="false" /></sodipodi:namedview><defs
     id="defs1" /><g
     inkscape:label="Layer 1"
     inkscape:groupmode="layer"
     id="layer1"
     transform="translate(583.60823,-1169.4256)"><g
       id="g281"
       transform="rotate(180,34.665114,341.3709)"><g
         id="g191"
         transform="translate(8.3867273,178.00957)" /></g><g
       id="g540"
       transform="matrix(0.8090083,0,0,0.889878,-89.218707,21.16354)" /><g
       id="g595"
       transform="translate(-70.576877,1067.7817)"><path
         id="rect305"
         style="fill:#ececec;fill-opacity:1;fill-rule:evenodd;stroke:#cccccc;stroke-width:1;stroke-linecap:square;stroke-linejoin:round;stroke-dasharray:none;paint-order:stroke fill markers"
         d="m -109.38787,-503.28746 c 0,-3.878 -3.12209,-7.00009 -7.00009,-7.00009 h -35.99987 c -3.87801,0 -7.00009,3.12209 -7.00009,7.00009 v 85.99992 c 0,3.878 3.12208,7.00009 7.00009,7.00009 h 35.99987 c 3.878,0 7.00009,-3.12209 7.00009,-7.00009 z m -2.99982,67.99998 a 4.9999976,4.9999976 0 0 1 -5.00021,4.9997 4.9999976,4.9999976 0 0 1 -4.9997,-4.9997 4.9999976,4.9999976 0 0 1 4.9997,-5.00021 4.9999976,4.9999976 0 0 1 5.00021,5.00021 z m -33.99999,0 a 4.9999976,4.9999976 0 0 1 -5.00021,4.9997 4.9999976,4.9999976 0 0 1 -4.9997,-4.9997 4.9999976,4.9999976 0 0 1 4.9997,-5.00021 4.9999976,4.9999976 0 0 1 5.00021,5.00021 z"
         transform="rotate(-90)" /><path
         id="path305"
         style="fill:#cccccc;fill-opacity:1;fill-rule:evenodd;stroke-width:0;stroke-linecap:square;stroke-linejoin:round;paint-order:stroke fill markers"
         d="m -435.28748,144.38781 a 6.9999986,6.9999986 0 0 0 -7.00008,7.00008 v 8.00003 h 14.00017 v -7.98556 -0.0145 a 6.9999986,6.9999986 0 0 0 -7.00009,-7.00008 z m 0,1.99987 a 4.9999976,4.9999976 0 0 1 4.9997,5.00021 4.9999976,4.9999976 0 0 1 -4.9997,4.9997 4.9999976,4.9999976 0 0 1 -5.00021,-4.9997 4.9999976,4.9999976 0 0 1 5.00021,-5.00021 z" /><rect
         style="fill:#8b2c3a;fill-opacity:1;fill-rule:evenodd;stroke-width:0;stroke-linecap:square;stroke-linejoin:round;paint-order:stroke fill markers"
         id="rect306"
         width="11.031602"
         height="3.9999957"
         x="-139.88782"
         y="-417.28763"
         transform="rotate(-90)" /><rect
         style="fill:#ffeeaa;fill-opacity:1;fill-rule:evenodd;stroke-width:0;stroke-linecap:square;stroke-linejoin:round;paint-order:stroke fill markers"
         id="rect307"
         width="2"
         height="4.0000181"
         x="-137.38782"
         y="-418.28766"
         ry="1.0000201"
         transform="rotate(-90)" /><rect
         style="fill:#ffeeaa;fill-opacity:1;fill-rule:evenodd;stroke-width:0;stroke-linecap:square;stroke-linejoin:round;paint-order:stroke fill markers"
         id="rect308"
         width="2"
         height="4.0000181"
         x="-133.38782"
         y="-418.28763"
         ry="0.99999976"
         transform="rotate(-90)" /><path
         id="path308"
         style="fill:#c44156;fill-opacity:1;fill-rule:evenodd;stroke-width:0;stroke-linecap:square;stroke-linejoin:round;paint-order:stroke fill markers"
         d="m -424.28772,143.88769 c 0,0.554 0.44594,0.99994 0.99994,0.99994 h 5.00021 7.00009 c 0.554,0 0.99994,-0.44594 0.99994,-0.99994 v -2.99982 c 0,-0.55399 -0.44594,-0.99994 -0.99994,-0.99994 h -6.00015 v -11.00036 h 6.00015 c 0.554,0 0.99994,-0.44594 0.99994,-0.99994 v -2.99981 c 0,-0.554 -0.44594,-0.99994 -0.99994,-0.99994 h -6.99751 c -9.3e-4,-10e-6 -0.002,0 -0.003,0 h -5.00021 c -0.17313,0 -0.33578,0.0436 -0.47749,0.1204 -0.0567,0.0307 -0.10982,0.0668 -0.15917,0.10749 -0.22207,0.18312 -0.36328,0.46042 -0.36328,0.77205 v 2.99981 z" /><path
         id="path309"
         style="fill:#cccccc;fill-opacity:1;fill-rule:evenodd;stroke-width:0;stroke-linecap:square;stroke-linejoin:round;paint-order:stroke fill markers"
         d="m -442.28756,109.38736 v 8.00054 a 6.9999986,6.9999986 0 0 0 7.00008,7.00009 6.9999986,6.9999986 0 0 0 7.00009,-7.00009 v -0.015 -7.98556 z m 7.00008,3.00033 a 4.9999976,4.9999976 0 0 1 4.9997,5.00021 4.9999976,4.9999976 0 0 1 -4.9997,4.9997 4.9999976,4.9999976 0 0 1 -5.00021,-4.9997 4.9999976,4.9999976 0 0 1 5.00021,-5.00021 z" /><rect
         style="fill:#4e1a1f;fill-opacity:1;fill-rule:evenodd;stroke-width:0;stroke-linecap:square;stroke-linejoin:round;paint-order:stroke fill markers"
         id="rect310"
         width="40"
         height="54.999996"
         x="-154.38776"
         y="-500.28754"
         ry="0.99999744"
         transform="rotate(-90)" /><path
         id="path310"
         style="fill:#c44156;fill-opacity:1;fill-rule:evenodd;stroke-width:0;stroke-linecap:square;stroke-linejoin:round;paint-order:stroke fill markers"
         d="m -499.28747,153.3878 c 0,0.554 0.44594,0.99994 0.99994,0.99994 h 8.00003 c 0.554,0 0.99994,-0.44594 0.99994,-0.99994 v -2.00039 h -1.99988 v -13.99967 h 1.99988 v -2.00039 c 0,-0.554 -0.44594,-0.99994 -0.99994,-0.99994 h -8.00003 c -0.554,0 -0.99994,0.44594 -0.99994,0.99994 z" /><path
         id="path311"
         style="fill:#8b2c3a;fill-opacity:1;fill-rule:evenodd;stroke-width:0;stroke-linecap:square;stroke-linejoin:round;paint-order:stroke fill markers"
         sodipodi:type="inkscape:offset"
         inkscape:radius="-0.92383063"
         inkscape:original="M 156 35 C 155.446 35 155 35.446 155 36 L 155 44 C 155 44.554 155.446 45 156 45 L 158 45 L 158 43 L 172 43 L 172 45 L 174 45 C 174.554 45 175 44.554 175 44 L 175 36 C 175 35.446 174.554 35 174 35 L 156 35 z "
         d="m 156,35.923828 c -0.0582,0 -0.0762,0.01799 -0.0762,0.07617 v 8 c 0,0.05818 0.018,0.07617 0.0762,0.07617 h 1.07617 V 43 A 0.92392301,0.92392301 0 0 1 158,42.076172 h 14 A 0.92392301,0.92392301 0 0 1 172.92383,43 v 1.076172 H 174 c 0.0582,0 0.0762,-0.01799 0.0762,-0.07617 v -8 c 0,-0.05818 -0.018,-0.07617 -0.0762,-0.07617 z"
         transform="rotate(-90,-112.44991,421.83749)" /><circle
         style="fill:#ffeeaa;fill-opacity:1;fill-rule:evenodd;stroke-width:0;stroke-linecap:square;stroke-linejoin:round;paint-order:stroke fill markers"
         id="circle311"
         cx="-151.38759"
         cy="-495.28741"
         r="0.67307711"
         transform="rotate(-90)" /><circle
         style="fill:#ffeeaa;fill-opacity:1;fill-rule:evenodd;stroke-width:0;stroke-linecap:square;stroke-linejoin:round;paint-order:stroke fill markers"
         id="circle312"
         cx="-148.13759"
         cy="-495.28741"
         r="0.67307711"
         transform="rotate(-90)" /><circle
         style="fill:#ffeeaa;fill-opacity:1;fill-rule:evenodd;stroke-width:0;stroke-linecap:square;stroke-linejoin:round;paint-order:stroke fill markers"
         id="circle313"
         cx="-144.88759"
         cy="-495.28741"
         r="0.67307711"
         transform="rotate(-90)" /><circle
         style="fill:#ffeeaa;fill-opacity:1;fill-rule:evenodd;stroke-width:0;stroke-linecap:square;stroke-linejoin:round;paint-order:stroke fill markers"
         id="circle314"
         cx="-141.63759"
         cy="-495.28741"
         r="0.67307711"
         transform="rotate(-90)" /><circle
         style="fill:#ffeeaa;fill-opacity:1;fill-rule:evenodd;stroke-width:0;stroke-linecap:square;stroke-linejoin:round;paint-order:stroke fill markers"
         id="circle315"
         cx="-138.38759"
         cy="-495.28741"
         r="0.67307711"
         transform="rotate(-90)" /><path
         id="path315"
         style="fill:#c44156;fill-opacity:1;fill-rule:evenodd;stroke-width:0;stroke-linecap:square;stroke-linejoin:round;paint-order:stroke fill markers"
         d="m -499.28747,133.38814 c 0,0.554 0.44594,0.99994 0.99994,0.99994 h 8.00003 c 0.554,0 0.99994,-0.44594 0.99994,-0.99994 v -2.00039 h -1.99988 v -13.99967 h 1.99988 v -2.00039 c 0,-0.554 -0.44594,-0.99994 -0.99994,-0.99994 h -8.00003 c -0.554,0 -0.99994,0.44594 -0.99994,0.99994 z" /><path
         id="path316"
         style="fill:#8b2c3a;fill-opacity:1;fill-rule:evenodd;stroke-width:0;stroke-linecap:square;stroke-linejoin:round;paint-order:stroke fill markers"
         sodipodi:type="inkscape:offset"
         inkscape:radius="-0.92383063"
         inkscape:original="M 156 35 C 155.446 35 155 35.446 155 36 L 155 44 C 155 44.554 155.446 45 156 45 L 158 45 L 158 43 L 172 43 L 172 45 L 174 45 C 174.554 45 175 44.554 175 44 L 175 36 C 175 35.446 174.554 35 174 35 L 156 35 z "
         d="m 156,35.923828 c -0.0582,0 -0.0762,0.01799 -0.0762,0.07617 v 8 c 0,0.05818 0.018,0.07617 0.0762,0.07617 h 1.07617 V 43 A 0.92392301,0.92392301 0 0 1 158,42.076172 h 14 A 0.92392301,0.92392301 0 0 1 172.92383,43 v 1.076172 H 174 c 0.0582,0 0.0762,-0.01799 0.0762,-0.07617 v -8 c 0,-0.05818 -0.018,-0.07617 -0.0762,-0.07617 z"
         transform="rotate(-90,-122.44974,411.83766)" /><circle
         style="fill:#ffeeaa;fill-opacity:1;fill-rule:evenodd;stroke-width:0;stroke-linecap:square;stroke-linejoin:round;paint-order:stroke fill markers"
         id="circle316"
         cx="-131.38792"
         cy="-495.28741"
         r="0.67307711"
         transform="rotate(-90)" /><circle
         style="fill:#ffeeaa;fill-opacity:1;fill-rule:evenodd;stroke-width:0;stroke-linecap:square;stroke-linejoin:round;paint-order:stroke fill markers"
         id="circle317"
         cx="-128.13792"
         cy="-495.28741"
         r="0.67307711"
         transform="rotate(-90)" /><circle
         style="fill:#ffeeaa;fill-opacity:1;fill-rule:evenodd;stroke-width:0;stroke-linecap:square;stroke-linejoin:round;paint-order:stroke fill markers"
         id="circle318"
         cx="-124.88793"
         cy="-495.28741"
         r="0.67307711"
         transform="rotate(-90)" /><circle
         style="fill:#ffeeaa;fill-opacity:1;fill-rule:evenodd;stroke-width:0;stroke-linecap:square;stroke-linejoin:round;paint-order:stroke fill markers"
         id="circle319"
         cx="-121.63793"
         cy="-495.28741"
         r="0.67307711"
         transform="rotate(-90)" /><circle
         style="fill:#ffeeaa;fill-opacity:1;fill-rule:evenodd;stroke-width:0;stroke-linecap:square;stroke-linejoin:round;paint-order:stroke fill markers"
         id="circle320"
         cx="-118.38793"
         cy="-495.28741"
         r="0.67307711"
         transform="rotate(-90)" /><path
         id="path320"
         style="fill:#c44156;fill-opacity:1;fill-rule:evenodd;stroke-width:0;stroke-linecap:square;stroke-linejoin:round;paint-order:stroke fill markers"
         d="m -469.28707,154.38774 c 0.554,0 0.99994,-0.44594 0.99994,-0.99994 v -8.00003 c 0,-0.554 -0.44594,-0.99994 -0.99994,-0.99994 h -2.00039 v 1.99988 h -13.99967 v -1.99988 h -2.00039 c -0.554,0 -0.99994,0.44594 -0.99994,0.99994 v 8.00003 c 0,0.554 0.44594,0.99994 0.99994,0.99994 z" /><path
         id="path321"
         style="fill:#8b2c3a;fill-opacity:1;fill-rule:evenodd;stroke-width:0;stroke-linecap:square;stroke-linejoin:round;paint-order:stroke fill markers"
         sodipodi:type="inkscape:offset"
         inkscape:radius="-0.92383063"
         inkscape:original="M 156 35 C 155.446 35 155 35.446 155 36 L 155 44 C 155 44.554 155.446 45 156 45 L 158 45 L 158 43 L 172 43 L 172 45 L 174 45 C 174.554 45 175 44.554 175 44 L 175 36 C 175 35.446 174.554 35 174 35 L 156 35 z "
         d="m 156,35.923828 c -0.0582,0 -0.0762,0.01799 -0.0762,0.07617 v 8 c 0,0.05818 0.018,0.07617 0.0762,0.07617 h 1.07617 V 43 A 0.92392301,0.92392301 0 0 1 158,42.076172 h 14 A 0.92392301,0.92392301 0 0 1 172.92383,43 v 1.076172 H 174 c 0.0582,0 0.0762,-0.01799 0.0762,-0.07617 v -8 c 0,-0.05818 -0.018,-0.07617 -0.0762,-0.07617 z"
         transform="rotate(180,-156.64364,94.693835)" /><circle
         style="fill:#ffeeaa;fill-opacity:1;fill-rule:evenodd;stroke-width:0;stroke-linecap:square;stroke-linejoin:round;paint-order:stroke fill markers"
         id="circle321"
         cx="471.28729"
         cy="-150.38768"
         r="0.67307711"
         transform="scale(-1)" /><circle
         style="fill:#ffeeaa;fill-opacity:1;fill-rule:evenodd;stroke-width:0;stroke-linecap:square;stroke-linejoin:round;paint-order:stroke fill markers"
         id="circle322"
         cx="474.53729"
         cy="-150.38768"
         r="0.67307711"
         transform="scale(-1)" /><circle
         style="fill:#ffeeaa;fill-opacity:1;fill-rule:evenodd;stroke-width:0;stroke-linecap:square;stroke-linejoin:round;paint-order:stroke fill markers"
         id="circle323"
         cx="477.78729"
         cy="-150.38768"
         r="0.67307711"
         transform="scale(-1)" /><circle
         style="fill:#ffeeaa;fill-opacity:1;fill-rule:evenodd;stroke-width:0;stroke-linecap:square;stroke-linejoin:round;paint-order:stroke fill markers"
         id="circle324"
         cx="481.03729"
         cy="-150.38768"
         r="0.67307711"
         transform="scale(-1)" /><circle
         style="fill:#ffeeaa;fill-opacity:1;fill-rule:evenodd;stroke-width:0;stroke-linecap:square;stroke-linejoin:round;paint-order:stroke fill markers"
         id="circle325"
         cx="484.28729"
         cy="-150.38768"
         r="0.67307711"
         transform="scale(-1)" /><path
         id="path325"
         style="fill:#c44156;fill-opacity:1;fill-rule:evenodd;stroke-width:0;stroke-linecap:square;stroke-linejoin:round;paint-order:stroke fill markers"
         d="m -448.28713,154.38774 c 0.554,0 0.99994,-0.44594 0.99994,-0.99994 v -8.00003 c 0,-0.554 -0.44594,-0.99994 -0.99994,-0.99994 h -2.00039 v 1.99988 h -13.99967 v -1.99988 h -2.00039 c -0.554,0 -0.99994,0.44594 -0.99994,0.99994 v 8.00003 c 0,0.554 0.44594,0.99994 0.99994,0.99994 z" /><path
         id="path326"
         style="fill:#8b2c3a;fill-opacity:1;fill-rule:evenodd;stroke-width:0;stroke-linecap:square;stroke-linejoin:round;paint-order:stroke fill markers"
         sodipodi:type="inkscape:offset"
         inkscape:radius="-0.92383063"
         inkscape:original="M 156 35 C 155.446 35 155 35.446 155 36 L 155 44 C 155 44.554 155.446 45 156 45 L 158 45 L 158 43 L 172 43 L 172 45 L 174 45 C 174.554 45 175 44.554 175 44 L 175 36 C 175 35.446 174.554 35 174 35 L 156 35 z "
         d="m 156,35.923828 c -0.0582,0 -0.0762,0.01799 -0.0762,0.07617 v 8 c 0,0.05818 0.018,0.07617 0.0762,0.07617 h 1.07617 V 43 A 0.92392301,0.92392301 0 0 1 158,42.076172 h 14 A 0.92392301,0.92392301 0 0 1 172.92383,43 v 1.076172 H 174 c 0.0582,0 0.0762,-0.01799 0.0762,-0.07617 v -8 c 0,-0.05818 -0.018,-0.07617 -0.0762,-0.07617 z"
         transform="rotate(180,-146.14367,94.693835)" /><circle
         style="fill:#ffeeaa;fill-opacity:1;fill-rule:evenodd;stroke-width:0;stroke-linecap:square;stroke-linejoin:round;paint-order:stroke fill markers"
         id="circle326"
         cx="450.28735"
         cy="-150.38768"
         r="0.67307711"
         transform="scale(-1)" /><circle
         style="fill:#ffeeaa;fill-opacity:1;fill-rule:evenodd;stroke-width:0;stroke-linecap:square;stroke-linejoin:round;paint-order:stroke fill markers"
         id="circle327"
         cx="453.53735"
         cy="-150.38768"
         r="0.67307711"
         transform="scale(-1)" /><circle
         style="fill:#ffeeaa;fill-opacity:1;fill-rule:evenodd;stroke-width:0;stroke-linecap:square;stroke-linejoin:round;paint-order:stroke fill markers"
         id="circle328"
         cx="456.78735"
         cy="-150.38768"
         r="0.67307711"
         transform="scale(-1)" /><circle
         style="fill:#ffeeaa;fill-opacity:1;fill-rule:evenodd;stroke-width:0;stroke-linecap:square;stroke-linejoin:round;paint-order:stroke fill markers"
         id="circle329"
         cx="460.03735"
         cy="-150.38768"
         r="0.67307711"
         transform="scale(-1)" /><circle
         style="fill:#ffeeaa;fill-opacity:1;fill-rule:evenodd;stroke-width:0;stroke-linecap:square;stroke-linejoin:round;paint-order:stroke fill markers"
         id="circle330"
         cx="463.28735"
         cy="-150.38768"
         r="0.67307711"
         transform="scale(-1)" /><path
         id="path330"
         style="fill:#c44156;fill-opacity:1;fill-rule:evenodd;stroke-width:0;stroke-linecap:square;stroke-linejoin:round;paint-order:stroke fill markers"
         d="m -469.28708,114.38774 c 0.554,0 0.99994,0.44594 0.99994,0.99994 v 8.00003 c 0,0.554 -0.44594,0.99994 -0.99994,0.99994 h -2.00039 v -1.99988 h -13.99967 v 1.99988 h -2.00039 c -0.554,0 -0.99994,-0.44594 -0.99994,-0.99994 v -8.00003 c 0,-0.554 0.44594,-0.99994 0.99994,-0.99994 z" /><path
         id="path331"
         style="fill:#8b2c3a;fill-opacity:1;fill-rule:evenodd;stroke-width:0;stroke-linecap:square;stroke-linejoin:round;paint-order:stroke fill markers"
         sodipodi:type="inkscape:offset"
         inkscape:radius="-0.92383063"
         inkscape:original="M 156 35 C 155.446 35 155 35.446 155 36 L 155 44 C 155 44.554 155.446 45 156 45 L 158 45 L 158 43 L 172 43 L 172 45 L 174 45 C 174.554 45 175 44.554 175 44 L 175 36 C 175 35.446 174.554 35 174 35 L 156 35 z "
         d="m 156,35.923828 c -0.0582,0 -0.0762,0.01799 -0.0762,0.07617 v 8 c 0,0.05818 0.018,0.07617 0.0762,0.07617 h 1.07617 V 43 A 0.92392301,0.92392301 0 0 1 158,42.076172 h 14 A 0.92392301,0.92392301 0 0 1 172.92383,43 v 1.076172 H 174 c 0.0582,0 0.0762,-0.01799 0.0762,-0.07617 v -8 c 0,-0.05818 -0.018,-0.07617 -0.0762,-0.07617 z"
         transform="matrix(-1,0,0,1,-313.2873,79.38781)" /><circle
         style="fill:#ffeeaa;fill-opacity:1;fill-rule:evenodd;stroke-width:0;stroke-linecap:square;stroke-linejoin:round;paint-order:stroke fill markers"
         id="circle331"
         cx="471.28729"
         cy="118.3878"
         r="0.67307711"
         transform="scale(-1,1)" /><circle
         style="fill:#ffeeaa;fill-opacity:1;fill-rule:evenodd;stroke-width:0;stroke-linecap:square;stroke-linejoin:round;paint-order:stroke fill markers"
         id="circle332"
         cx="474.53729"
         cy="118.3878"
         r="0.67307711"
         transform="scale(-1,1)" /><circle
         style="fill:#ffeeaa;fill-opacity:1;fill-rule:evenodd;stroke-width:0;stroke-linecap:square;stroke-linejoin:round;paint-order:stroke fill markers"
         id="circle333"
         cx="477.78729"
         cy="118.3878"
         r="0.67307711"
         transform="scale(-1,1)" /><circle
         style="fill:#ffeeaa;fill-opacity:1;fill-rule:evenodd;stroke-width:0;stroke-linecap:square;stroke-linejoin:round;paint-order:stroke fill markers"
         id="circle334"
         cx="481.03729"
         cy="118.3878"
         r="0.67307711"
         transform="scale(-1,1)" /><circle
         style="fill:#ffeeaa;fill-opacity:1;fill-rule:evenodd;stroke-width:0;stroke-linecap:square;stroke-linejoin:round;paint-order:stroke fill markers"
         id="circle335"
         cx="484.28729"
         cy="118.3878"
         r="0.67307711"
         transform="scale(-1,1)" /><path
         id="path335"
         style="fill:#c44156;fill-opacity:1;fill-rule:evenodd;stroke-width:0;stroke-linecap:square;stroke-linejoin:round;paint-order:stroke fill markers"
         d="m -448.28714,114.38774 c 0.554,0 0.99994,0.44594 0.99994,0.99994 v 8.00003 c 0,0.554 -0.44594,0.99994 -0.99994,0.99994 h -2.00039 v -1.99988 h -13.99967 v 1.99988 h -2.00039 c -0.554,0 -0.99994,-0.44594 -0.99994,-0.99994 v -8.00003 c 0,-0.554 0.44594,-0.99994 0.99994,-0.99994 z" /><path
         id="path336"
         style="fill:#8b2c3a;fill-opacity:1;fill-rule:evenodd;stroke-width:0;stroke-linecap:square;stroke-linejoin:round;paint-order:stroke fill markers"
         sodipodi:type="inkscape:offset"
         inkscape:radius="-0.92383063"
         inkscape:original="M 156 35 C 155.446 35 155 35.446 155 36 L 155 44 C 155 44.554 155.446 45 156 45 L 158 45 L 158 43 L 172 43 L 172 45 L 174 45 C 174.554 45 175 44.554 175 44 L 175 36 C 175 35.446 174.554 35 174 35 L 156 35 z "
         d="m 156,35.923828 c -0.0582,0 -0.0762,0.01799 -0.0762,0.07617 v 8 c 0,0.05818 0.018,0.07617 0.0762,0.07617 h 1.07617 V 43 A 0.92392301,0.92392301 0 0 1 158,42.076172 h 14 A 0.92392301,0.92392301 0 0 1 172.92383,43 v 1.076172 H 174 c 0.0582,0 0.0762,-0.01799 0.0762,-0.07617 v -8 c 0,-0.05818 -0.018,-0.07617 -0.0762,-0.07617 z"
         transform="matrix(-1,0,0,1,-292.28736,79.38781)" /><circle
         style="fill:#ffeeaa;fill-opacity:1;fill-rule:evenodd;stroke-width:0;stroke-linecap:square;stroke-linejoin:round;paint-order:stroke fill markers"
         id="circle336"
         cx="450.28735"
         cy="118.3878"
         r="0.67307711"
         transform="scale(-1,1)" /><circle
         style="fill:#ffeeaa;fill-opacity:1;fill-rule:evenodd;stroke-width:0;stroke-linecap:square;stroke-linejoin:round;paint-order:stroke fill markers"
         id="circle337"
         cx="453.53735"
         cy="118.3878"
         r="0.67307711"
         transform="scale(-1,1)" /><circle
         style="fill:#ffeeaa;fill-opacity:1;fill-rule:evenodd;stroke-width:0;stroke-linecap:square;stroke-linejoin:round;paint-order:stroke fill markers"
         id="circle338"
         cx="456.78735"
         cy="118.3878"
         r="0.67307711"
         transform="scale(-1,1)" /><circle
         style="fill:#ffeeaa;fill-opacity:1;fill-rule:evenodd;stroke-width:0;stroke-linecap:square;stroke-linejoin:round;paint-order:stroke fill markers"
         id="circle339"
         cx="460.03735"
         cy="118.3878"
         r="0.67307711"
         transform="scale(-1,1)" /><circle
         style="fill:#ffeeaa;fill-opacity:1;fill-rule:evenodd;stroke-width:0;stroke-linecap:square;stroke-linejoin:round;paint-order:stroke fill markers"
         id="circle340"
         cx="463.28735"
         cy="118.3878"
         r="0.67307711"
         transform="scale(-1,1)" /><rect
         style="fill:#ffeeaa;fill-opacity:1;fill-rule:evenodd;stroke-width:0;stroke-linecap:square;stroke-linejoin:round;paint-order:stroke fill markers"
         id="rect340"
         width="13.999998"
         height="2.0000036"
         x="-141.38776"
         y="-458.28754"
         ry="1.0000018"
         transform="rotate(-90)" /><rect
         style="fill:#ffeeaa;fill-opacity:1;fill-rule:evenodd;stroke-width:0;stroke-linecap:square;stroke-linejoin:round;paint-order:stroke fill markers"
         id="rect341"
         width="13.999998"
         height="1.9999968"
         x="-141.38776"
         y="-455.28754"
         ry="0.99999839"
         transform="rotate(-90)" /><rect
         style="fill:#ffeeaa;fill-opacity:1;fill-rule:evenodd;stroke-width:0;stroke-linecap:square;stroke-linejoin:round;paint-order:stroke fill markers"
         id="rect342"
         width="13.999998"
         height="2.0000036"
         x="-141.38776"
         y="-452.28754"
         ry="1.0000018"
         transform="rotate(-90)" /><rect
         style="fill:#1a1a1a;fill-opacity:1;fill-rule:evenodd;stroke-width:0;stroke-linecap:square;stroke-linejoin:round;paint-order:stroke fill markers"
         id="rect343"
         width="10"
         height="10.556612"
         x="-139.38774"
         y="-459.56586"
         ry="0.99999744"
         transform="rotate(-90)" /><rect
         style="fill:#ffeeaa;fill-opacity:1;fill-rule:evenodd;stroke-width:0;stroke-linecap:square;stroke-linejoin:round;paint-order:stroke fill markers"
         id="rect344"
         width="3.401686"
         height="1.9999951"
         x="-136.08859"
         y="-458.28754"
         ry="0.52278107"
         transform="rotate(-90)" /><rect
         style="fill:#ffeeaa;fill-opacity:1;fill-rule:evenodd;stroke-width:0;stroke-linecap:square;stroke-linejoin:round;paint-order:stroke fill markers"
         id="rect345"
         width="3.401686"
         height="1.9999951"
         x="-136.08859"
         y="-455.28754"
         ry="0.52278107"
         transform="rotate(-90)" /><rect
         style="fill:#ffeeaa;fill-opacity:1;fill-rule:evenodd;stroke-width:0;stroke-linecap:square;stroke-linejoin:round;paint-order:stroke fill markers"
         id="rect346"
         width="3.401686"
         height="1.9999951"
         x="-136.08859"
         y="-452.28754"
         ry="0.52278107"
         transform="rotate(-90)" /><rect
         style="fill:#ffeeaa;fill-opacity:1;fill-rule:evenodd;stroke-width:0;stroke-linecap:square;stroke-linejoin:round;paint-order:stroke fill markers"
         id="rect347"
         width="14.81882"
         height="0.94641447"
         x="-141.79715"
         y="-469.50186"
         ry="0.47320724"
         transform="rotate(-90)" /><rect
         style="fill:#ffeeaa;fill-opacity:1;fill-rule:evenodd;stroke-width:0;stroke-linecap:square;stroke-linejoin:round;paint-order:stroke fill markers"
         id="rect348"
         width="14.81882"
         height="0.94641125"
         x="-141.79715"
         y="-468.08224"
         ry="0.47320563"
         transform="rotate(-90)" /><rect
         style="fill:#ffeeaa;fill-opacity:1;fill-rule:evenodd;stroke-width:0;stroke-linecap:square;stroke-linejoin:round;paint-order:stroke fill markers"
         id="rect349"
         width="14.81882"
         height="0.94641447"
         x="-141.79715"
         y="-466.66263"
         ry="0.47320724"
         transform="rotate(-90)" /><rect
         style="fill:#ffeeaa;fill-opacity:1;fill-rule:evenodd;stroke-width:0;stroke-linecap:square;stroke-linejoin:round;paint-order:stroke fill markers"
         id="rect350"
         width="14.81882"
         height="0.94641447"
         x="-141.79715"
         y="-473.76074"
         ry="0.47320724"
         transform="rotate(-90)" /><rect
         style="fill:#ffeeaa;fill-opacity:1;fill-rule:evenodd;stroke-width:0;stroke-linecap:square;stroke-linejoin:round;paint-order:stroke fill markers"
         id="rect351"
         width="14.81882"
         height="0.94641125"
         x="-141.79715"
         y="-472.34113"
         ry="0.47320563"
         transform="rotate(-90)" /><rect
         style="fill:#ffeeaa;fill-opacity:1;fill-rule:evenodd;stroke-width:0;stroke-linecap:square;stroke-linejoin:round;paint-order:stroke fill markers"
         id="rect352"
         width="14.81882"
         height="0.94641447"
         x="-141.79715"
         y="-470.92151"
         ry="0.47320724"
         transform="rotate(-90)" /><rect
         style="fill:#ffeeaa;fill-opacity:1;fill-rule:evenodd;stroke-width:0;stroke-linecap:square;stroke-linejoin:round;paint-order:stroke fill markers"
         id="rect353"
         width="14.81882"
         height="0.94641447"
         x="-141.79715"
         y="-478.01959"
         ry="0.47320724"
         transform="rotate(-90)" /><rect
         style="fill:#ffeeaa;fill-opacity:1;fill-rule:evenodd;stroke-width:0;stroke-linecap:square;stroke-linejoin:round;paint-order:stroke fill markers"
         id="rect354"
         width="14.81882"
         height="0.94641125"
         x="-141.79715"
         y="-476.59998"
         ry="0.47320563"
         transform="rotate(-90)" /><rect
         style="fill:#ffeeaa;fill-opacity:1;fill-rule:evenodd;stroke-width:0;stroke-linecap:square;stroke-linejoin:round;paint-order:stroke fill markers"
         id="rect355"
         width="14.81882"
         height="0.94641447"
         x="-141.79715"
         y="-475.18036"
         ry="0.47320724"
         transform="rotate(-90)" /><rect
         style="fill:#ffeeaa;fill-opacity:1;fill-rule:evenodd;stroke-width:0;stroke-linecap:square;stroke-linejoin:round;paint-order:stroke fill markers"
         id="rect356"
         width="14.81882"
         height="0.94641447"
         x="-141.79715"
         y="-482.27844"
         ry="0.47320724"
         transform="rotate(-90)" /><rect
         style="fill:#ffeeaa;fill-opacity:1;fill-rule:evenodd;stroke-width:0;stroke-linecap:square;stroke-linejoin:round;paint-order:stroke fill markers"
         id="rect357"
         width="14.81882"
         height="0.94641125"
         x="-141.79715"
         y="-480.85883"
         ry="0.47320563"
         transform="rotate(-90)" /><rect
         style="fill:#ffeeaa;fill-opacity:1;fill-rule:evenodd;stroke-width:0;stroke-linecap:square;stroke-linejoin:round;paint-order:stroke fill markers"
         id="rect358"
         width="14.81882"
         height="0.94641447"
         x="-141.79715"
         y="-479.43921"
         ry="0.47320724"
         transform="rotate(-90)" /><rect
         style="fill:#1a1a1a;fill-opacity:1;fill-rule:evenodd;stroke-width:0;stroke-linecap:square;stroke-linejoin:round;paint-order:stroke fill markers"
         id="rect359"
         width="11.456559"
         height="18.548214"
         x="-140.11603"
         y="-483.27142"
         ry="1.7570189"
         transform="rotate(-90)" /><circle
         style="fill:#4d4d4d;fill-opacity:1;fill-rule:evenodd;stroke-width:0;stroke-linecap:square;stroke-linejoin:round;paint-order:stroke fill markers"
         id="circle359"
         cx="-107.4866"
         cy="-457.21136"
         r="5.8427525"
         transform="rotate(-90)" /><path
         d="m -456.60642,107.37187 q 0,0.27118 -0.16688,0.46935 -0.15645,0.19818 -0.4172,0.19818 -0.27119,0 -0.43807,-0.19818 -0.16688,-0.19817 -0.16688,-0.46935 0,-0.27118 0.16688,-0.47978 0.16688,-0.20861 0.43807,-0.20861 0.26075,0 0.4172,0.20861 0.16688,0.2086 0.16688,0.47978 z m -2.73269,0.11473 q 0,-1.62709 0.5528,-2.49279 0.56323,-0.87613 1.57495,-0.87613 1.02215,0 1.57494,0.87613 0.5528,0.8657 0.5528,2.49279 0,1.6271 -0.5528,2.50323 -0.55279,0.86569 -1.57494,0.86569 -1.01172,0 -1.57495,-0.86569 -0.5528,-0.87613 -0.5528,-2.50323 z m 3.37936,0 q 0,-0.53193 -0.0626,-1.00129 -0.0626,-0.47978 -0.20861,-0.83441 -0.14602,-0.35462 -0.38591,-0.56322 -0.23989,-0.2086 -0.59451,-0.2086 -0.35463,0 -0.59452,0.2086 -0.23989,0.2086 -0.38591,0.56322 -0.14603,0.35463 -0.20861,0.83441 -0.0626,0.46936 -0.0626,1.00129 0,0.53194 0.0626,1.01172 0.0626,0.46936 0.20861,0.82398 0.14602,0.35462 0.38591,0.56322 0.23989,0.20861 0.59452,0.20861 0.35462,0 0.59451,-0.20861 0.23989,-0.2086 0.38591,-0.56322 0.14603,-0.35462 0.20861,-0.82398 0.0626,-0.47978 0.0626,-1.01172 z"
         id="text359"
         style="font-size:10.4301px;font-family:'Ubuntu Mono';-inkscape-font-specification:'Ubuntu Mono';text-align:center;letter-spacing:0px;text-anchor:middle;fill:#ffffff;fill-rule:evenodd;stroke-width:0;stroke-linecap:square;stroke-linejoin:round;paint-order:stroke fill markers"
         aria-label="0" /><circle
         style="fill:#4d4d4d;fill-opacity:1;fill-rule:evenodd;stroke-width:0;stroke-linecap:square;stroke-linejoin:round;paint-order:stroke fill markers"
         id="circle360"
         cx="-107.4866"
         cy="-478.21136"
         r="5.8427525"
         transform="rotate(-90)" /><path
         d="m -480.09919,105.59353 q 0.53193,-0.2086 1.03258,-0.52151 0.50064,-0.32333 0.92828,-0.81355 h 0.60494 v 5.72613 h 1.22032 v 0.73011 h -3.47322 v -0.73011 h 1.39763 v -4.52666 q -0.11473,0.1043 -0.28161,0.21903 -0.15645,0.1043 -0.35462,0.2086 -0.18774,0.1043 -0.39635,0.19817 -0.2086,0.0939 -0.40677,0.15645 z"
         id="text360"
         style="font-size:10.4301px;font-family:'Ubuntu Mono';-inkscape-font-specification:'Ubuntu Mono';text-align:center;letter-spacing:0px;text-anchor:middle;fill:#ffffff;fill-rule:evenodd;stroke-width:0;stroke-linecap:square;stroke-linejoin:round;paint-order:stroke fill markers"
         aria-label="1" /><circle
         style="fill:#4d4d4d;fill-opacity:1;fill-rule:evenodd;stroke-width:0;stroke-linecap:square;stroke-linejoin:round;paint-order:stroke fill markers"
         id="circle361"
         cx="-124.38773"
         cy="-507.1886"
         r="5.8427525"
         transform="rotate(-90)" /><path
         d="m -505.42592,122.88058 q 0,0.33376 -0.13559,0.64667 -0.12516,0.3129 -0.34419,0.61537 -0.20861,0.30248 -0.47979,0.59452 -0.27118,0.29204 -0.55279,0.57366 -0.15645,0.15645 -0.36506,0.37548 -0.2086,0.21903 -0.39634,0.44849 -0.18774,0.22947 -0.3129,0.4485 -0.12516,0.21903 -0.12516,0.37548 h 2.97257 v 0.73011 h -3.91128 q -0.0104,-0.0522 -0.0104,-0.1043 0,-0.0626 0,-0.11473 0,-0.43807 0.14602,-0.81355 0.14602,-0.37549 0.37548,-0.70925 0.22946,-0.33376 0.51108,-0.6258 0.29204,-0.30248 0.57365,-0.58409 0.22946,-0.22946 0.43807,-0.44849 0.21903,-0.21904 0.37548,-0.43807 0.16688,-0.21903 0.26075,-0.44849 0.1043,-0.2399 0.1043,-0.49022 0,-0.28161 -0.0939,-0.47978 -0.0834,-0.19817 -0.23989,-0.32334 -0.14602,-0.13559 -0.34419,-0.19817 -0.19818,-0.0626 -0.42764,-0.0626 -0.27118,0 -0.50064,0.073 -0.21903,0.073 -0.39635,0.17731 -0.16688,0.10431 -0.29204,0.20861 -0.12516,0.0939 -0.18774,0.15645 l -0.42764,-0.60495 q 0.0834,-0.0939 0.25033,-0.22946 0.16688,-0.13559 0.39634,-0.25032 0.23989,-0.12516 0.53194,-0.2086 0.29204,-0.0834 0.6258,-0.0834 1.01172,0 1.49151,0.46936 0.49021,0.45892 0.49021,1.32462 z"
         id="text361"
         style="font-size:10.4301px;font-family:'Ubuntu Mono';-inkscape-font-specification:'Ubuntu Mono';text-align:center;letter-spacing:0px;text-anchor:middle;fill:#ffffff;fill-rule:evenodd;stroke-width:0;stroke-linecap:square;stroke-linejoin:round;paint-order:stroke fill markers"
         aria-label="2" /><circle
         style="fill:#4d4d4d;fill-opacity:1;fill-rule:evenodd;stroke-width:0;stroke-linecap:square;stroke-linejoin:round;paint-order:stroke fill markers"
         id="circle362"
         cx="-144.38783"
         cy="-507.1886"
         r="5.8427525"
         transform="rotate(-90)" /><path
         d="m -507.59016,146.99535 q 0.82398,0 1.16817,-0.32333 0.35462,-0.33377 0.35462,-0.88656 0,-0.35463 -0.14602,-0.59452 -0.14602,-0.23989 -0.38591,-0.38591 -0.23989,-0.14602 -0.5528,-0.2086 -0.3129,-0.0626 -0.65709,-0.0626 h -0.21904 v -0.69882 h 0.30248 q 0.22946,0 0.46935,-0.0417 0.25032,-0.0521 0.4485,-0.16688 0.2086,-0.12516 0.33376,-0.33377 0.12516,-0.2086 0.12516,-0.53193 0,-0.53194 -0.33376,-0.75097 -0.32334,-0.22946 -0.7614,-0.22946 -0.44849,0 -0.7614,0.13559 -0.3129,0.12516 -0.5215,0.26075 l -0.33377,-0.65709 q 0.21904,-0.15646 0.6571,-0.32334 0.4485,-0.17731 0.99086,-0.17731 0.51108,0 0.87613,0.12516 0.36505,0.12516 0.59451,0.35463 0.2399,0.22946 0.35463,0.54236 0.11473,0.30247 0.11473,0.66753 0,0.51107 -0.27118,0.8657 -0.26076,0.35462 -0.67796,0.54236 0.50065,0.14602 0.8657,0.57366 0.36505,0.4172 0.36505,1.11602 0,0.4172 -0.14602,0.78225 -0.13559,0.35463 -0.42763,0.61538 -0.28162,0.26075 -0.74054,0.40677 -0.44849,0.14603 -1.0743,0.14603 -0.23989,0 -0.50065,-0.0417 -0.25032,-0.0313 -0.46935,-0.0939 -0.21903,-0.0522 -0.39634,-0.1043 -0.16689,-0.0626 -0.2399,-0.0939 l 0.16689,-0.74053 q 0.16688,0.0834 0.53193,0.19817 0.36505,0.11473 0.89699,0.11473 z"
         id="text362"
         style="font-size:10.4301px;font-family:'Ubuntu Mono';-inkscape-font-specification:'Ubuntu Mono';text-align:center;letter-spacing:0px;text-anchor:middle;fill:#ffffff;fill-rule:evenodd;stroke-width:0;stroke-linecap:square;stroke-linejoin:round;paint-order:stroke fill markers"
         aria-label="3" /><circle
         style="fill:#4d4d4d;fill-opacity:1;fill-rule:evenodd;stroke-width:0;stroke-linecap:square;stroke-linejoin:round;paint-order:stroke fill markers"
         id="circle363"
         cx="-161.28891"
         cy="-478.21136"
         r="5.8427525"
         transform="rotate(-90)" /><path
         d="m -480.45384,162.28497 q 0.17731,-0.4172 0.47978,-0.95957 0.3129,-0.54236 0.69882,-1.11602 0.38591,-0.58408 0.82398,-1.13688 0.43806,-0.56322 0.88655,-1.01172 h 0.83441 v 4.09903 h 0.7614 v 0.70925 h -0.7614 v 1.64795 h -0.83441 v -1.64795 h -2.88913 z m 2.88913,-3.20204 q -0.28161,0.30247 -0.57365,0.66753 -0.28161,0.36505 -0.5528,0.77183 -0.27118,0.39634 -0.51107,0.81354 -0.22946,0.41721 -0.41721,0.82398 h 2.05473 z"
         id="text363"
         style="font-size:10.4301px;font-family:'Ubuntu Mono';-inkscape-font-specification:'Ubuntu Mono';text-align:center;letter-spacing:0px;text-anchor:middle;fill:#ffffff;fill-rule:evenodd;stroke-width:0;stroke-linecap:square;stroke-linejoin:round;paint-order:stroke fill markers"
         aria-label="4" /><circle
         style="fill:#4d4d4d;fill-opacity:1;fill-rule:evenodd;stroke-width:0;stroke-linecap:square;stroke-linejoin:round;paint-order:stroke fill markers"
         id="circle364"
         cx="-161.28891"
         cy="-457.21136"
         r="5.8427525"
         transform="rotate(-90)" /><path
         d="m -457.92061,160.4858 q 1.39763,0.0521 2.03387,0.61537 0.63624,0.56323 0.63624,1.51237 0,0.42763 -0.13559,0.79268 -0.1356,0.36506 -0.42764,0.62581 -0.28161,0.26075 -0.73011,0.40677 -0.43806,0.14603 -1.04301,0.14603 -0.25032,0 -0.50064,-0.0417 -0.23989,-0.0313 -0.45892,-0.0834 -0.21904,-0.0522 -0.38592,-0.1043 -0.16688,-0.0626 -0.23989,-0.1043 l 0.16688,-0.74054 q 0.16688,0.0834 0.51108,0.19818 0.35462,0.11473 0.88655,0.11473 0.41721,0 0.69882,-0.0939 0.28161,-0.0939 0.4485,-0.25033 0.17731,-0.16688 0.25032,-0.37548 0.0834,-0.2086 0.0834,-0.43806 0,-0.35463 -0.12516,-0.62581 -0.11473,-0.28161 -0.41721,-0.46935 -0.29204,-0.18775 -0.81354,-0.28162 -0.51108,-0.1043 -1.29334,-0.1043 0.0626,-0.45892 0.0939,-0.85527 0.0417,-0.40677 0.0626,-0.78225 0.0313,-0.38592 0.0417,-0.7614 0.0209,-0.37548 0.0417,-0.79269 h 3.10817 v 0.73011 h -2.35721 q -0.0104,0.14602 -0.0313,0.38591 -0.0104,0.22946 -0.0313,0.49022 -0.0209,0.26075 -0.0417,0.50064 -0.0209,0.23989 -0.0313,0.38592 z"
         id="text364"
         style="font-size:10.4301px;font-family:'Ubuntu Mono';-inkscape-font-specification:'Ubuntu Mono';text-align:center;letter-spacing:0px;text-anchor:middle;fill:#ffffff;fill-rule:evenodd;stroke-width:0;stroke-linecap:square;stroke-linejoin:round;paint-order:stroke fill markers"
         aria-label="5" /></g></g></svg>
