<?xml version="1.0" encoding="UTF-8" standalone="no"?>
<!-- Created with Inkscape (http://www.inkscape.org/) -->

<svg
   width="1024mm"
   height="512.00006mm"
   viewBox="0 0 1024 512.00008"
   version="1.1"
   id="svg1"
   xml:space="preserve"
   inkscape:version="1.4.2 (ebf0e940, 2025-05-08)"
   sodipodi:docname="cteno.svg"
   xmlns:inkscape="http://www.inkscape.org/namespaces/inkscape"
   xmlns:sodipodi="http://sodipodi.sourceforge.net/DTD/sodipodi-0.dtd"
   xmlns="http://www.w3.org/2000/svg"
   xmlns:svg="http://www.w3.org/2000/svg"><sodipodi:namedview
     id="namedview1"
     pagecolor="#808080"
     bordercolor="#000000"
     borderopacity="0.25"
     inkscape:showpageshadow="2"
     inkscape:pageopacity="0.0"
     inkscape:pagecheckerboard="0"
     inkscape:deskcolor="#d1d1d1"
     inkscape:document-units="mm"
     inkscape:zoom="0.1767767"
     inkscape:cx="3314.9166"
     inkscape:cy="4038.9939"
     inkscape:window-width="2384"
     inkscape:window-height="1371"
     inkscape:window-x="1371"
     inkscape:window-y="25"
     inkscape:window-maximized="0"
     inkscape:current-layer="layer1"
     showguides="true"
     showgrid="false" /><defs
     id="defs1"><rect
       x="3179.1521"
       y="-2234.4574"
       width="1521.6938"
       height="848.52814"
       id="rect6" /><rect
       x="2168"
       y="-2848"
       width="8056"
       height="5648"
       id="rect5" /><rect
       x="48"
       y="-4216"
       width="11360"
       height="3880"
       id="rect3" /></defs><g
     inkscape:label="Layer 1"
     inkscape:groupmode="layer"
     id="layer1"
     transform="translate(2030.8516,569.1521)"><g
       id="g13"
       transform="translate(-222.91145,284.498)" /><g
       id="g31"
       transform="translate(-73.547309,-83.266593)"><g
         id="g32"
         transform="translate(73.547009,83.266753)" /></g><rect
       style="fill:#d9e2fd;fill-opacity:1;fill-rule:evenodd;stroke-width:5.03456;stroke-linecap:square;stroke-linejoin:round;paint-order:stroke fill markers"
       id="rect1"
       width="1024"
       height="512"
       x="-2030.8516"
       y="-569.1521"
       inkscape:export-filename="cteno_light.svg"
       inkscape:export-xdpi="96"
       inkscape:export-ydpi="96" /><rect
       style="fill:#11438d;fill-opacity:1;fill-rule:evenodd;stroke-width:3.55997;stroke-linecap:square;stroke-linejoin:round;paint-order:stroke fill markers"
       id="rect2"
       width="512"
       height="512"
       x="-1774.8516"
       y="-569.1521"
       inkscape:export-filename="cteno_light.svg"
       inkscape:export-xdpi="96"
       inkscape:export-ydpi="96" /><rect
       style="fill:none;fill-opacity:1;fill-rule:evenodd;stroke-width:3.55997;stroke-linecap:square;stroke-linejoin:round;paint-order:stroke fill markers"
       id="rect75"
       width="512"
       height="512"
       x="-2030.8516"
       y="-569.1521"
       inkscape:export-filename="cteno_light.svg"
       inkscape:export-xdpi="96"
       inkscape:export-ydpi="96" /><g
       id="g74"
       transform="translate(56.613578,122.03745)"
       style="fill:#ffffff;opacity:1"><path
         d="m -1831.3886,-691.18888 c -9.4187,-0.0214 -18.8339,0.54957 -24.2859,1.71824 -26.0854,5.59128 -47.0836,17.08614 -66.2683,36.27789 -23.691,23.69936 -36.277,52.47942 -48.4193,110.72038 -5.2579,25.21974 -7.1527,42.46471 -5.7593,52.42574 2.098,14.99739 7.6037,26.67611 17.124,36.32956 6.9418,7.03892 12.1687,10.4393 22.563,14.67818 l 7.138,2.91093 0.2781,6.81716 c 0.58,14.20561 -6.7841,31.59775 -18.2062,43.00151 -7.0024,6.99118 -10.616,9.49236 -32.0988,22.21776 -14.9224,8.8392 -21.3256,13.52052 -29.4721,21.54132 -21.9597,21.6215 -27.9037,47.18203 -16.1106,69.30792 3.1546,5.91882 9.9496,12.65555 13.7175,13.60123 5.2526,1.31833 9.8946,-4.05404 7.8166,-9.04596 -0.5548,-1.33213 -2.5276,-3.90439 -4.3858,-5.71644 -5.9408,-5.79337 -7.38,-9.66232 -7.3836,-19.83083 0,-10.71436 1.7263,-16.58404 7.5086,-25.48424 8.0295,-12.35817 18.3505,-20.82775 41.997,-34.46094 7.0084,-4.04057 15.7829,-9.63097 19.5026,-12.42302 19.6306,-14.73505 30.899,-34.52228 32.9324,-57.83058 0.3667,-4.20641 0.9214,-8.11013 1.3844,-8.09098 22.9304,0.94812 39.3051,1.62511 52.8738,2.03606 v -5.2e-4 c 5.5376,0.16792 10.609,0.29097 15.4667,0.37052 v 0 c 0,0 0,5.2e-4 0,5.2e-4 12.1169,0.1981 22.9121,0.12295 36.3409,-0.22066 0.8735,-0.0224 1.7579,-0.0462 2.6547,-0.0708 13.6171,-0.37377 30.0541,-1.00859 53.1213,-1.89962 0.5426,-0.0214 1.1271,4.77938 1.7089,9.71568 3.4768,29.48898 18.5962,49.34842 52.0697,68.39169 10.3797,5.90513 22.3453,13.76587 27.5234,18.08262 11.9564,9.96749 20.6691,23.90807 22.5495,36.07945 1.697,10.98459 -0.6511,18.73843 -8.0837,26.68468 -2.5892,2.76818 -4.2323,5.40647 -4.2323,6.797 0,3.09813 3.444,7.24658 6.0172,7.24658 3.7029,0 10.7774,-5.32667 14.2167,-10.70322 13.7148,-21.43959 8.3872,-48.99305 -13.8576,-71.65144 -9.029,-9.19654 -16.177,-14.28107 -38.2338,-27.19885 -20.9834,-12.28922 -29.9676,-20.88803 -36.3208,-34.76998 -4.9612,-10.83982 -7.833,-26.37848 -5.8363,-31.58101 0.3032,-0.79382 3.2761,-2.34993 6.6016,-3.45664 7.5062,-2.49788 18.4522,-9.58024 23.7515,-15.36754 13.2818,-14.50431 18.5955,-32.44589 16.2575,-54.90672 -2.8361,-27.24827 -14.098,-74.07044 -23.2798,-96.79461 -7.9952,-19.78868 -19.7914,-37.52109 -33.7431,-50.72766 -8.3267,-7.88192 -21.4161,-17.22057 -30.7237,-21.91907 -7.2911,-3.68047 -22.482,-8.87264 -32.1211,-10.97814 -5.4581,-1.19219 -14.877,-1.80281 -24.2956,-1.82315 z m -0.3907,14.37897 c 0,0 0.01,0 0.01,0 0.6636,1.1e-4 1.3135,0.0545 1.9446,0.16433 0.6311,0.10988 1.248,0.2756 1.8469,0.4961 1.1994,0.44121 2.3363,1.1055 3.4086,1.99264 0.5358,0.44339 1.0548,0.94299 1.5596,1.49862 0.5048,0.5559 0.9944,1.16721 1.4681,1.83606 0.4741,0.66888 0.9333,1.39476 1.3767,2.17713 0.058,0.10219 0.1075,0.2359 0.1648,0.34003 0.455,0.82665 0.8842,1.74824 1.3064,2.69751 0.7478,1.67851 1.4625,3.48266 2.1089,5.54798 0.04,0.12678 0.065,0.311 0.1039,0.43925 0.7897,2.57944 1.4535,5.6593 2.0924,8.83409 1.023,5.08378 1.92,10.67638 2.5673,17.30953 1.6838,17.25766 1.9313,75.05749 0.4387,102.49504 -1.972,36.26419 -7.0835,58.00802 -15.443,65.67661 -0.805,0.73818 -1.761,1.40129 -2.6691,1.89704 -0.1001,0.0548 -0.1887,0.0865 -0.2873,0.13694 -0.3528,0.17983 -0.7018,0.35104 -1.0185,0.46509 -0.047,0.0169 -0.09,0.0302 -0.1354,0.0455 -0.1386,0.0463 -0.2726,0.0871 -0.3995,0.11782 -0.1225,0.03 -0.2417,0.0569 -0.3514,0.0713 -0.01,0.001 -0.02,0.005 -0.029,0.006 -0.062,0.008 -0.1226,0.0121 -0.1794,0.0134 -0.021,7.6e-4 -0.042,10e-4 -0.062,10e-4 -1.3712,0 -2.7426,-0.69162 -4.0891,-1.95596 -0.207,-0.1947 -0.4125,-0.4144 -0.6181,-0.63717 -0.1881,-0.20346 -0.3764,-0.39819 -0.5633,-0.62476 -0.06,-0.0732 -0.1192,-0.16213 -0.1793,-0.23772 -0.6555,-0.82254 -1.3029,-1.77468 -1.9378,-2.87114 -0.016,-0.0284 -0.033,-0.052 -0.05,-0.0806 -0.2597,-0.45184 -0.5056,-1.02865 -0.7612,-1.52446 -0.4908,-0.95362 -0.9788,-1.92646 -1.4515,-3.03651 -0.1708,-0.4004 -0.3291,-0.85734 -0.4972,-1.27744 -1.0452,-2.61482 -1.9735,-5.87728 -2.8949,-9.20305 -0.436,-1.57168 -0.8967,-2.94192 -1.2991,-4.65812 -1.0382,-4.42859 -1.9516,-9.29613 -2.7198,-14.57533 -0.069,-0.47733 -0.1789,-0.83626 -0.2459,-1.31982 -3.4518,-24.91462 -4.3916,-105.83201 -1.5245,-131.19819 2.9749,-26.3167 9.1084,-40.18019 18.1338,-41.01765 0.2899,-0.0269 0.5826,-0.0408 0.8785,-0.0408 z m -31.5754,3.31453 c 0.036,3.9e-4 0.036,0.003 0.061,0.004 0.1499,0.007 0.2747,0.0322 0.3721,0.0682 2.871,1.0817 2.2707,3.22264 -3.3073,11.85767 -5.9714,9.24399 -11.9295,22.86925 -15.2218,34.80305 -3.7714,13.66982 -5.8755,30.05735 -8.2367,64.16145 -2.3306,33.66514 -3.8497,46.11787 -6.9112,56.63221 -5.4364,18.67373 -17.171,34.65133 -30.4581,41.47292 -0.2033,0.10523 -0.4048,0.20762 -0.601,0.30644 -2.753,1.45574 -5.6545,3.27073 -6.9427,4.17339 -2.8768,2.01503 -5.3664,1.95393 -8.9302,-0.21911 -6.442,-3.92844 -13.4351,-14.54562 -15.9551,-24.22023 -1.8404,-7.06685 -1.8433,-20.09356 0,-31.58825 2.1044,-13.16779 10.471,-49.48342 14.7076,-63.8328 14.0815,-47.69577 42.824,-72.47909 57.6714,-82.55206 0.075,0.0528 0.1678,0.0853 0.2677,0.0853 0.2568,0 0.4718,-0.21265 0.4718,-0.47232 v -0.10129 c 2.4162,-1.61086 4.4268,-2.81063 5.8958,-3.6375 0.1747,-0.0998 0.3498,-0.19796 0.525,-0.29456 0.7993,-0.44064 1.5522,-0.70715 2.3652,-1.12396 2.6037,-1.33505 5.2811,-2.6887 7.582,-3.60805 0.017,-0.007 0.028,-0.009 0.045,-0.016 0.762,-0.3037 1.3488,-0.4777 2.0272,-0.71623 0.6499,-0.22861 1.3953,-0.52699 1.9462,-0.6873 0.02,-0.006 0.033,-0.007 0.052,-0.0129 0.2967,-0.0855 0.5348,-0.13401 0.7973,-0.1974 0.2418,-0.0585 0.5119,-0.13536 0.722,-0.17415 0.1083,-0.0199 0.2035,-0.0316 0.3028,-0.046 0.098,-0.0144 0.2009,-0.0319 0.2899,-0.0408 0.078,-0.008 0.1415,-0.007 0.2119,-0.0103 0.081,-0.004 0.1725,-0.0142 0.2439,-0.0124 z m 64.1248,0.41134 h 0.01 v 0 c 0.01,-1e-4 0.02,0.002 0.029,0.002 3.4078,-0.0174 13.599,4.20439 19.7394,8.35298 0.01,0.006 0.017,0.0113 0.025,0.017 6.119,3.18675 27.3755,21.94277 33.491,29.54342 16.0147,19.90362 25.8455,42.41251 36.9269,92.69667 10.0311,45.51674 9.0595,62.2228 -4.4555,76.67129 -4.3016,4.59882 -8.3205,7.3334 -10.7756,7.3334 -0.6889,0 -2.2315,-0.68569 -3.4287,-1.52446 -1.0563,-0.73966 -4.9765,-2.98754 -8.0616,-4.63486 -0.039,-0.0214 -0.082,-0.0447 -0.125,-0.0661 -1.4271,-0.76005 -2.8326,-1.65843 -4.2241,-2.62051 -0.3564,-0.24651 -0.7054,-0.51256 -1.0588,-0.77153 -0.8109,-0.59385 -1.5989,-1.245 -2.3921,-1.90169 -1.8943,-1.56853 -3.7502,-3.25075 -5.5149,-5.14026 -0.054,-0.0582 -0.1158,-0.10013 -0.17,-0.15865 -2.7501,-2.96596 -5.3157,-6.28943 -7.6192,-9.87019 -0.059,-0.0919 -0.1025,-0.19668 -0.1612,-0.28888 -1.4429,-2.26477 -2.7392,-4.65142 -3.9528,-7.0931 -0.3591,-0.72219 -0.7008,-1.43973 -1.0376,-2.17455 -1.1346,-2.4752 -2.177,-4.9947 -3.034,-7.58093 -0.042,-0.12684 -0.1075,-0.24503 -0.1488,-0.37207 -4.0094,-12.32849 -5.7269,-23.66465 -7.3019,-48.13763 -3.6326,-56.45299 -4.8512,-64.84459 -12.6705,-87.30785 -2.9306,-8.41935 -5.6217,-13.87351 -11.9331,-24.19956 -0.066,-0.10778 -0.058,-0.12005 -0.1235,-0.22737 -2.4059,-3.95265 -4.3893,-7.60003 -4.5517,-8.3814 -4e-4,-0.002 -0.014,-0.0241 -0.014,-0.0264 0,-0.025 0,-0.0447 0,-0.0625 0,-0.0696 -7e-4,-0.14511 0.036,-0.22324 0,-0.0194 0.011,-0.0387 0.021,-0.0584 0.01,-0.0186 0.014,-0.0374 0.022,-0.0563 10e-5,-0.002 0,-0.003 0,-0.005 0.05,-0.122 0.1248,-0.25011 0.2175,-0.37982 0.01,-0.009 0.015,-0.0183 0.022,-0.0274 0.01,-0.009 0.016,-0.0182 0.023,-0.0274 0.084,-0.11114 0.1822,-0.22254 0.2909,-0.33279 0.025,-0.0255 0.049,-0.0507 0.076,-0.076 0.019,-0.0186 0.036,-0.0378 0.056,-0.0563 0.1105,-0.10233 0.2355,-0.19844 0.3622,-0.29301 0.02,-0.0145 0.036,-0.0307 0.055,-0.045 0.1717,-0.12395 0.3534,-0.23999 0.5447,-0.34003 0.043,-0.0214 0.093,-0.0452 0.1462,-0.063 0.06,-0.0202 0.1268,-0.0357 0.1974,-0.0491 0.01,-9.8e-4 0.01,-0.002 0.015,-0.003 0.045,-0.008 0.095,-0.0141 0.1442,-0.0196 0.088,-0.0102 0.1815,-0.0172 0.2827,-0.0191 0.01,-1.5e-4 0.014,-10e-4 0.022,-0.002 z m -87.5988,9.7963 c 0.2248,0 0.4146,0.15944 0.461,0.37052 -0.2389,0.15903 -0.4816,0.32181 -0.7276,0.48886 v 0 c -0.1213,-0.0853 -0.2031,-0.22645 -0.2031,-0.38705 0,-0.25971 0.2138,-0.47233 0.4713,-0.47233 z m 56.1666,325.81991 c -0.079,0.004 -0.1602,0.0211 -0.2387,0.0475 -1.9731,0.6478 -5.0434,5.92644 -8.5633,14.72055 -9.6502,24.11117 -8.29,44.6527 4.4131,66.64813 6.7581,11.70109 8.0171,14.71698 9.3152,22.28598 2.169,12.64845 -2.6854,28.04022 -12.3088,39.02139 -3.9005,4.45099 -4.8849,6.24328 -4.8849,8.89299 0,6.41316 4.8906,8.56735 10.9502,4.82245 5.1945,-3.21036 10.7001,-10.28721 15.0073,-19.2903 4.9997,-10.45162 6.2811,-15.86358 6.2979,-26.58907 0,-11.91311 -2.0619,-19.37184 -9.5695,-34.28886 -3.6073,-7.16763 -7.4269,-15.6088 -8.4878,-18.75752 -2.3699,-7.03474 -2.5268,-17.08146 -0.4181,-26.72343 2.7262,-12.46587 1.7942,-30.70167 -1.4325,-30.78985 v 0 c -0.036,-7.2e-4 -0.05,-10e-4 -0.079,0 z"
         style="fill:#ffffff;fill-opacity:0.5;fill-rule:evenodd;stroke-width:1.59374;stroke-linecap:square;stroke-linejoin:round;paint-order:stroke fill markers"
         id="path74" /><path
         d="m -1831.7877,-676.80947 c -9.5067,0 -15.9418,13.89644 -19.0123,41.05848 -2.8671,25.36618 -1.9273,106.28357 1.5245,131.19819 3.4914,25.19862 10.4154,42.00209 17.3069,42.00209 1.1669,0 3.471,-1.2392 5.1227,-2.75384 8.3598,-7.66824 13.473,-29.41178 15.4451,-65.67661 1.4925,-27.43723 1.245,-85.2372 -0.4388,-102.49504 -2.8582,-29.28863 -9.3216,-43.33327 -19.9481,-43.33327 z"
         style="fill:#ffffff;fill-opacity:0.65;fill-rule:evenodd;stroke-width:1.68;stroke-linecap:square;stroke-linejoin:round;paint-order:stroke fill markers"
         id="path73" /><path
         d="m -1799.229,-673.0836 c -0.3496,0.004 -0.6256,0.0548 -0.8165,0.15503 -0.9478,0.49797 -1.7239,1.36227 -1.7239,1.92081 0,0.55855 2.1131,4.47252 4.6958,8.69766 6.3115,10.32605 9.002,15.78021 11.9326,24.19956 7.8194,22.46326 9.0379,30.85486 12.6706,87.30785 1.575,24.47298 3.294,35.80914 7.3034,48.13763 5.3672,16.50244 16.7959,31.30648 29.3124,37.97236 6.609,3.51976 8.7032,3.79552 9.524,1.25522 0.3496,-1.07796 -0.3674,-3.69593 -1.7441,-6.37119 -3.7097,-7.2114 -8.2403,-21.7433 -10.2655,-32.93184 -1.2753,-7.04648 -2.1819,-18.667 -2.8654,-36.73574 -1.9407,-51.3406 -4.0249,-67.70985 -11.0976,-87.1399 -5.9621,-16.38047 -16.1461,-30.6746 -27.1564,-38.11292 -6.1566,-4.15954 -16.3886,-8.39448 -19.7694,-8.35453 z"
         style="fill:#ffffff;fill-opacity:0.8;fill-rule:evenodd;stroke-width:1.60834;stroke-linecap:square;stroke-linejoin:round;paint-order:stroke fill markers"
         id="path72" /><path
         d="m -1863.3041,-673.49081 c -2.219,-0.12236 -9.867,2.90218 -16.6507,6.64197 -11.7356,6.46967 -22.4682,20.07848 -28.9708,36.73368 -8.25,21.13298 -11.2677,40.08396 -12.4789,78.36886 -1.4173,44.81253 -3.8714,60.27907 -12.6839,79.95998 -2.6599,5.94033 -3.1118,7.75044 -2.2025,8.82633 1.6296,1.92806 2.8849,1.71826 9.2217,-1.53531 13.287,-6.82159 25.0212,-22.7997 30.4575,-41.47343 3.0616,-10.51434 4.5822,-22.96707 6.9128,-56.63221 2.3612,-34.1041 4.4653,-50.49111 8.2367,-64.16094 3.2923,-11.9338 9.2524,-25.55957 15.2239,-34.80356 5.5779,-8.63503 6.1747,-10.77545 3.3036,-11.85716 -0.096,-0.0367 -0.221,-0.06 -0.3694,-0.0682 z"
         style="fill:#ffffff;fill-opacity:0.65;fill-rule:evenodd;stroke-width:1.60834;stroke-linecap:square;stroke-linejoin:round;paint-order:stroke fill markers"
         id="path71" /><path
         d="m -1895.4613,-431.84871 -0.036,10.72183 c -0.1,33.97991 -11.583,54.7478 -44.3637,80.22921 -23.1702,18.01098 -33.0839,30.28552 -39.2612,48.60943 -1.9121,5.67097 -2.2243,8.41235 -2.2029,19.34921 0.036,11.51177 0.2748,13.42419 2.6143,19.80292 4.3529,11.87062 11.529,21.2534 21.7402,28.42463 7.0752,4.96869 12.2709,6.07033 15.133,3.20807 4.2965,-4.29631 2.9846,-8.85531 -3.8933,-13.53147 -11.711,-7.96252 -19.1614,-19.15436 -21.1171,-31.71745 -0.783,-5.0283 -0.6679,-7.77068 0.5953,-14.0069 3.3512,-16.54628 12.5581,-28.8064 34.7829,-46.32327 13.6082,-10.72541 28.5085,-25.61797 34.5845,-34.56533 6.0049,-8.84241 12.0381,-22.17327 14.7422,-32.57837 1.9164,-7.37357 2.561,-12.57685 2.9513,-23.78305 l 0.4619,-13.1718 c -5.1245,-0.19728 -10.6672,-0.41991 -16.7317,-0.66766 z"
         style="fill:#ffffff;fill-opacity:0.3;fill-rule:evenodd;stroke-width:1.59374;stroke-linecap:square;stroke-linejoin:round;paint-order:stroke fill markers"
         id="path70" /><path
         d="m -1858.9509,-430.48807 0.2139,1.10226 c 0.3247,1.68716 0.8487,10.28838 1.1612,19.11356 0.6582,18.60277 -1.1214,32.02236 -6.3216,47.66531 -5.8694,17.65617 -11.1449,26.97963 -27.973,49.43729 -16.4906,22.00777 -21.9893,35.98845 -21.9893,55.9077 0,8.70399 0.4263,12.00303 2.327,18.01854 2.5168,7.96529 6.4247,14.88058 11.3595,20.10523 5.7092,6.04451 8.0228,10.31995 8.0228,14.82338 0,4.81291 -1.0107,7.13378 -4.8928,11.23963 -3.5467,3.75096 -3.895,8.4087 -0.8149,10.90269 2.7101,2.19469 3.9725,2.17515 8.4966,-0.13281 6.8095,-3.47381 11.6503,-12.66285 11.697,-22.20329 0.039,-7.92598 -1.4123,-11.11977 -10.4118,-22.91437 -9.5477,-12.51339 -10.1498,-14.29045 -10.1544,-29.94235 0,-12.17246 0.2002,-13.72481 2.5668,-19.69751 3.5224,-8.88529 7.8071,-15.68366 18.2335,-28.92847 14.6637,-18.62678 21.4022,-30.72696 27.7265,-49.7799 6.9821,-21.03531 9.5443,-41.92643 7.6336,-62.24943 -0.4887,-5.1974 -1.059,-10.03057 -1.4118,-12.09694 v 0 c -4.8577,-0.0795 -9.9291,-0.2026 -15.4667,-0.37052 z"
         style="fill:#ffffff;fill-opacity:0.3;fill-rule:evenodd;stroke-width:1.59374;stroke-linecap:square;stroke-linejoin:round;paint-order:stroke fill markers"
         id="path69" /><path
         d="m -1804.4865,-430.40849 c -5.4517,0.14983 -10.4516,0.25889 -15.2441,0.32453 l -0.1462,0.69866 c -1.5558,7.47361 -2.206,23.57088 -1.4051,34.86248 1.4534,20.50069 6.7331,39.95707 15.6626,57.73652 5.843,11.63385 10.0426,18.09826 19.9321,30.67565 14.3673,18.27272 19.022,27.53973 21.0251,41.85636 1.9774,14.13509 -1.5849,26.50456 -10.8066,37.52639 -7.1783,8.57921 -10.0273,14.84039 -10.0273,22.03742 0,9.73193 5.6029,19.83388 12.7238,22.93658 3.5535,1.54828 2.9531,1.55493 6.0803,-0.0625 2.4097,-1.24612 3.8014,-3.73124 3.8364,-6.85074 0,-0.63157 -1.9461,-3.35319 -4.3398,-6.04821 -4.2045,-4.73414 -4.3383,-5.06905 -3.9398,-9.87588 0.3425,-4.13414 1.1196,-5.86788 4.5889,-10.25726 7.759,-9.81641 12.027,-16.46277 14.0622,-21.90254 3.0105,-8.04613 4.1411,-19.42022 2.9254,-29.41836 -1.9774,-16.26321 -7.5314,-28.46725 -21.329,-46.85812 -5.0521,-6.73419 -11.2632,-15.2891 -13.8007,-19.01228 -8.3291,-12.2225 -16.1023,-31.59653 -19.329,-48.17948 -1.7894,-9.1943 -2.3291,-33.56064 -1.0067,-45.39052 z"
         style="fill:#ffffff;fill-opacity:0.3;fill-rule:evenodd;stroke-width:1.59374;stroke-linecap:square;stroke-linejoin:round;paint-order:stroke fill markers"
         id="path68" /><path
         d="m -1767.7053,-431.6787 c -5.9779,0.22796 -11.4469,0.43231 -16.5101,0.61392 -1.2422,5.23992 0.511,24.43808 3.4969,36.42 6.5886,26.42858 19.5,45.03729 44.7838,64.54283 26.8514,20.71492 36.3629,33.61589 39.1155,53.05361 2.2863,16.1446 -5.1433,31.79557 -19.6479,41.3923 -5.9304,3.92388 -8.2884,7.4396 -7.2285,10.77868 1.9424,6.12059 8.138,6.48285 16.4129,0.95704 11.517,-7.6906 20.7345,-20.78436 24.1831,-34.34984 3.2174,-12.65773 1.0345,-30.85979 -5.2395,-43.68725 -6.5137,-13.31798 -15.5803,-23.32167 -35.3322,-38.98057 -11.2048,-8.88301 -24.6261,-22.25049 -29.5791,-29.46125 -9.4632,-13.77717 -13.4312,-27.44382 -14.0658,-48.44149 z"
         style="fill:#ffffff;fill-opacity:0.3;fill-rule:evenodd;stroke-width:1.59374;stroke-linecap:square;stroke-linejoin:round;paint-order:stroke fill markers"
         id="path67" /></g><rect
       style="fill:none;fill-opacity:1;fill-rule:evenodd;stroke-width:3.55997;stroke-linecap:square;stroke-linejoin:round;paint-order:stroke fill markers"
       id="rect76"
       width="512"
       height="512"
       x="-1518.8516"
       y="-569.1521"
       inkscape:export-filename="cteno_dark.svg"
       inkscape:export-xdpi="96"
       inkscape:export-ydpi="96" /><g
       id="g15"><path
         d="m -1262.7749,-569.15147 c -9.4186,-0.0214 -18.8344,0.54957 -24.2864,1.71824 -26.0854,5.59127 -47.0831,17.08614 -66.2678,36.27789 -23.691,23.69936 -36.2775,52.47942 -48.4198,110.72038 -5.2579,25.21974 -7.1522,42.4647 -5.7588,52.42574 2.098,14.99739 7.6038,26.67611 17.124,36.32956 6.9418,7.03892 12.1682,10.4393 22.5625,14.67818 l 7.138,2.91093 0.2786,6.81715 c 0.58,14.20562 -6.7846,31.59776 -18.2067,43.00151 -7.0024,6.99119 -10.616,9.49237 -32.0988,22.21777 -14.9223,8.8392 -21.3256,13.52052 -29.4721,21.54132 -21.9597,21.6215 -27.9037,47.18202 -16.1106,69.30791 3.1546,5.91883 9.9501,12.65556 13.718,13.60124 5.2526,1.31833 9.8946,-4.05404 7.8166,-9.04596 -0.5547,-1.33213 -2.5275,-3.90439 -4.3858,-5.71645 -5.9408,-5.79336 -7.38,-9.66231 -7.3835,-19.83083 0,-10.71435 1.7262,-16.58403 7.5086,-25.48423 8.0294,-12.35817 18.3499,-20.82724 41.9964,-34.46043 7.0085,-4.04056 15.7829,-9.63148 19.5027,-12.42353 19.6306,-14.73505 30.8989,-34.52228 32.9323,-57.83058 0.3667,-4.20641 0.9214,-8.11013 1.3844,-8.09098 22.9303,0.94812 39.305,1.62504 52.8738,2.03606 v -5.2e-4 c 5.5376,0.16792 10.6096,0.29097 15.4673,0.37052 v 0 c 10e-5,2.6e-4 0,7.7e-4 0,10e-4 12.8926,0.21087 24.2938,0.11111 38.9584,-0.29094 0.013,-3.6e-4 0.024,-6.6e-4 0.037,-10e-4 v 5.2e-4 c 6.0816,-0.16691 12.7257,-0.38564 20.2716,-0.65629 0,0 0,-5.2e-4 0,-5.2e-4 2.9739,-0.10667 6.0879,-0.22111 9.3627,-0.34365 7.0215,-0.26304 14.7823,-0.56291 23.4875,-0.89917 0.5426,-0.0214 1.1271,4.77887 1.7089,9.71517 3.4768,29.48897 18.5962,49.34842 52.0697,68.39169 10.3797,5.90513 22.3453,13.76638 27.5234,18.08314 11.9565,9.96749 20.6692,23.90755 22.5495,36.07893 1.697,10.98459 -0.6511,18.73843 -8.0837,26.68468 -2.5892,2.76818 -4.2328,5.40647 -4.2328,6.797 0,3.09813 3.444,7.24658 6.0172,7.24658 3.7029,0 10.7779,-5.32667 14.2172,-10.70322 13.7148,-21.43959 8.3872,-48.99305 -13.8576,-71.65144 -9.029,-9.19654 -16.1775,-14.28107 -38.2343,-27.19886 -20.9834,-12.28921 -29.9676,-20.88802 -36.3208,-34.76997 -4.9612,-10.83982 -7.833,-26.37848 -5.8363,-31.58101 0.3032,-0.79382 3.2761,-2.34993 6.6016,-3.45664 7.5062,-2.49788 18.4522,-9.58024 23.7516,-15.36754 13.2817,-14.50431 18.5959,-32.44589 16.2579,-54.90672 -2.8361,-27.24827 -14.098,-74.07044 -23.2797,-96.79461 -7.9953,-19.78868 -19.7915,-37.52109 -33.7432,-50.72766 -8.3266,-7.88192 -21.416,-17.22058 -30.7237,-21.91907 -7.291,-3.68047 -22.482,-8.87264 -32.121,-10.97814 -5.4581,-1.19219 -14.8771,-1.80281 -24.2957,-1.82315 z m -0.385,14.37897 -5e-4,5.2e-4 v 0 c 0.6636,10e-5 1.3136,0.0539 1.9446,0.16381 0.6311,0.10988 1.2485,0.27559 1.8475,0.49609 1.1993,0.44122 2.3362,1.10551 3.4085,1.99265 0.5359,0.44339 1.0548,0.94299 1.5596,1.49861 0.5048,0.55591 0.9939,1.16722 1.4676,1.83607 0.4742,0.66888 0.9338,1.39528 1.3772,2.17764 0.059,0.10483 0.1102,0.24195 0.169,0.34882 0.4526,0.82306 0.8804,1.74008 1.3007,2.68459 0.7484,1.67934 1.4635,3.48471 2.1105,5.5516 0.042,0.13424 0.068,0.3292 0.11,0.46509 0.7867,2.57293 1.4488,5.64169 2.0857,8.80618 1.0233,5.08455 1.9205,10.67781 2.5678,17.31212 1.6838,17.25765 1.9313,75.05697 0.4387,102.49452 -1.972,36.26419 -7.084,58.00801 -15.4435,65.67661 -0.8044,0.73759 -1.7596,1.40036 -2.667,1.89601 -0.1041,0.057 -0.1962,0.0904 -0.2987,0.14262 -0.3494,0.17767 -0.6953,0.34742 -1.0092,0.46044 -0.047,0.0169 -0.09,0.0302 -0.1354,0.0455 -0.1386,0.0463 -0.2726,0.0871 -0.3995,0.11782 -0.1225,0.03 -0.2417,0.0569 -0.3514,0.0713 -0.01,10e-4 -0.02,0.005 -0.029,0.006 -0.062,0.008 -0.1226,0.0121 -0.1793,0.0134 -0.021,7.6e-4 -0.042,0.001 -0.063,0.001 -1.3712,0 -2.7426,-0.69162 -4.0891,-1.95596 -0.207,-0.1947 -0.4125,-0.41441 -0.6181,-0.63717 -0.1881,-0.20346 -0.3764,-0.39819 -0.5633,-0.62477 -0.06,-0.0733 -0.1196,-0.16205 -0.1798,-0.23771 -0.6542,-0.82098 -1.2999,-1.77161 -1.9337,-2.86546 -0.018,-0.0313 -0.037,-0.0573 -0.055,-0.0889 -0.2581,-0.44899 -0.5027,-1.02224 -0.7565,-1.51463 -0.4921,-0.95544 -0.9809,-1.93116 -1.4547,-3.04375 -0.1707,-0.4004 -0.3291,-0.85734 -0.4972,-1.27744 -1.0455,-2.6155 -1.9737,-5.87879 -2.8954,-9.20564 -0.4357,-1.57042 -0.896,-2.93929 -1.2981,-4.65398 -1.0391,-4.43256 -1.9537,-9.30403 -2.7223,-14.58877 -0.069,-0.47309 -0.1775,-0.82871 -0.2439,-1.30793 -3.4518,-24.91462 -4.3916,-105.83201 -1.5245,-131.19819 3.0044,-26.57742 9.2299,-40.45383 18.4025,-41.03884 0.2038,-0.0132 0.4093,-0.0196 0.616,-0.0196 z m -31.5872,3.31504 h 0.01 c 0.035,3.8e-4 0.036,0.003 0.059,0.004 7e-4,3e-5 8e-4,-3e-5 0,0 0.1499,0.007 0.2747,0.0317 0.3721,0.0677 2.871,1.0817 2.2712,3.22263 -3.3068,11.85767 -5.9714,9.24399 -11.93,22.86976 -15.2223,34.80356 -3.7714,13.66983 -5.8754,30.05684 -8.2367,64.16094 -2.3306,33.66514 -3.8497,46.11787 -6.9112,56.6322 -5.4363,18.67373 -17.171,34.65133 -30.4581,41.47293 -0.2033,0.10523 -0.4048,0.20762 -0.601,0.30644 -2.7529,1.45574 -5.6545,3.27073 -6.9427,4.17338 -2.8768,2.01504 -5.3659,1.95393 -8.9297,-0.2191 -6.442,-3.92844 -13.4356,-14.54562 -15.9556,-24.22023 -1.8404,-7.06685 -1.8433,-20.09357 0,-31.58825 2.1044,-13.16779 10.471,-49.48342 14.7076,-63.8328 14.0815,-47.69577 42.8245,-72.47909 57.6719,-82.55207 0.075,0.0528 0.1678,0.0853 0.2677,0.0853 0.2569,0 0.4718,-0.21214 0.4718,-0.47181 v -0.1018 c -0.239,0.15911 -0.4819,0.32173 -0.7281,0.48886 v 0 c -0.1213,-0.0853 -0.203,-0.22645 -0.203,-0.38706 0,-0.2597 0.2142,-0.47232 0.4718,-0.47232 0.2247,0 0.414,0.15944 0.4604,0.37052 2.4172,-1.61156 4.4287,-2.81164 5.8978,-3.63854 0.1743,-0.0995 0.3488,-0.19719 0.5235,-0.29352 0.7996,-0.44082 1.5529,-0.70751 2.3663,-1.12448 2.6035,-1.33484 5.2808,-2.6883 7.5814,-3.60753 0.017,-0.007 0.029,-0.009 0.045,-0.016 0.7493,-0.29864 1.3249,-0.46865 1.9937,-0.70435 0.6624,-0.23364 1.4188,-0.53612 1.9792,-0.69918 0.02,-0.006 0.034,-0.008 0.054,-0.0134 0.2892,-0.0833 0.5205,-0.12992 0.7772,-0.19223 0.2493,-0.0606 0.5262,-0.13898 0.7421,-0.1788 0.1058,-0.0194 0.1984,-0.0313 0.2956,-0.0455 0.1005,-0.0148 0.2056,-0.0323 0.2966,-0.0413 0.077,-0.008 0.14,-0.007 0.2098,-0.0103 0.082,-0.004 0.1733,-0.0142 0.245,-0.0124 z m 64.1304,0.41083 h 0.01 v 0 c 0.01,-10e-5 0.02,0.002 0.029,0.002 3.4078,-0.0174 13.5985,4.20491 19.7389,8.3535 0.01,0.005 0.016,0.0106 0.024,0.016 6.1161,3.18333 27.3763,21.94287 33.4926,29.54445 16.0147,19.90362 25.8455,42.41199 36.9269,92.69615 10.0311,45.51673 9.0595,62.2228 -4.4555,76.67129 -4.3016,4.59882 -8.32,7.3334 -10.7751,7.3334 -0.6888,0 -2.232,-0.68569 -3.4292,-1.52446 -1.0563,-0.73966 -4.9765,-2.98754 -8.0616,-4.63486 -0.039,-0.0214 -0.082,-0.0447 -0.1245,-0.0661 -1.4261,-0.7595 -2.8304,-1.6572 -4.2209,-2.61845 -0.3596,-0.24862 -0.7116,-0.51693 -1.0682,-0.77824 -0.8077,-0.59173 -1.5926,-1.24038 -2.3828,-1.89446 -1.899,-1.57221 -3.7601,-3.25791 -5.5288,-5.15266 -0.051,-0.0546 -0.1084,-0.094 -0.1592,-0.14883 -2.7501,-2.96596 -5.3157,-6.28943 -7.6192,-9.8702 -0.055,-0.086 -0.096,-0.18402 -0.1509,-0.27026 -1.4486,-2.2723 -2.749,-4.66792 -3.9667,-7.11843 -0.3569,-0.71799 -0.697,-1.43116 -1.0319,-2.16163 -1.1358,-2.47728 -2.1789,-4.99913 -3.0365,-7.58765 -0.042,-0.12668 -0.1076,-0.24466 -0.1489,-0.37155 -4.0094,-12.32849 -5.7268,-23.66465 -7.3018,-48.13763 -3.6327,-56.45299 -4.8512,-64.84459 -12.6706,-87.30785 -2.9306,-8.41935 -5.6212,-13.87351 -11.9326,-24.19956 -0.062,-0.10113 -0.054,-0.11269 -0.1158,-0.21342 -2.4117,-3.96123 -4.4,-7.61771 -4.5604,-8.3969 -4e-4,-0.002 -0.013,-0.0227 -0.013,-0.0248 0,-0.025 0,-0.0447 0,-0.0625 0,-0.0696 -8e-4,-0.14511 0.036,-0.22324 0,-0.0184 0.01,-0.0371 0.02,-0.0558 0.01,-0.02 0.015,-0.0401 0.023,-0.0605 10e-5,-0.001 0,-0.002 0,-0.004 0.05,-0.122 0.1248,-0.24959 0.2176,-0.3793 0.01,-0.008 0.013,-0.0159 0.019,-0.0238 0.053,-0.0717 0.1106,-0.14407 0.1741,-0.216 0,-10e-4 0,-0.002 0,-0.003 0.035,-0.0395 0.075,-0.0781 0.1127,-0.11731 0.035,-0.0359 0.069,-0.0715 0.1059,-0.10697 0.018,-0.0174 0.033,-0.0354 0.052,-0.0527 0.1039,-0.0962 0.2222,-0.18639 0.3406,-0.27595 0.028,-0.0212 0.051,-0.0444 0.08,-0.0651 0.1707,-0.12316 0.3515,-0.23807 0.5415,-0.33745 0.01,-0.003 0.011,-0.005 0.017,-0.008 0.01,-0.003 0.012,-0.006 0.018,-0.009 0.034,-0.0164 0.072,-0.0328 0.1117,-0.046 0.014,-0.005 0.029,-0.008 0.043,-0.0119 0,-3.5e-4 0,-6.8e-4 0,-10e-4 0.051,-0.0153 0.107,-0.0281 0.1659,-0.0388 0.01,-0.002 0.019,-0.004 0.029,-0.006 0.034,-0.006 0.072,-0.009 0.1085,-0.0134 0.091,-0.0108 0.1878,-0.0183 0.293,-0.0202 0.01,-1.1e-4 0.012,-9.5e-4 0.018,-10e-4 z m -31.4322,335.61621 c -0.078,0.004 -0.1604,0.0217 -0.2387,0.0481 -1.9731,0.6478 -5.0429,5.92592 -8.5628,14.72003 -9.6501,24.11117 -8.2899,44.6527 4.4132,66.64813 6.758,11.70109 8.017,14.71698 9.3152,22.28597 2.1689,12.648462 -2.686,28.040232 -12.3094,39.021397 -3.9005,4.450992 -4.8849,6.243286 -4.8849,8.892997 0,6.413161 4.8906,8.567344 10.9502,4.822445 5.1945,-3.210362 10.7006,-10.287213 15.0079,-19.290297 4.9997,-10.45162 6.2805,-15.86307 6.2973,-26.588562 0,-11.9131 -2.0619,-19.37235 -9.5695,-34.28938 -3.6073,-7.16762 -7.4264,-15.60879 -8.4873,-18.75751 -2.3698,-7.03474 -2.5273,-17.08147 -0.4186,-26.72343 2.7262,-12.46587 1.7942,-30.70167 -1.4325,-30.78985 v 0 c -0.036,-7.1e-4 -0.05,-10e-4 -0.078,0 z"
         style="fill:#000000;fill-opacity:0.2;fill-rule:evenodd;stroke-width:1.59374;stroke-linecap:square;stroke-linejoin:round;paint-order:stroke fill markers"
         id="path66" /><path
         d="m -1263.1661,-554.77198 c -9.5067,0 -15.9418,13.89592 -19.0123,41.05796 -2.8671,25.36618 -1.9273,106.28357 1.5245,131.19819 3.4914,25.19862 10.4155,42.00209 17.3069,42.00209 1.1669,0 3.4715,-1.2392 5.1232,-2.75384 8.3598,-7.66824 13.473,-29.41178 15.4451,-65.67661 1.4926,-27.43723 1.2451,-85.23669 -0.4388,-102.49452 -2.8581,-29.28863 -9.3221,-43.33327 -19.9486,-43.33327 z"
         style="fill:#000000;fill-opacity:0.3;fill-rule:evenodd;stroke-width:1.68;stroke-linecap:square;stroke-linejoin:round;paint-order:stroke fill markers"
         id="path65" /><path
         d="m -1230.6069,-551.04663 c -0.3496,0.004 -0.6261,0.0548 -0.817,0.15503 -0.9478,0.49797 -1.7239,1.36227 -1.7239,1.92081 0,0.55855 2.1131,4.47252 4.6959,8.69766 6.3114,10.32605 9.0025,15.78021 11.9331,24.19956 7.8193,22.46326 9.0379,30.85486 12.6705,87.30785 1.575,24.47298 3.2935,35.80914 7.3029,48.13763 5.3672,16.50244 16.7959,31.30648 29.3125,37.97236 6.6089,3.51976 8.7031,3.79552 9.5239,1.25522 0.3496,-1.07796 -0.3674,-3.69542 -1.7441,-6.37067 -3.7097,-7.2114 -8.2403,-21.74382 -10.2655,-32.93236 -1.2753,-7.04648 -2.1819,-18.667 -2.8654,-36.73574 -1.9407,-51.3406 -4.0243,-67.70985 -11.097,-87.1399 -5.9622,-16.38047 -16.1467,-30.67408 -27.157,-38.1124 -6.1566,-4.15954 -16.388,-8.395 -19.7689,-8.35505 z"
         style="fill:#000000;fill-opacity:0.45;fill-rule:evenodd;stroke-width:1.60834;stroke-linecap:square;stroke-linejoin:round;paint-order:stroke fill markers"
         id="path64" /><path
         d="m -1294.682,-551.45384 c -2.2189,-0.12236 -9.8675,2.90217 -16.6512,6.64197 -11.7356,6.46967 -22.4682,20.07848 -28.9708,36.73368 -8.25,21.13298 -11.2677,40.08396 -12.4789,78.36886 -1.4173,44.81253 -3.8714,60.27906 -12.6839,79.95997 -2.6599,5.94034 -3.1118,7.75045 -2.2025,8.82634 1.6296,1.92806 2.8849,1.71825 9.2217,-1.53531 13.2871,-6.82159 25.0212,-22.79971 30.4575,-41.47344 3.0616,-10.51433 4.5827,-22.96706 6.9133,-56.6322 2.3613,-34.1041 4.4653,-50.49111 8.2367,-64.16094 3.2924,-11.9338 9.2519,-25.55957 15.2234,-34.80356 5.5779,-8.63504 6.1752,-10.77545 3.3042,-11.85716 -0.096,-0.0367 -0.2211,-0.06 -0.3695,-0.0682 z"
         style="fill:#000000;fill-opacity:0.3;fill-rule:evenodd;stroke-width:1.60834;stroke-linecap:square;stroke-linejoin:round;paint-order:stroke fill markers"
         id="path63" /><path
         d="m -1326.8397,-309.81123 -0.036,10.72183 c -0.1,33.97992 -11.583,54.74729 -44.3637,80.2287 -23.1702,18.01098 -33.0839,30.28552 -39.2612,48.60943 -1.9121,5.67097 -2.2238,8.41235 -2.2024,19.34921 0.036,11.51177 0.2743,13.42419 2.6138,19.80292 4.3529,11.87062 11.529,21.25391 21.7403,28.42514 7.0751,4.968692 12.2713,6.069812 15.1334,3.207562 4.2966,-4.296312 2.9846,-8.855312 -3.8933,-13.531482 -11.711,-7.96251 -19.1614,-19.15436 -21.1171,-31.71744 -0.783,-5.0283 -0.6679,-7.77068 0.5953,-14.0069 3.3513,-16.54628 12.5581,-28.8064 34.7829,-46.32327 13.6082,-10.72541 28.508,-25.61797 34.584,-34.56533 6.005,-8.84241 12.0381,-22.17327 14.7422,-32.57837 1.9164,-7.37357 2.5615,-12.57685 2.9518,-23.78305 l 0.4615,-13.1718 c -5.1246,-0.19728 -10.6673,-0.41939 -16.7318,-0.66715 z"
         style="fill:#000000;fill-opacity:0.1;fill-rule:evenodd;stroke-width:1.59374;stroke-linecap:square;stroke-linejoin:round;paint-order:stroke fill markers"
         id="path62" /><path
         d="m -1290.3293,-308.4511 0.2145,1.10277 c 0.3246,1.68716 0.8486,10.28787 1.1611,19.11305 0.6582,18.60277 -1.1214,32.02287 -6.3216,47.66582 -5.8694,17.65617 -11.1449,26.97912 -27.9729,49.43678 -16.4906,22.00777 -21.9894,35.98845 -21.9894,55.9077 0,8.70399 0.4258,12.00303 2.3265,18.01854 2.5168,7.96529 6.4247,14.88058 11.3595,20.105232 5.7092,6.04451 8.0228,10.31995 8.0228,14.82338 0,4.81291 -1.0107,7.134297 -4.8928,11.240144 -3.5466,3.750963 -3.8945,8.408182 -0.8144,10.902177 2.7102,2.194691 3.9725,2.175147 8.4967,-0.132809 6.8094,-3.473813 11.6502,-12.662341 11.6969,-22.202782 0.039,-7.92598 -1.4123,-11.12028 -10.4117,-22.914882 -9.5478,-12.51339 -10.1498,-14.28993 -10.1545,-29.94184 0,-12.17245 0.1997,-13.72533 2.5663,-19.69802 3.5224,-8.88529 7.8076,-15.68314 18.234,-28.92795 14.6638,-18.62678 21.4017,-30.72748 27.726,-49.78043 6.9821,-21.0353 9.5448,-41.9259 7.6341,-62.24891 -0.4887,-5.19739 -1.0595,-10.03108 -1.4123,-12.09745 v 0 c -4.8577,-0.0795 -9.9297,-0.2026 -15.4673,-0.37052 z"
         style="fill:#000000;fill-opacity:0.1;fill-rule:evenodd;stroke-width:1.59374;stroke-linecap:square;stroke-linejoin:round;paint-order:stroke fill markers"
         id="path61" /><path
         d="m -1235.8649,-308.37152 c -5.4517,0.14983 -10.4511,0.25889 -15.2435,0.32453 l -0.1463,0.69866 c -1.5557,7.47361 -2.2059,23.57088 -1.4051,34.86247 1.4534,20.5007 6.7326,39.95707 15.6621,57.73653 5.843,11.63385 10.0426,18.09826 19.9321,30.67565 14.3673,18.27272 19.022,27.54024 21.0251,41.85688 1.9774,14.13508 -1.5849,26.50404 -10.8066,37.52587 -7.1783,8.579212 -10.0267,14.840392 -10.0267,22.037422 0,9.731931 5.6029,19.833882 12.7237,22.93658 3.5535,1.548281 2.9526,1.554924 6.0798,-0.06253 2.4097,-1.246123 3.8015,-3.731244 3.8364,-6.850744 0,-0.63157 -1.9455,-3.353193 -4.3392,-6.04821 -4.2046,-4.734136 -4.3383,-5.069046 -3.9399,-9.875886 0.3425,-4.13413 1.1196,-5.86787 4.5889,-10.25725 7.7591,-9.816412 12.0265,-16.462782 14.0617,-21.902542 3.0105,-8.04613 4.1417,-19.42023 2.9259,-29.41836 -1.9774,-16.26321 -7.5319,-28.46725 -21.3294,-46.85812 -5.0522,-6.73419 -11.2628,-15.28859 -13.8002,-19.01176 -8.3292,-12.22251 -16.1024,-31.59705 -19.3291,-48.18001 -1.7894,-9.19429 -2.3291,-33.56063 -1.0066,-45.39051 z"
         style="fill:#000000;fill-opacity:0.1;fill-rule:evenodd;stroke-width:1.59374;stroke-linecap:square;stroke-linejoin:round;paint-order:stroke fill markers"
         id="path60" /><path
         d="m -1199.0832,-309.64173 c -5.9779,0.22796 -11.4469,0.4323 -16.5101,0.61392 -1.2422,5.23992 0.511,24.43808 3.4969,36.42 6.5886,26.42858 19.5,45.03729 44.7839,64.54283 26.8513,20.71492 36.3628,33.6164 39.1154,53.05412 2.2864,16.1446 -5.1432,31.79506 -19.6479,41.39179 -5.9304,3.92388 -8.2883,7.44012 -7.2285,10.77919 1.9425,6.120602 8.1381,6.482342 16.413,0.95653 11.5169,-7.6906 20.7344,-20.78436 24.183,-34.34984 3.2174,-12.65773 1.0345,-30.85979 -5.2395,-43.68726 -6.5137,-13.31797 -15.5808,-23.32167 -35.3327,-38.98056 -11.2048,-8.88301 -24.6256,-22.2505 -29.5786,-29.46125 -9.4632,-13.77718 -13.4317,-27.44382 -14.0663,-48.44149 z"
         style="fill:#000000;fill-opacity:0.1;fill-rule:evenodd;stroke-width:1.59374;stroke-linecap:square;stroke-linejoin:round;paint-order:stroke fill markers"
         id="path59" /></g><text
       xml:space="preserve"
       transform="matrix(0.26458333,0,0,0.26458333,-2030.8516,-569.1521)"
       id="text2"
       style="font-style:normal;font-variant:normal;font-weight:normal;font-stretch:normal;font-size:120px;font-family:'Myanmar MN';-inkscape-font-specification:'Myanmar MN';text-align:start;writing-mode:lr-tb;direction:ltr;white-space:pre;shape-inside:url(#rect3);display:inline;fill:#ff6600;fill-opacity:0;fill-rule:evenodd;stroke:none;stroke-width:6.34961;stroke-linecap:square;stroke-linejoin:round;paint-order:stroke fill markers" /><path
       style="font-size:296.987px;font-family:Ubuntu;-inkscape-font-specification:Ubuntu;letter-spacing:0px;fill:#ff0000;fill-opacity:0;fill-rule:evenodd;stroke-width:15.7145;stroke-linecap:square;stroke-linejoin:round;paint-order:stroke fill markers"
       d="m -1469.254,691.13712 q -21.68,0 -39.4993,-7.12769 -17.8192,-7.12769 -30.5896,-20.78909 -12.7705,-13.6614 -19.8982,-33.55953 -6.8307,-20.19512 -6.8307,-46.03299 0,-25.83787 7.7217,-45.73599 8.0187,-20.19512 21.3831,-33.85652 13.3644,-13.6614 31.1836,-20.78909 17.8192,-7.12769 38.0143,-7.12769 12.7705,0 22.868,1.78192 10.3946,1.78192 17.8193,4.15782 7.7216,2.3759 12.4734,4.75179 4.7518,2.3759 6.5337,3.56385 l -8.3156,23.75896 q -2.6729,-1.78193 -7.7217,-3.86084 -5.0487,-2.0789 -11.5825,-4.15781 -6.2367,-2.07891 -13.9583,-3.26686 -7.4247,-1.48494 -15.1464,-1.48494 -16.3343,0 -29.4017,5.64276 -13.0674,5.64275 -22.274,16.33428 -9.2066,10.69153 -14.2554,26.13486 -4.7518,15.14634 -4.7518,34.1535 0,18.4132 4.1578,33.55953 4.4548,15.14634 13.0675,26.13486 8.6126,10.69153 21.383,16.63127 13.0674,5.93974 30.2927,5.93974 19.8981,0 32.9656,-4.15782 13.0674,-4.15781 19.6011,-7.42467 l 7.4247,23.75896 q -2.0789,1.48493 -7.4247,3.86083 -5.3458,2.07891 -13.3644,4.15782 -8.0187,2.07891 -18.7102,3.56384 -10.6915,1.48494 -23.165,1.48494 z m 119.686,-158.88805 h 58.5065 v 23.16499 h -58.5065 v 71.27688 q 0,11.58249 1.7819,19.30415 1.782,7.42468 5.3458,11.87948 3.5639,4.15782 8.9096,5.93974 5.3458,1.78193 12.4735,1.78193 12.4734,0 19.8981,-2.67289 7.7217,-2.96987 10.6915,-4.15782 l 5.3458,22.868 q -4.1578,2.07891 -14.5524,5.04878 -10.3945,3.26686 -23.7589,3.26686 -15.7403,0 -26.1349,-3.86083 -10.0975,-4.15782 -16.3343,-12.17647 -6.2367,-8.01865 -8.9096,-19.60114 -2.3759,-11.87948 -2.3759,-27.3228 V 489.18596 l 27.6198,-4.75179 z m 81.9685,77.51361 q 0,-20.4921 5.9397,-35.63844 5.9398,-15.44332 15.7403,-25.54088 9.8006,-10.09756 22.5711,-15.14634 12.7704,-5.04878 26.1348,-5.04878 31.1836,0 47.8149,19.60114 16.6313,19.30416 16.6313,59.10042 0,1.78192 0,4.75179 0,2.67288 -0.297,5.04878 h -105.7274 q 1.7819,24.05594 13.9584,36.5294 12.1765,12.47345 38.0144,12.47345 14.5523,0 24.3529,-2.37589 10.0975,-2.67289 15.1463,-5.04878 l 3.8609,23.16498 q -5.0488,2.67289 -17.8193,5.64276 -12.4734,2.96987 -28.5107,2.96987 -20.1951,0 -35.0445,-5.93974 -14.5523,-6.23673 -24.0559,-16.92826 -9.5036,-10.69153 -14.2554,-25.2439 -4.4548,-14.84935 -4.4548,-32.37158 z m 106.0243,-15.14634 q 0.297,-18.71018 -9.5035,-30.58966 -9.5036,-12.17647 -26.4319,-12.17647 -9.5036,0 -16.9282,3.86084 -7.1277,3.56384 -12.1765,9.50358 -5.0488,5.93974 -8.0187,13.6614 -2.6728,7.72166 -3.5638,15.74031 z m 68.6041,-57.91246 q 9.5035,-2.3759 25.2439,-5.04878 15.7403,-2.67288 36.2324,-2.67288 18.4132,0 30.5896,5.34576 12.17649,5.04878 19.30418,14.55236 7.42468,9.2066 10.39455,22.27403 2.96987,13.06743 2.96987,28.80774 v 86.7202 h -27.61979 v -80.78046 q 0,-14.25538 -2.07891,-24.35294 -1.78192,-10.09755 -6.2367,-16.33428 -4.4548,-6.23673 -11.8795,-8.90961 -7.4247,-2.96987 -18.4132,-2.96987 -4.4548,0 -9.2066,0.29699 -4.7518,0.29698 -9.2066,0.89096 -4.1578,0.29698 -7.7217,0.89096 -3.2668,0.59397 -4.7518,0.89096 v 130.37729 h -27.6197 z m 306.78733,72.76181 q 0,18.4132 -5.34577,33.26255 -5.34576,14.84935 -15.14634,25.54088 -9.50358,10.69153 -22.86799,16.63127 -13.36442,5.64275 -29.10473,5.64275 -15.74031,0 -29.10473,-5.64275 -13.36441,-5.93974 -23.16498,-16.63127 -9.50359,-10.69153 -14.84935,-25.54088 -5.34577,-14.84935 -5.34577,-33.26255 0,-18.1162 5.34577,-32.96555 5.34576,-15.14634 14.84935,-25.83787 9.80057,-10.69154 23.16498,-16.33429 13.36442,-5.93974 29.10473,-5.93974 15.74031,0 29.10473,5.93974 13.36441,5.64275 22.86799,16.33429 9.80058,10.69153 15.14634,25.83787 5.34577,14.84935 5.34577,32.96555 z m -28.80774,0 q 0,-26.13485 -11.87948,-41.28119 -11.58249,-15.44332 -31.77761,-15.44332 -20.19512,0 -32.0746,15.44332 -11.58249,15.14634 -11.58249,41.28119 0,26.13486 11.58249,41.57818 11.87948,15.14634 32.0746,15.14634 20.19512,0 31.77761,-15.14634 11.87948,-15.44332 11.87948,-41.57818 z m 193.33862,52.26971 v 24.94691 H -745.49647 V 480.87032 h 28.80774 V 661.7354 Z m 80.78019,5.04878 q 9.80058,0 17.22525,-0.29698 7.72166,-0.59398 12.77044,-1.78193 v -46.03298 q -2.96987,-1.48494 -9.80057,-2.3759 -6.53371,-1.18794 -16.0373,-1.18794 -6.23672,0 -13.36441,0.89096 -6.8307,0.89096 -12.77044,3.86083 -5.64276,2.67288 -9.50359,7.72166 -3.86083,4.75179 -3.86083,12.77044 0,14.84935 9.50359,20.78909 9.50358,5.64275 25.83786,5.64275 z m -2.37589,-138.39594 q 16.63127,0 27.91678,4.45481 11.58249,4.15781 18.41319,12.17646 7.12769,7.72167 10.09756,18.71018 2.96987,10.69154 2.96987,23.75896 v 96.52078 q -3.56385,0.59397 -10.09756,1.78192 -6.23673,0.89096 -14.25538,1.78192 -8.01864,0.89096 -17.52223,1.48494 -9.2066,0.89096 -18.41319,0.89096 -13.06743,0 -24.05595,-2.67288 -10.98852,-2.67289 -19.00717,-8.31564 -8.01865,-5.93974 -12.47345,-15.44332 -4.45481,-9.50359 -4.45481,-22.868 0,-12.77044 5.04878,-21.97704 5.34577,-9.2066 14.25538,-14.84935 8.90961,-5.64275 20.78909,-8.31564 11.87948,-2.67288 24.94691,-2.67288 4.15781,0 8.61262,0.59397 4.4548,0.29699 8.31564,1.18795 4.15781,0.59398 7.12768,1.18795 2.96987,0.59397 4.15782,0.89096 v -7.72166 q 0,-6.8307 -1.48493,-13.36442 -1.48494,-6.8307 -5.34577,-11.87948 -3.86083,-5.34576 -10.69153,-8.31563 -6.53372,-3.26686 -17.22525,-3.26686 -13.6614,0 -24.05594,2.07891 -10.09756,1.78192 -15.14634,3.86083 l -3.26686,-22.868 q 5.34577,-2.37589 17.81922,-4.4548 12.47346,-2.3759 27.02582,-2.3759 z m 132.75295,10.69153 q 5.04878,-3.26685 15.14634,-6.8307 10.39454,-3.56384 23.75896,-3.56384 16.63127,0 29.40171,5.93974 13.06743,5.93974 21.97704,16.63127 8.90961,10.69153 13.36441,25.54088 4.7518,14.84935 4.7518,32.66857 0,18.71018 -5.64276,33.85652 -5.34576,14.84935 -15.44332,25.2439 -10.09756,10.39454 -24.35293,16.03729 -14.25538,5.64276 -32.0746,5.64276 -19.30416,0 -34.15351,-2.67289 -14.84935,-2.67288 -24.35293,-5.34576 V 460.97219 l 27.61979,-4.75179 z m 0,123.5466 q 4.15782,1.18794 11.58249,2.37589 7.72167,0.89096 19.00717,0.89096 22.27403,0 35.63844,-14.55236 13.36442,-14.84935 13.36442,-41.87517 0,-11.87948 -2.3759,-22.27402 -2.37589,-10.39455 -7.72166,-17.81922 -5.34577,-7.72166 -13.95839,-11.87948 -8.31564,-4.45481 -20.19512,-4.45481 -11.2855,0 -20.78909,3.86083 -9.50358,3.86083 -14.55236,8.01865 z"
       id="text4"
       aria-label="CtenoLab" /><text
       xml:space="preserve"
       transform="matrix(0.26458333,0,0,0.26458333,-2030.8516,-569.1521)"
       id="text5"
       style="font-style:normal;font-variant:normal;font-weight:normal;font-stretch:normal;font-size:120px;font-family:'Myanmar MN';-inkscape-font-specification:'Myanmar MN';text-align:start;writing-mode:lr-tb;direction:ltr;white-space:pre;shape-inside:url(#rect5);display:inline;fill:#ffd42a;fill-opacity:0;fill-rule:evenodd;stroke:none;stroke-width:6.34961;stroke-linecap:square;stroke-linejoin:round;paint-order:stroke fill markers" /><text
       xml:space="preserve"
       transform="matrix(0.26458333,0,0,0.26458333,-2030.8516,-569.1521)"
       id="text6"
       style="font-style:normal;font-variant:normal;font-weight:normal;font-stretch:normal;font-size:120px;font-family:Ubuntu;-inkscape-font-specification:Ubuntu;text-align:start;writing-mode:lr-tb;direction:ltr;white-space:pre;shape-inside:url(#rect6);display:inline;fill:#ffd42a;fill-opacity:0;fill-rule:evenodd;stroke:none;stroke-width:6.34961;stroke-linecap:square;stroke-linejoin:round;paint-order:stroke fill markers" /><g
       id="g14"
       transform="translate(70.150042,1028.3478)"
       style="opacity:1;fill:#ffffff"><path
         d="m -1831.3886,-691.18888 c -9.4187,-0.0214 -18.8339,0.54957 -24.2859,1.71824 -26.0854,5.59128 -47.0836,17.08614 -66.2683,36.27789 -23.691,23.69936 -36.277,52.47942 -48.4193,110.72038 -5.2579,25.21974 -7.1527,42.46471 -5.7593,52.42574 2.098,14.99739 7.6037,26.67611 17.124,36.32956 6.9418,7.03892 12.1687,10.4393 22.563,14.67818 l 7.138,2.91093 0.2781,6.81716 c 0.58,14.20561 -6.7841,31.59775 -18.2062,43.00151 -7.0024,6.99118 -10.616,9.49236 -32.0988,22.21776 -14.9224,8.8392 -21.3256,13.52052 -29.4721,21.54132 -21.9597,21.6215 -27.9037,47.18203 -16.1106,69.30792 3.1546,5.91882 9.9496,12.65555 13.7175,13.60123 5.2526,1.31833 9.8946,-4.05404 7.8166,-9.04596 -0.5548,-1.33213 -2.5276,-3.90439 -4.3858,-5.71644 -5.9408,-5.79337 -7.38,-9.66232 -7.3836,-19.83083 0,-10.71436 1.7263,-16.58404 7.5086,-25.48424 8.0295,-12.35817 18.3505,-20.82775 41.997,-34.46094 7.0084,-4.04057 15.7829,-9.63097 19.5026,-12.42302 19.6306,-14.73505 30.899,-34.52228 32.9324,-57.83058 0.3667,-4.20641 0.9214,-8.11013 1.3844,-8.09098 22.9304,0.94812 39.3051,1.62511 52.8738,2.03606 v -5.2e-4 c 5.5376,0.16792 10.609,0.29097 15.4667,0.37052 v 0 c 0,0 0,5.2e-4 0,5.2e-4 12.1169,0.1981 22.9121,0.12295 36.3409,-0.22066 0.8735,-0.0224 1.7579,-0.0462 2.6547,-0.0708 13.6171,-0.37377 30.0541,-1.00859 53.1213,-1.89962 0.5426,-0.0214 1.1271,4.77938 1.7089,9.71568 3.4768,29.48898 18.5962,49.34842 52.0697,68.39169 10.3797,5.90513 22.3453,13.76587 27.5234,18.08262 11.9564,9.96749 20.6691,23.90807 22.5495,36.07945 1.697,10.98459 -0.6511,18.73843 -8.0837,26.68468 -2.5892,2.76818 -4.2323,5.40647 -4.2323,6.797 0,3.09813 3.444,7.24658 6.0172,7.24658 3.7029,0 10.7774,-5.32667 14.2167,-10.70322 13.7148,-21.43959 8.3872,-48.99305 -13.8576,-71.65144 -9.029,-9.19654 -16.177,-14.28107 -38.2338,-27.19885 -20.9834,-12.28922 -29.9676,-20.88803 -36.3208,-34.76998 -4.9612,-10.83982 -7.833,-26.37848 -5.8363,-31.58101 0.3032,-0.79382 3.2761,-2.34993 6.6016,-3.45664 7.5062,-2.49788 18.4522,-9.58024 23.7515,-15.36754 13.2818,-14.50431 18.5955,-32.44589 16.2575,-54.90672 -2.8361,-27.24827 -14.098,-74.07044 -23.2798,-96.79461 -7.9952,-19.78868 -19.7914,-37.52109 -33.7431,-50.72766 -8.3267,-7.88192 -21.4161,-17.22057 -30.7237,-21.91907 -7.2911,-3.68047 -22.482,-8.87264 -32.1211,-10.97814 -5.4581,-1.19219 -14.877,-1.80281 -24.2956,-1.82315 z m -0.3907,14.37897 c 0,0 0.01,0 0.01,0 0.6636,1.1e-4 1.3135,0.0545 1.9446,0.16433 0.6311,0.10988 1.248,0.2756 1.8469,0.4961 1.1994,0.44121 2.3363,1.1055 3.4086,1.99264 0.5358,0.44339 1.0548,0.94299 1.5596,1.49862 0.5048,0.5559 0.9944,1.16721 1.4681,1.83606 0.4741,0.66888 0.9333,1.39476 1.3767,2.17713 0.058,0.10219 0.1075,0.2359 0.1648,0.34003 0.455,0.82665 0.8842,1.74824 1.3064,2.69751 0.7478,1.67851 1.4625,3.48266 2.1089,5.54798 0.04,0.12678 0.065,0.311 0.1039,0.43925 0.7897,2.57944 1.4535,5.6593 2.0924,8.83409 1.023,5.08378 1.92,10.67638 2.5673,17.30953 1.6838,17.25766 1.9313,75.05749 0.4387,102.49504 -1.972,36.26419 -7.0835,58.00802 -15.443,65.67661 -0.805,0.73818 -1.761,1.40129 -2.6691,1.89704 -0.1001,0.0548 -0.1887,0.0865 -0.2873,0.13694 -0.3528,0.17983 -0.7018,0.35104 -1.0185,0.46509 -0.047,0.0169 -0.09,0.0302 -0.1354,0.0455 -0.1386,0.0463 -0.2726,0.0871 -0.3995,0.11782 -0.1225,0.03 -0.2417,0.0569 -0.3514,0.0713 -0.01,0.001 -0.02,0.005 -0.029,0.006 -0.062,0.008 -0.1226,0.0121 -0.1794,0.0134 -0.021,7.6e-4 -0.042,10e-4 -0.062,10e-4 -1.3712,0 -2.7426,-0.69162 -4.0891,-1.95596 -0.207,-0.1947 -0.4125,-0.4144 -0.6181,-0.63717 -0.1881,-0.20346 -0.3764,-0.39819 -0.5633,-0.62476 -0.06,-0.0732 -0.1192,-0.16213 -0.1793,-0.23772 -0.6555,-0.82254 -1.3029,-1.77468 -1.9378,-2.87114 -0.016,-0.0284 -0.033,-0.052 -0.05,-0.0806 -0.2597,-0.45184 -0.5056,-1.02865 -0.7612,-1.52446 -0.4908,-0.95362 -0.9788,-1.92646 -1.4515,-3.03651 -0.1708,-0.4004 -0.3291,-0.85734 -0.4972,-1.27744 -1.0452,-2.61482 -1.9735,-5.87728 -2.8949,-9.20305 -0.436,-1.57168 -0.8967,-2.94192 -1.2991,-4.65812 -1.0382,-4.42859 -1.9516,-9.29613 -2.7198,-14.57533 -0.069,-0.47733 -0.1789,-0.83626 -0.2459,-1.31982 -3.4518,-24.91462 -4.3916,-105.83201 -1.5245,-131.19819 2.9749,-26.3167 9.1084,-40.18019 18.1338,-41.01765 0.2899,-0.0269 0.5826,-0.0408 0.8785,-0.0408 z m -31.5754,3.31453 c 0.036,3.9e-4 0.036,0.003 0.061,0.004 0.1499,0.007 0.2747,0.0322 0.3721,0.0682 2.871,1.0817 2.2707,3.22264 -3.3073,11.85767 -5.9714,9.24399 -11.9295,22.86925 -15.2218,34.80305 -3.7714,13.66982 -5.8755,30.05735 -8.2367,64.16145 -2.3306,33.66514 -3.8497,46.11787 -6.9112,56.63221 -5.4364,18.67373 -17.171,34.65133 -30.4581,41.47292 -0.2033,0.10523 -0.4048,0.20762 -0.601,0.30644 -2.753,1.45574 -5.6545,3.27073 -6.9427,4.17339 -2.8768,2.01503 -5.3664,1.95393 -8.9302,-0.21911 -6.442,-3.92844 -13.4351,-14.54562 -15.9551,-24.22023 -1.8404,-7.06685 -1.8433,-20.09356 0,-31.58825 2.1044,-13.16779 10.471,-49.48342 14.7076,-63.8328 14.0815,-47.69577 42.824,-72.47909 57.6714,-82.55206 0.075,0.0528 0.1678,0.0853 0.2677,0.0853 0.2568,0 0.4718,-0.21265 0.4718,-0.47232 v -0.10129 c 2.4162,-1.61086 4.4268,-2.81063 5.8958,-3.6375 0.1747,-0.0998 0.3498,-0.19796 0.525,-0.29456 0.7993,-0.44064 1.5522,-0.70715 2.3652,-1.12396 2.6037,-1.33505 5.2811,-2.6887 7.582,-3.60805 0.017,-0.007 0.028,-0.009 0.045,-0.016 0.762,-0.3037 1.3488,-0.4777 2.0272,-0.71623 0.6499,-0.22861 1.3953,-0.52699 1.9462,-0.6873 0.02,-0.006 0.033,-0.007 0.052,-0.0129 0.2967,-0.0855 0.5348,-0.13401 0.7973,-0.1974 0.2418,-0.0585 0.5119,-0.13536 0.722,-0.17415 0.1083,-0.0199 0.2035,-0.0316 0.3028,-0.046 0.098,-0.0144 0.2009,-0.0319 0.2899,-0.0408 0.078,-0.008 0.1415,-0.007 0.2119,-0.0103 0.081,-0.004 0.1725,-0.0142 0.2439,-0.0124 z m 64.1248,0.41134 h 0.01 v 0 c 0.01,-1e-4 0.02,0.002 0.029,0.002 3.4078,-0.0174 13.599,4.20439 19.7394,8.35298 0.01,0.006 0.017,0.0113 0.025,0.017 6.119,3.18675 27.3755,21.94277 33.491,29.54342 16.0147,19.90362 25.8455,42.41251 36.9269,92.69667 10.0311,45.51674 9.0595,62.2228 -4.4555,76.67129 -4.3016,4.59882 -8.3205,7.3334 -10.7756,7.3334 -0.6889,0 -2.2315,-0.68569 -3.4287,-1.52446 -1.0563,-0.73966 -4.9765,-2.98754 -8.0616,-4.63486 -0.039,-0.0214 -0.082,-0.0447 -0.125,-0.0661 -1.4271,-0.76005 -2.8326,-1.65843 -4.2241,-2.62051 -0.3564,-0.24651 -0.7054,-0.51256 -1.0588,-0.77153 -0.8109,-0.59385 -1.5989,-1.245 -2.3921,-1.90169 -1.8943,-1.56853 -3.7502,-3.25075 -5.5149,-5.14026 -0.054,-0.0582 -0.1158,-0.10013 -0.17,-0.15865 -2.7501,-2.96596 -5.3157,-6.28943 -7.6192,-9.87019 -0.059,-0.0919 -0.1025,-0.19668 -0.1612,-0.28888 -1.4429,-2.26477 -2.7392,-4.65142 -3.9528,-7.0931 -0.3591,-0.72219 -0.7008,-1.43973 -1.0376,-2.17455 -1.1346,-2.4752 -2.177,-4.9947 -3.034,-7.58093 -0.042,-0.12684 -0.1075,-0.24503 -0.1488,-0.37207 -4.0094,-12.32849 -5.7269,-23.66465 -7.3019,-48.13763 -3.6326,-56.45299 -4.8512,-64.84459 -12.6705,-87.30785 -2.9306,-8.41935 -5.6217,-13.87351 -11.9331,-24.19956 -0.066,-0.10778 -0.058,-0.12005 -0.1235,-0.22737 -2.4059,-3.95265 -4.3893,-7.60003 -4.5517,-8.3814 -4e-4,-0.002 -0.014,-0.0241 -0.014,-0.0264 0,-0.025 0,-0.0447 0,-0.0625 0,-0.0696 -7e-4,-0.14511 0.036,-0.22324 0,-0.0194 0.011,-0.0387 0.021,-0.0584 0.01,-0.0186 0.014,-0.0374 0.022,-0.0563 10e-5,-0.002 0,-0.003 0,-0.005 0.05,-0.122 0.1248,-0.25011 0.2175,-0.37982 0.01,-0.009 0.015,-0.0183 0.022,-0.0274 0.01,-0.009 0.016,-0.0182 0.023,-0.0274 0.084,-0.11114 0.1822,-0.22254 0.2909,-0.33279 0.025,-0.0255 0.049,-0.0507 0.076,-0.076 0.019,-0.0186 0.036,-0.0378 0.056,-0.0563 0.1105,-0.10233 0.2355,-0.19844 0.3622,-0.29301 0.02,-0.0145 0.036,-0.0307 0.055,-0.045 0.1717,-0.12395 0.3534,-0.23999 0.5447,-0.34003 0.043,-0.0214 0.093,-0.0452 0.1462,-0.063 0.06,-0.0202 0.1268,-0.0357 0.1974,-0.0491 0.01,-9.8e-4 0.01,-0.002 0.015,-0.003 0.045,-0.008 0.095,-0.0141 0.1442,-0.0196 0.088,-0.0102 0.1815,-0.0172 0.2827,-0.0191 0.01,-1.5e-4 0.014,-10e-4 0.022,-0.002 z m -87.5988,9.7963 c 0.2248,0 0.4146,0.15944 0.461,0.37052 -0.2389,0.15903 -0.4816,0.32181 -0.7276,0.48886 v 0 c -0.1213,-0.0853 -0.2031,-0.22645 -0.2031,-0.38705 0,-0.25971 0.2138,-0.47233 0.4713,-0.47233 z m 56.1666,325.81991 c -0.079,0.004 -0.1602,0.0211 -0.2387,0.0475 -1.9731,0.6478 -5.0434,5.92644 -8.5633,14.72055 -9.6502,24.11117 -8.29,44.6527 4.4131,66.64813 6.7581,11.70109 8.0171,14.71698 9.3152,22.28598 2.169,12.64845 -2.6854,28.04022 -12.3088,39.02139 -3.9005,4.45099 -4.8849,6.24328 -4.8849,8.89299 0,6.41316 4.8906,8.56735 10.9502,4.82245 5.1945,-3.21036 10.7001,-10.28721 15.0073,-19.2903 4.9997,-10.45162 6.2811,-15.86358 6.2979,-26.58907 0,-11.91311 -2.0619,-19.37184 -9.5695,-34.28886 -3.6073,-7.16763 -7.4269,-15.6088 -8.4878,-18.75752 -2.3699,-7.03474 -2.5268,-17.08146 -0.4181,-26.72343 2.7262,-12.46587 1.7942,-30.70167 -1.4325,-30.78985 v 0 c -0.036,-7.2e-4 -0.05,-10e-4 -0.079,0 z"
         style="fill:#ffffff;fill-opacity:0.5;fill-rule:evenodd;stroke-width:1.59374;stroke-linecap:square;stroke-linejoin:round;paint-order:stroke fill markers"
         id="path6" /><path
         d="m -1831.7877,-676.80947 c -9.5067,0 -15.9418,13.89644 -19.0123,41.05848 -2.8671,25.36618 -1.9273,106.28357 1.5245,131.19819 3.4914,25.19862 10.4154,42.00209 17.3069,42.00209 1.1669,0 3.471,-1.2392 5.1227,-2.75384 8.3598,-7.66824 13.473,-29.41178 15.4451,-65.67661 1.4925,-27.43723 1.245,-85.2372 -0.4388,-102.49504 -2.8582,-29.28863 -9.3216,-43.33327 -19.9481,-43.33327 z"
         style="fill:#ffffff;fill-opacity:0.65;fill-rule:evenodd;stroke-width:1.68;stroke-linecap:square;stroke-linejoin:round;paint-order:stroke fill markers"
         id="path7" /><path
         d="m -1799.229,-673.0836 c -0.3496,0.004 -0.6256,0.0548 -0.8165,0.15503 -0.9478,0.49797 -1.7239,1.36227 -1.7239,1.92081 0,0.55855 2.1131,4.47252 4.6958,8.69766 6.3115,10.32605 9.002,15.78021 11.9326,24.19956 7.8194,22.46326 9.0379,30.85486 12.6706,87.30785 1.575,24.47298 3.294,35.80914 7.3034,48.13763 5.3672,16.50244 16.7959,31.30648 29.3124,37.97236 6.609,3.51976 8.7032,3.79552 9.524,1.25522 0.3496,-1.07796 -0.3674,-3.69593 -1.7441,-6.37119 -3.7097,-7.2114 -8.2403,-21.7433 -10.2655,-32.93184 -1.2753,-7.04648 -2.1819,-18.667 -2.8654,-36.73574 -1.9407,-51.3406 -4.0249,-67.70985 -11.0976,-87.1399 -5.9621,-16.38047 -16.1461,-30.6746 -27.1564,-38.11292 -6.1566,-4.15954 -16.3886,-8.39448 -19.7694,-8.35453 z"
         style="fill:#ffffff;fill-opacity:0.8;fill-rule:evenodd;stroke-width:1.60834;stroke-linecap:square;stroke-linejoin:round;paint-order:stroke fill markers"
         id="path8" /><path
         d="m -1863.3041,-673.49081 c -2.219,-0.12236 -9.867,2.90218 -16.6507,6.64197 -11.7356,6.46967 -22.4682,20.07848 -28.9708,36.73368 -8.25,21.13298 -11.2677,40.08396 -12.4789,78.36886 -1.4173,44.81253 -3.8714,60.27907 -12.6839,79.95998 -2.6599,5.94033 -3.1118,7.75044 -2.2025,8.82633 1.6296,1.92806 2.8849,1.71826 9.2217,-1.53531 13.287,-6.82159 25.0212,-22.7997 30.4575,-41.47343 3.0616,-10.51434 4.5822,-22.96707 6.9128,-56.63221 2.3612,-34.1041 4.4653,-50.49111 8.2367,-64.16094 3.2923,-11.9338 9.2524,-25.55957 15.2239,-34.80356 5.5779,-8.63503 6.1747,-10.77545 3.3036,-11.85716 -0.096,-0.0367 -0.221,-0.06 -0.3694,-0.0682 z"
         style="fill:#ffffff;fill-opacity:0.65;fill-rule:evenodd;stroke-width:1.60834;stroke-linecap:square;stroke-linejoin:round;paint-order:stroke fill markers"
         id="path9" /><path
         d="m -1895.4613,-431.84871 -0.036,10.72183 c -0.1,33.97991 -11.583,54.7478 -44.3637,80.22921 -23.1702,18.01098 -33.0839,30.28552 -39.2612,48.60943 -1.9121,5.67097 -2.2243,8.41235 -2.2029,19.34921 0.036,11.51177 0.2748,13.42419 2.6143,19.80292 4.3529,11.87062 11.529,21.2534 21.7402,28.42463 7.0752,4.96869 12.2709,6.07033 15.133,3.20807 4.2965,-4.29631 2.9846,-8.85531 -3.8933,-13.53147 -11.711,-7.96252 -19.1614,-19.15436 -21.1171,-31.71745 -0.783,-5.0283 -0.6679,-7.77068 0.5953,-14.0069 3.3512,-16.54628 12.5581,-28.8064 34.7829,-46.32327 13.6082,-10.72541 28.5085,-25.61797 34.5845,-34.56533 6.0049,-8.84241 12.0381,-22.17327 14.7422,-32.57837 1.9164,-7.37357 2.561,-12.57685 2.9513,-23.78305 l 0.4619,-13.1718 c -5.1245,-0.19728 -10.6672,-0.41991 -16.7317,-0.66766 z"
         style="fill:#ffffff;fill-opacity:0.3;fill-rule:evenodd;stroke-width:1.59374;stroke-linecap:square;stroke-linejoin:round;paint-order:stroke fill markers"
         id="path10" /><path
         d="m -1858.9509,-430.48807 0.2139,1.10226 c 0.3247,1.68716 0.8487,10.28838 1.1612,19.11356 0.6582,18.60277 -1.1214,32.02236 -6.3216,47.66531 -5.8694,17.65617 -11.1449,26.97963 -27.973,49.43729 -16.4906,22.00777 -21.9893,35.98845 -21.9893,55.9077 0,8.70399 0.4263,12.00303 2.327,18.01854 2.5168,7.96529 6.4247,14.88058 11.3595,20.10523 5.7092,6.04451 8.0228,10.31995 8.0228,14.82338 0,4.81291 -1.0107,7.13378 -4.8928,11.23963 -3.5467,3.75096 -3.895,8.4087 -0.8149,10.90269 2.7101,2.19469 3.9725,2.17515 8.4966,-0.13281 6.8095,-3.47381 11.6503,-12.66285 11.697,-22.20329 0.039,-7.92598 -1.4123,-11.11977 -10.4118,-22.91437 -9.5477,-12.51339 -10.1498,-14.29045 -10.1544,-29.94235 0,-12.17246 0.2002,-13.72481 2.5668,-19.69751 3.5224,-8.88529 7.8071,-15.68366 18.2335,-28.92847 14.6637,-18.62678 21.4022,-30.72696 27.7265,-49.7799 6.9821,-21.03531 9.5443,-41.92643 7.6336,-62.24943 -0.4887,-5.1974 -1.059,-10.03057 -1.4118,-12.09694 v 0 c -4.8577,-0.0795 -9.9291,-0.2026 -15.4667,-0.37052 z"
         style="fill:#ffffff;fill-opacity:0.3;fill-rule:evenodd;stroke-width:1.59374;stroke-linecap:square;stroke-linejoin:round;paint-order:stroke fill markers"
         id="path11" /><path
         d="m -1804.4865,-430.40849 c -5.4517,0.14983 -10.4516,0.25889 -15.2441,0.32453 l -0.1462,0.69866 c -1.5558,7.47361 -2.206,23.57088 -1.4051,34.86248 1.4534,20.50069 6.7331,39.95707 15.6626,57.73652 5.843,11.63385 10.0426,18.09826 19.9321,30.67565 14.3673,18.27272 19.022,27.53973 21.0251,41.85636 1.9774,14.13509 -1.5849,26.50456 -10.8066,37.52639 -7.1783,8.57921 -10.0273,14.84039 -10.0273,22.03742 0,9.73193 5.6029,19.83388 12.7238,22.93658 3.5535,1.54828 2.9531,1.55493 6.0803,-0.0625 2.4097,-1.24612 3.8014,-3.73124 3.8364,-6.85074 0,-0.63157 -1.9461,-3.35319 -4.3398,-6.04821 -4.2045,-4.73414 -4.3383,-5.06905 -3.9398,-9.87588 0.3425,-4.13414 1.1196,-5.86788 4.5889,-10.25726 7.759,-9.81641 12.027,-16.46277 14.0622,-21.90254 3.0105,-8.04613 4.1411,-19.42022 2.9254,-29.41836 -1.9774,-16.26321 -7.5314,-28.46725 -21.329,-46.85812 -5.0521,-6.73419 -11.2632,-15.2891 -13.8007,-19.01228 -8.3291,-12.2225 -16.1023,-31.59653 -19.329,-48.17948 -1.7894,-9.1943 -2.3291,-33.56064 -1.0067,-45.39052 z"
         style="fill:#ffffff;fill-opacity:0.3;fill-rule:evenodd;stroke-width:1.59374;stroke-linecap:square;stroke-linejoin:round;paint-order:stroke fill markers"
         id="path12" /><path
         d="m -1767.7053,-431.6787 c -5.9779,0.22796 -11.4469,0.43231 -16.5101,0.61392 -1.2422,5.23992 0.511,24.43808 3.4969,36.42 6.5886,26.42858 19.5,45.03729 44.7838,64.54283 26.8514,20.71492 36.3629,33.61589 39.1155,53.05361 2.2863,16.1446 -5.1433,31.79557 -19.6479,41.3923 -5.9304,3.92388 -8.2884,7.4396 -7.2285,10.77868 1.9424,6.12059 8.138,6.48285 16.4129,0.95704 11.517,-7.6906 20.7345,-20.78436 24.1831,-34.34984 3.2174,-12.65773 1.0345,-30.85979 -5.2395,-43.68725 -6.5137,-13.31798 -15.5803,-23.32167 -35.3322,-38.98057 -11.2048,-8.88301 -24.6261,-22.25049 -29.5791,-29.46125 -9.4632,-13.77717 -13.4312,-27.44382 -14.0658,-48.44149 z"
         style="fill:#ffffff;fill-opacity:0.3;fill-rule:evenodd;stroke-width:1.59374;stroke-linecap:square;stroke-linejoin:round;paint-order:stroke fill markers"
         id="path13" /></g></g></svg>
