<?xml version="1.0" encoding="UTF-8" standalone="no"?>
<!-- Created with Inkscape (http://www.inkscape.org/) -->

<svg
   width="595.82013mm"
   height="187.32501mm"
   viewBox="0 0 595.82014 187.32502"
   version="1.1"
   id="svg1"
   xml:space="preserve"
   inkscape:version="1.4.2 (ebf0e940, 2025-05-08)"
   sodipodi:docname="cteno_icon.svg"
   xmlns:inkscape="http://www.inkscape.org/namespaces/inkscape"
   xmlns:sodipodi="http://sodipodi.sourceforge.net/DTD/sodipodi-0.dtd"
   xmlns="http://www.w3.org/2000/svg"
   xmlns:svg="http://www.w3.org/2000/svg"><sodipodi:namedview
     id="namedview1"
     pagecolor="#ffffff"
     bordercolor="#000000"
     borderopacity="0.25"
     inkscape:showpageshadow="2"
     inkscape:pageopacity="0.0"
     inkscape:pagecheckerboard="0"
     inkscape:deskcolor="#d1d1d1"
     inkscape:document-units="mm"
     inkscape:zoom="0.25"
     inkscape:cx="1824"
     inkscape:cy="652"
     inkscape:window-width="2384"
     inkscape:window-height="1371"
     inkscape:window-x="1371"
     inkscape:window-y="33"
     inkscape:window-maximized="0"
     inkscape:current-layer="layer1"
     showguides="true" /><defs
     id="defs1" /><g
     inkscape:label="Layer 1"
     inkscape:groupmode="layer"
     id="layer1"
     transform="translate(1597.1886,406.81458)"><circle
       style="fill:#262b5e;fill-opacity:1;fill-rule:evenodd;stroke-width:1.68;stroke-linecap:square;stroke-linejoin:round;paint-order:stroke fill markers"
       id="path71"
       cx="-1321.5143"
       cy="-313.15207"
       r="93.662498"
       inkscape:export-filename="cteno.png"
       inkscape:export-xdpi="96"
       inkscape:export-ydpi="96" /><g
       id="g73"
       transform="translate(-273.64017,-81.639172)"><path
         id="path64"
         style="fill:#f1effe;fill-opacity:0.741176;fill-rule:evenodd;stroke-width:1.59374;stroke-linecap:square;stroke-linejoin:round;paint-order:stroke fill markers"
         d="m -1030.0181,-231.18415 -2.1528,0.12196 c -1.1841,0.067 -2.2402,0.25495 -2.3471,0.41754 -0.5383,0.81867 -0.037,6.85023 0.8717,10.49704 1.8469,7.40839 5.4663,12.62469 12.5538,18.09243 7.5269,5.80675 10.1931,9.42323 10.9647,14.87196 0.6409,4.52561 -1.4418,8.91278 -5.5077,11.60291 -1.6624,1.09993 -2.3233,2.08553 -2.0262,3.02153 0.5445,1.71571 2.2811,1.81718 4.6007,0.2682 3.2284,-2.15581 5.8123,-5.82623 6.779,-9.62887 0.9019,-3.54818 0.29,-8.65052 -1.4687,-12.24628 -1.8259,-3.73326 -4.3675,-6.53753 -9.9043,-10.92699 -3.1409,-2.49006 -6.9031,-6.23711 -8.2915,-8.25841 -2.6527,-3.86198 -3.765,-7.693 -3.9429,-13.57901 z m -35.7911,0.0413 -0.011,3.57188 c -0.028,9.52516 -3.2469,15.3467 -12.4359,22.48958 -6.495,5.04879 -9.2744,8.48953 -11.006,13.62604 -0.536,1.58967 -0.6231,2.35817 -0.6171,5.42396 0.01,3.22695 0.077,3.76301 0.7328,5.55108 1.2202,3.32754 3.2318,5.95777 6.0942,7.96799 1.9833,1.39281 3.4398,1.70151 4.2421,0.89917 1.2044,-1.20433 0.8366,-2.48224 -1.0914,-3.79305 -3.2828,-2.23203 -5.3718,-5.36928 -5.92,-8.89093 -0.2195,-1.40952 -0.1867,-2.17825 0.1674,-3.92637 0.9394,-4.63821 3.5203,-8.07498 9.7503,-12.98526 3.8146,-3.00652 7.9913,-7.18123 9.6945,-9.68933 1.6833,-2.47868 3.3746,-6.21553 4.1326,-9.13226 0.5372,-2.06694 0.7179,-3.52548 0.8273,-6.66677 l 0.1401,-4.02095 -0.63,-0.13901 c -0.3466,-0.0764 -1.4043,-0.17201 -2.3502,-0.21239 z m 10.1266,0.39688 0.1658,0.85989 c 0.091,0.47294 0.238,2.88397 0.3256,5.35782 0.1845,5.21468 -0.3143,8.97646 -1.772,13.36145 -1.6453,4.94933 -3.1242,7.5628 -7.8414,13.85807 -4.6226,6.16916 -6.1639,10.08821 -6.1639,15.67192 0,2.43988 0.1193,3.3646 0.6521,5.05085 0.7055,2.23281 1.801,4.17127 3.1843,5.63583 1.6004,1.69438 2.249,2.89291 2.249,4.1553 0,1.34914 -0.2833,1.99978 -1.3715,3.15072 -0.9942,1.05146 -1.0918,2.35703 -0.2284,3.05614 0.7597,0.61521 1.1135,0.60976 2.3817,-0.0372 1.9088,-0.97377 3.2658,-3.54956 3.2789,-6.22391 0.011,-2.22179 -0.396,-3.11715 -2.9187,-6.42338 -2.6764,-3.50772 -2.845,-4.00579 -2.8463,-8.39329 0,-3.41215 0.056,-3.84737 0.7193,-5.52162 0.9874,-2.4907 2.1886,-4.39632 5.1113,-8.10907 4.1105,-5.22141 5.9994,-8.61332 7.7722,-13.95419 1.9572,-5.89656 2.6755,-11.75269 2.1399,-17.44958 -0.1698,-1.80587 -0.3748,-3.45471 -0.4553,-3.66437 -0.1105,-0.28794 -0.6642,-0.38138 -2.2644,-0.38138 z m 11.2385,0 -0.1788,0.85989 c -0.4361,2.09498 -0.6182,6.6073 -0.3937,9.77253 0.4074,5.7467 1.8873,11.20066 4.3904,16.18455 1.6379,3.26117 2.8151,5.07329 5.5873,8.59895 4.0274,5.12216 5.3322,7.71994 5.8937,11.73314 0.5543,3.96231 -0.4443,7.42964 -3.0293,10.51925 -2.0122,2.4049 -2.8107,4.15995 -2.8107,6.1774 0,2.72803 1.5706,5.55985 3.5667,6.42959 0.9961,0.43401 0.8277,0.43577 1.7043,-0.0176 0.6755,-0.34931 1.0656,-1.04585 1.0754,-1.9203 0,-0.17704 -0.5455,-0.94004 -1.2165,-1.6955 -1.1786,-1.32706 -1.216,-1.42087 -1.1043,-2.76831 0.096,-1.15887 0.3137,-1.64486 1.2862,-2.87528 2.175,-2.75171 3.3714,-4.61481 3.9419,-6.13967 0.8439,-2.25547 1.1609,-5.44388 0.8201,-8.24653 -0.5543,-4.55886 -2.1113,-7.97984 -5.979,-13.13512 -1.4162,-1.88771 -3.1572,-4.28572 -3.8685,-5.32939 -2.3348,-3.42618 -4.5137,-8.85714 -5.4182,-13.50563 -0.5016,-2.57732 -0.6529,-9.40765 -0.2822,-12.72377 l 0.2145,-1.91823 h -2.0996 z"
         sodipodi:nodetypes="cssssssssssssscccsscsssssssssscsscccssssssssssssssssssscccssssssssssssssssssccc" /><path
         style="fill:#6e72aa;fill-opacity:0.741176;fill-rule:evenodd;stroke-width:1.60834;stroke-linecap:square;stroke-linejoin:round;paint-order:stroke fill markers"
         d="m -1038.8329,-298.19885 c -0.098,10e-4 -0.1755,0.0153 -0.229,0.0434 -0.2657,0.13959 -0.4832,0.3819 -0.4832,0.53847 0,0.15657 0.5923,1.25371 1.3163,2.43809 1.7692,2.89457 2.5235,4.42348 3.345,6.78357 2.1919,6.29684 2.5335,8.6492 3.5518,24.47395 0.4415,6.8602 0.9233,10.03786 2.0472,13.49375 1.5045,4.62592 4.7082,8.77576 8.2168,10.64432 1.8526,0.98665 2.4396,1.064 2.6697,0.35191 0.098,-0.30217 -0.103,-1.03602 -0.4889,-1.78594 -1.0399,-2.02148 -2.3099,-6.09513 -2.8776,-9.23147 -0.3575,-1.97525 -0.6116,-5.23259 -0.8032,-10.29757 -0.544,-14.39166 -1.1282,-18.98035 -3.1108,-24.42693 -1.6713,-4.59173 -4.5261,-8.59849 -7.6125,-10.68358 -1.7258,-1.16599 -4.5939,-2.35318 -5.5416,-2.34198 z"
         id="path73" /><path
         style="fill:#888cc5;fill-opacity:0.741176;fill-rule:evenodd;stroke-width:1.60834;stroke-linecap:square;stroke-linejoin:round;paint-order:stroke fill markers"
         d="m -1056.7943,-298.31306 c -0.622,-0.0343 -2.7659,0.81358 -4.6675,1.86191 -3.2897,1.81356 -6.2983,5.6283 -8.1211,10.29704 -2.3126,5.92394 -3.1585,11.23625 -3.498,21.96817 -0.3973,12.56173 -1.0852,16.89724 -3.5555,22.41414 -0.7456,1.66518 -0.8723,2.17267 -0.6174,2.47426 0.4568,0.54047 0.8087,0.48157 2.585,-0.43046 3.7246,-1.91221 7.0139,-6.39108 8.5378,-11.62565 0.8582,-2.94735 1.2845,-6.43808 1.9378,-15.875 0.6619,-9.55997 1.2517,-14.15357 2.3089,-17.98546 0.9229,-3.34525 2.5935,-7.16475 4.2674,-9.756 1.5636,-2.42055 1.731,-3.02061 0.9262,-3.32383 -0.027,-0.0103 -0.062,-0.0168 -0.1036,-0.0191 z"
         id="path72" /><path
         style="fill:#888cc5;fill-opacity:0.741176;fill-rule:evenodd;stroke-width:1.60834;stroke-linecap:square;stroke-linejoin:round;paint-order:stroke fill markers"
         d="m -1047.9602,-299.24323 c -2.6649,0 -4.4684,3.89538 -5.3291,11.50937 -0.8037,7.11058 -0.5403,29.79309 0.4273,36.77709 0.9787,7.06361 2.9195,11.77395 4.8513,11.77395 0.3271,0 0.9733,-0.34746 1.4363,-0.77204 2.3434,-2.14954 3.7767,-8.24459 4.3295,-18.41025 0.4184,-7.69113 0.349,-23.89339 -0.123,-28.73106 -0.8012,-8.21011 -2.6135,-12.14706 -5.5923,-12.14706 z"
         id="path69" /><path
         id="circle64"
         style="fill:#979bd3;fill-opacity:1;fill-rule:evenodd;stroke-width:1.59374;stroke-linecap:square;stroke-linejoin:round;paint-order:stroke fill markers"
         d="m -1047.8532,-303.27399 c -2.6402,-0.006 -5.2796,0.15403 -6.8079,0.48163 -7.3122,1.56733 -13.1983,4.78962 -18.5761,10.1694 -6.641,6.64334 -10.1691,14.71092 -13.5728,31.03687 -1.4739,7.06953 -2.005,11.90349 -1.6144,14.69574 0.5881,4.20403 2.1315,7.47784 4.8002,10.18387 1.9459,1.97313 3.411,2.92625 6.3247,4.11448 l 2.0009,0.81597 0.078,1.911 c 0.1626,3.98208 -1.9013,8.85737 -5.1031,12.05404 -1.9629,1.95975 -2.9759,2.6609 -8.9979,6.22805 -4.183,2.47778 -5.9784,3.79002 -8.262,6.03839 -6.1557,6.06088 -7.8213,13.226 -4.5155,19.42827 0.8843,1.65915 2.789,3.5476 3.8452,3.81269 1.4724,0.36955 2.7736,-1.13645 2.1911,-2.53577 -0.1555,-0.37342 -0.7085,-1.09453 -1.2294,-1.60248 -1.6653,-1.62398 -2.0691,-2.70843 -2.0701,-5.55884 -9e-4,-3.00342 0.4839,-4.64887 2.1048,-7.14375 2.2508,-3.46421 5.1439,-5.83825 11.7724,-9.65987 1.9646,-1.13264 4.4246,-2.69982 5.4673,-3.48248 5.5028,-4.13049 8.6615,-9.67717 9.2315,-16.21089 0.1028,-1.17913 0.2583,-2.27345 0.3881,-2.26808 22.483,0.92962 22.483,0.92962 44.9792,0.0606 0.1521,-0.006 0.3164,1.33962 0.4795,2.72335 0.9746,8.26627 5.2128,13.83328 14.596,19.17144 2.9096,1.65531 6.2638,3.85888 7.7153,5.06894 3.35156,2.79406 5.79351,6.70174 6.32057,10.11359 0.47567,3.07917 -0.18248,5.2527 -2.26601,7.48017 -0.72584,0.77597 -1.18649,1.51552 -1.18649,1.90531 0,0.86846 0.96592,2.0314 1.68723,2.0314 1.03801,0 3.02118,-1.4932 3.98529,-3.00034 3.84448,-6.00989 2.35062,-13.73354 -3.88504,-20.08508 -2.53095,-2.57795 -4.53475,-4.00326 -10.71765,-7.62434 -5.882,-3.44488 -8.3999,-5.85534 -10.1808,-9.74669 -1.3907,-3.03859 -2.1958,-7.39433 -1.6361,-8.85269 0.085,-0.22252 0.9183,-0.6587 1.8505,-0.96893 2.1041,-0.7002 5.1725,-2.68547 6.658,-4.30775 3.7231,-4.06581 5.2123,-9.09515 4.5569,-15.39131 -0.795,-7.63816 -3.9519,-20.76325 -6.5257,-27.13323 -2.2412,-5.54711 -5.5475,-10.51777 -9.4584,-14.2198 -2.3341,-2.20944 -6.0033,-4.82726 -8.6124,-6.14433 -2.0438,-1.0317 -6.3021,-2.48712 -9.0041,-3.07733 -1.53,-0.33419 -4.1707,-0.50538 -6.8109,-0.51108 z m -0.107,4.03076 c 2.9788,0 4.7907,3.93696 5.5919,12.14707 0.472,4.83767 0.5414,21.03993 0.123,28.73106 -0.5528,10.16566 -1.986,16.2607 -4.3294,18.41024 -0.463,0.42458 -1.109,0.77205 -1.4361,0.77205 -1.9318,0 -3.8727,-4.71035 -4.8514,-11.77396 -0.9676,-6.984 -1.2311,-29.6665 -0.4274,-36.77708 0.8607,-7.61399 2.6645,-11.50938 5.3294,-11.50938 z m -8.8341,0.93018 c 0.042,0.002 0.076,0.009 0.1034,0.0191 0.8048,0.30322 0.6375,0.90328 -0.9261,3.32383 -1.6739,2.59125 -3.3445,6.41074 -4.2674,9.75599 -1.0572,3.83189 -1.647,8.4255 -2.3089,17.98547 -0.6533,9.43692 -1.0797,12.92765 -1.9379,15.875 -1.5239,5.23457 -4.8134,9.71343 -8.538,11.62564 -0.8177,0.41987 -1.7245,0.98461 -2.1115,1.25574 -0.8064,0.56486 -1.5042,0.54764 -2.5032,-0.0615 -1.8058,-1.10121 -3.7662,-4.07729 -4.4726,-6.78925 -0.5159,-1.98096 -0.5167,-5.6326 0,-8.85476 0.5899,-3.69116 2.9357,-13.8711 4.1233,-17.89348 4.7598,-16.12181 15.4943,-22.90424 18.171,-24.37991 1.9016,-1.04833 4.0459,-1.8962 4.6679,-1.8619 z m 17.9612,0.1142 c 0.9477,-0.0112 3.691,1.38667 5.5418,2.34198 1.7029,0.87899 7.6799,6.15185 9.3973,8.28632 4.4892,5.57933 7.245,11.88894 10.3513,25.98446 2.8119,12.75913 2.5395,17.44206 -1.249,21.49222 -1.2058,1.28913 -2.3323,2.05569 -3.0205,2.05569 -0.1931,0 -0.6255,-0.19224 -0.9611,-0.42736 -0.3001,-0.21015 -1.4251,-0.85445 -2.295,-1.31775 -3.5086,-1.86856 -6.712,-6.01839 -8.2165,-10.64431 -1.1239,-3.45589 -1.606,-6.63355 -2.0475,-13.49375 -1.0183,-15.82475 -1.3598,-18.17712 -3.5517,-24.47396 -0.8215,-2.36009 -1.5758,-3.889 -3.345,-6.78357 -0.724,-1.18438 -1.3162,-2.28152 -1.3162,-2.43809 0,-0.15657 0.2175,-0.39888 0.4832,-0.53847 0.053,-0.0281 0.1309,-0.0424 0.2289,-0.0434 z m -24.5592,2.74609 c 0.073,0 0.1323,0.0595 0.1323,0.13229 0,0.0728 -0.06,0.13229 -0.1323,0.13229 -0.073,0 -0.1323,-0.0595 -0.1323,-0.13229 0,-0.0728 0.06,-0.13229 0.1323,-0.13229 z m 15.7427,91.33293 c -0.022,0.001 -0.045,0.006 -0.067,0.0134 -0.5531,0.18159 -1.4137,1.66122 -2.4004,4.12636 -2.7051,6.75878 -2.3237,12.51689 1.2372,18.68259 1.8944,3.28002 2.2473,4.12544 2.6112,6.24716 0.608,3.54558 -0.7529,7.86014 -3.4505,10.93835 -1.0934,1.24769 -1.3694,1.75011 -1.3694,2.49287 0,1.79772 1.371,2.40162 3.0696,1.35186 1.4561,-0.89992 2.9996,-2.88371 4.207,-5.40743 1.4015,-2.92977 1.7605,-4.44675 1.7652,-7.45329 0,-3.33945 -0.578,-5.43031 -2.6825,-9.61181 -1.0112,-2.00921 -2.0818,-4.37544 -2.3792,-5.25808 -0.6643,-1.97196 -0.7084,-4.78821 -0.1173,-7.49102 0.7642,-3.4944 0.503,-8.60627 -0.4015,-8.63099 h -5e-4 c -0.01,-2e-4 -0.014,-4.1e-4 -0.022,0 z"
         sodipodi:nodetypes="ssssssscsssssssssssssssssssssssssscssssssscssssssssssssssscsscssscsssssscsssssscsssssscssssssscssssssssss" /></g><g
       id="g13"
       transform="translate(-222.91145,284.498)" /><g
       id="g79"
       transform="translate(-47.073223,-73.966551)"><path
         id="circle73"
         style="fill:#262b5e;fill-opacity:1;fill-rule:evenodd;stroke-width:1.68;stroke-linecap:square;stroke-linejoin:round;paint-order:stroke fill markers"
         d="m -1047.9577,-332.84803 a 93.662498,93.662498 0 0 0 -93.6625,93.6625 93.662498,93.662498 0 0 0 93.6625,93.6625 93.662498,93.662498 0 0 0 93.66246,-93.6625 93.662498,93.662498 0 0 0 -93.66246,-93.6625 z m 0.021,21.90151 h 5e-4 c 2.6401,0.006 5.2806,0.17691 6.8105,0.51108 2.702,0.59021 6.9603,2.04563 9.0041,3.07733 2.6091,1.31707 6.2783,3.93489 8.6124,6.14433 3.9109,3.70203 7.2171,8.67269 9.4583,14.2198 2.5738,6.36998 5.7307,19.49507 6.5257,27.13323 0.6554,6.29616 -0.8337,11.3255 -4.5568,15.39131 -1.4855,1.62228 -4.5539,3.60754 -6.658,4.30774 -0.9322,0.31023 -1.7655,0.74642 -1.8505,0.96894 -0.5597,1.45836 0.2453,5.8141 1.636,8.85269 1.7809,3.89135 4.2988,6.30181 10.1808,9.74669 6.1829,3.62108 8.1868,5.04639 10.7177,7.62434 6.23566,6.35154 7.72952,14.07519 3.88504,20.08508 -0.96411,1.50714 -2.94728,3.00033 -3.98529,3.00033 -0.72131,0 -1.68723,-1.16294 -1.68723,-2.0314 0,-0.38979 0.46065,-1.12934 1.18649,-1.90531 2.08353,-2.22747 2.74168,-4.40099 2.26601,-7.48016 -0.52706,-3.41185 -2.96903,-7.31954 -6.32052,-10.1136 -1.4515,-1.21006 -4.8057,-3.41363 -7.7153,-5.06894 -9.3832,-5.33816 -13.6214,-10.90517 -14.596,-19.17144 -0.1631,-1.38373 -0.3275,-2.72935 -0.4796,-2.72335 -1.6401,0.0634 -3.1606,0.12212 -4.579,0.17622 l 0.109,3.59875 c 0.1779,5.88601 1.2902,9.71703 3.9429,13.57901 1.3884,2.0213 5.1506,5.76835 8.2915,8.25841 5.5368,4.38946 8.0784,7.19373 9.9043,10.92699 1.7587,3.59576 2.3705,8.6981 1.4686,12.24628 -0.9667,3.80264 -3.5505,7.47306 -6.7789,9.62887 -2.3196,1.54898 -4.0562,1.44751 -4.6007,-0.2682 -0.2971,-0.936 0.3638,-1.9216 2.0262,-3.02153 4.0659,-2.69013 6.1486,-7.0773 5.5077,-11.60291 -0.7716,-5.44873 -3.4378,-9.06521 -10.9647,-14.87196 -7.0875,-5.46774 -10.7069,-10.68404 -12.5538,-18.09243 -0.8369,-3.35871 -1.3284,-8.74029 -0.9803,-10.2092 -2.1152,0.0759 -3.9775,0.13717 -5.6823,0.18397 l -0.1504,1.34514 c -0.3707,3.31612 -0.2194,10.14645 0.2822,12.72377 0.9045,4.64849 3.0834,10.07946 5.4182,13.50564 0.7113,1.04367 2.4523,3.44168 3.8685,5.32939 3.8677,5.15528 5.4247,8.57625 5.979,13.13511 0.3408,2.80265 0.024,5.99106 -0.8201,8.24653 -0.5705,1.52486 -1.7669,3.38796 -3.9419,6.13967 -0.9725,1.23042 -1.1902,1.71641 -1.2862,2.87528 -0.1117,1.34744 -0.074,1.44125 1.1043,2.76831 0.671,0.75546 1.2165,1.51846 1.2165,1.6955 -0.01,0.87445 -0.3999,1.57099 -1.0754,1.9203 -0.8766,0.45337 -0.7082,0.45158 -1.7043,0.0176 -1.9961,-0.86974 -3.5667,-3.70156 -3.5667,-6.42959 0,-2.01745 0.7985,-3.7725 2.8107,-6.1774 2.585,-3.08961 3.5835,-6.55694 3.0292,-10.51925 -0.5615,-4.0132 -1.8663,-6.61097 -5.8937,-11.73313 -2.7722,-3.52566 -3.9493,-5.33779 -5.5872,-8.59896 -2.5031,-4.98389 -3.983,-10.43784 -4.3904,-16.18454 -0.2245,-3.16523 -0.042,-7.67755 0.3937,-9.77253 l 0.041,-0.19586 c -2.2756,0.0311 -4.3838,0.0284 -6.6585,-0.009 0.099,0.57929 0.2588,1.93364 0.3958,3.39049 0.5356,5.69689 -0.1827,11.55302 -2.1399,17.44958 -1.7728,5.34087 -3.6617,8.73278 -7.7722,13.95419 -2.9227,3.71275 -4.1239,5.61836 -5.1113,8.10906 -0.6633,1.67425 -0.7193,2.10948 -0.7193,5.52163 0,4.3875 0.1699,4.88556 2.8463,8.39328 2.5227,3.30623 2.9297,4.20159 2.9187,6.42338 -0.013,2.67435 -1.3701,5.25014 -3.2789,6.22391 -1.2682,0.64696 -1.622,0.65242 -2.3817,0.0372 -0.8634,-0.69911 -0.7658,-2.00468 0.2284,-3.05614 1.0882,-1.15094 1.3715,-1.80158 1.3715,-3.15072 0,-1.26239 -0.6486,-2.46092 -2.249,-4.1553 -1.3833,-1.46456 -2.4788,-3.40302 -3.1843,-5.63583 -0.5328,-1.68625 -0.6521,-2.61097 -0.6521,-5.05085 0,-5.58371 1.5413,-9.50276 6.1639,-15.67192 4.7172,-6.29527 6.1961,-8.90873 7.8414,-13.85806 1.4577,-4.38499 1.9565,-8.14678 1.772,-13.36146 -0.088,-2.47385 -0.2346,-4.88487 -0.3256,-5.35781 l -0.059,-0.30851 c -1.6676,-0.0505 -3.4863,-0.11553 -5.5449,-0.19482 l -0.1287,3.69228 c -0.1094,3.14129 -0.2901,4.59983 -0.8273,6.66677 -0.758,2.91673 -2.4493,6.65358 -4.1326,9.13226 -1.7032,2.5081 -5.8799,6.68281 -9.6945,9.68933 -6.23,4.91028 -8.8109,8.34705 -9.7503,12.98526 -0.3541,1.74812 -0.3869,2.51685 -0.1674,3.92637 0.5482,3.52165 2.6373,6.6589 5.9201,8.89093 1.928,1.31081 2.2958,2.58872 1.0914,3.79305 -0.8023,0.80234 -2.2589,0.49364 -4.2422,-0.89917 -2.8624,-2.01022 -4.874,-4.64045 -6.0942,-7.96799 -0.6558,-1.78807 -0.7227,-2.32413 -0.7327,-5.55108 -0.01,-3.06579 0.081,-3.83429 0.617,-5.42396 1.7316,-5.13651 4.511,-8.57725 11.006,-13.62604 9.189,-7.14288 12.408,-12.96442 12.436,-22.48958 l 0.01,-3.0055 c -1.4209,-0.0581 -2.9442,-0.12118 -4.5879,-0.18914 -0.1298,-0.005 -0.2852,1.08895 -0.388,2.26808 -0.57,6.53372 -3.7287,12.08041 -9.2315,16.2109 -1.0427,0.78266 -3.5028,2.34983 -5.4674,3.48247 -6.6285,3.82162 -9.5216,6.19567 -11.7724,9.65988 -1.6209,2.49488 -2.1057,4.14033 -2.1048,7.14375 10e-4,2.85041 0.4049,3.93485 2.0702,5.55883 0.5209,0.50795 1.0739,1.22907 1.2294,1.60249 0.5825,1.39932 -0.7187,2.90531 -2.1911,2.53576 -1.0562,-0.26509 -2.961,-2.15354 -3.8453,-3.81269 -3.3058,-6.20227 -1.6402,-13.36739 4.5155,-19.42827 2.2836,-2.24837 4.0791,-3.56061 8.2621,-6.03839 6.022,-3.56715 7.035,-4.26829 8.9979,-6.22804 3.2018,-3.19667 5.2656,-8.07197 5.103,-12.05405 l -0.078,-1.91099 -2.0009,-0.81597 c -2.9137,-1.18823 -4.3788,-2.14135 -6.3247,-4.11448 -2.6687,-2.70603 -4.2121,-5.97984 -4.8002,-10.18387 -0.3906,-2.79225 0.1409,-7.62622 1.6148,-14.69575 3.4037,-16.32595 6.9313,-24.39352 13.5723,-31.03686 5.3778,-5.37978 11.264,-8.60208 18.5762,-10.16941 1.5282,-0.32758 4.1678,-0.4876 6.8078,-0.48162 z m -0.1069,4.03076 c -2.6649,0 -4.4687,3.89538 -5.3294,11.50937 -0.8037,7.11058 -0.5398,29.79309 0.4278,36.77709 0.9787,7.06361 2.9196,11.77395 4.8514,11.77395 0.3271,0 0.9731,-0.34746 1.4361,-0.77204 2.3434,-2.14954 3.7762,-8.24459 4.329,-18.41025 0.4184,-7.69113 0.349,-23.89339 -0.123,-28.73106 -0.8012,-8.21011 -2.6131,-12.14706 -5.5919,-12.14706 z m -8.8341,0.93017 c -0.622,-0.0343 -2.7658,0.81358 -4.6674,1.86191 -0.42,0.23154 -1.0384,0.59383 -1.801,1.10225 0,0.009 0,0.0186 0,0.0284 0,0.0728 -0.06,0.13229 -0.1323,0.13229 -0.028,0 -0.054,-0.009 -0.075,-0.0238 -4.162,2.82362 -12.2186,9.77074 -16.1659,23.1407 -1.1876,4.02238 -3.5334,14.20232 -4.1233,17.89348 -0.5167,3.22216 -0.5159,6.8738 0,8.85476 0.7064,2.71196 2.6668,5.68804 4.4726,6.78925 0.999,0.60914 1.6968,0.62636 2.5032,0.0615 0.387,-0.27113 1.2938,-0.83587 2.1115,-1.25574 3.7246,-1.91221 7.0141,-6.39108 8.538,-11.62565 0.8582,-2.94735 1.2851,-6.43808 1.9384,-15.875 0.6619,-9.55997 1.2511,-14.15357 2.3083,-17.98546 0.9229,-3.34525 2.5936,-7.16475 4.2675,-9.756 1.5636,-2.42055 1.7313,-3.02061 0.9265,-3.32383 -0.027,-0.0101 -0.062,-0.0171 -0.1038,-0.0191 z m -6.673,3.10111 c 0.069,-0.0469 0.1376,-0.0923 0.2046,-0.13695 -0.013,-0.0592 -0.066,-0.10387 -0.1292,-0.10387 -0.072,0 -0.1323,0.0595 -0.1323,0.1323 0,0.045 0.022,0.0846 0.057,0.10852 z m 24.6341,-2.9869 c -0.098,10e-4 -0.1754,0.0153 -0.2284,0.0434 -0.2657,0.13959 -0.4837,0.3819 -0.4837,0.53847 0,0.15657 0.5922,1.25371 1.3162,2.43809 1.7692,2.89457 2.5236,4.42347 3.3451,6.78356 2.1919,6.29684 2.5334,8.64921 3.5517,24.47396 0.4415,6.8602 0.924,10.03786 2.0479,13.49375 1.5045,4.62592 4.7075,8.77575 8.2161,10.64431 0.8699,0.4633 1.9953,1.1076 2.2954,1.31775 0.3356,0.23512 0.7676,0.42737 0.9607,0.42737 0.6882,0 1.8147,-0.76656 3.0205,-2.05569 3.7885,-4.05016 4.0609,-8.7331 1.249,-21.49223 -3.1063,-14.09552 -5.8621,-20.40513 -10.3513,-25.98446 -1.7174,-2.13447 -7.694,-7.40733 -9.3969,-8.28632 -1.8508,-0.95531 -4.5946,-2.35317 -5.5423,-2.34197 z m -8.8165,94.07901 h 5e-4 c 0.01,-3.7e-4 0.012,-1.9e-4 0.022,0 h 5e-4 c 0.9045,0.0247 1.1657,5.1366 0.4015,8.631 -0.5911,2.70281 -0.547,5.51905 0.1173,7.49101 0.2974,0.88264 1.368,3.24887 2.3792,5.25808 2.1045,4.1815 2.6825,6.27237 2.6825,9.61182 0,3.00654 -0.3638,4.52352 -1.7653,7.45329 -1.2074,2.52372 -2.7508,4.5075 -4.2069,5.40742 -1.6986,1.04976 -3.0696,0.44587 -3.0696,-1.35185 0,-0.74276 0.276,-1.24519 1.3694,-2.49288 2.6976,-3.07821 4.0584,-7.39277 3.4504,-10.93835 -0.3639,-2.12172 -0.7168,-2.96714 -2.6112,-6.24716 -3.5609,-6.1657 -3.9422,-11.9238 -1.2371,-18.68258 0.9867,-2.46514 1.8473,-3.94477 2.4004,-4.12636 0.022,-0.007 0.045,-0.0124 0.067,-0.0134 z"
         inkscape:export-filename="favicon.png"
         inkscape:export-xdpi="96"
         inkscape:export-ydpi="96" /></g><g
       id="g93"
       transform="translate(-493.42266,-82.960484)"
       inkscape:export-filename="cteno2.png"
       inkscape:export-xdpi="116.33916"
       inkscape:export-ydpi="116.33916"><path
         id="path89"
         style="fill:#f1effe;fill-opacity:0.741176;fill-rule:evenodd;stroke-width:1.59374;stroke-linecap:square;stroke-linejoin:round;paint-order:stroke fill markers"
         d="m -1030.0181,-231.18415 -2.1528,0.12196 c -1.1841,0.067 -2.2402,0.25495 -2.3471,0.41754 -0.5383,0.81867 -0.037,6.85023 0.8717,10.49704 1.8469,7.40839 5.4663,12.62469 12.5538,18.09243 7.5269,5.80675 10.1931,9.42323 10.9647,14.87196 0.6409,4.52561 -1.4418,8.91278 -5.5077,11.60291 -1.6624,1.09993 -2.3233,2.08553 -2.0262,3.02153 0.5445,1.71571 2.2811,1.81718 4.6007,0.2682 3.2284,-2.15581 5.8123,-5.82623 6.779,-9.62887 0.9019,-3.54818 0.29,-8.65052 -1.4687,-12.24628 -1.8259,-3.73326 -4.3675,-6.53753 -9.9043,-10.92699 -3.1409,-2.49006 -6.9031,-6.23711 -8.2915,-8.25841 -2.6527,-3.86198 -3.765,-7.693 -3.9429,-13.57901 z m -35.7911,0.0413 -0.011,3.57188 c -0.028,9.52516 -3.2469,15.3467 -12.4359,22.48958 -6.495,5.04879 -9.2744,8.48953 -11.006,13.62604 -0.536,1.58967 -0.6231,2.35817 -0.6171,5.42396 0.01,3.22695 0.077,3.76301 0.7328,5.55108 1.2202,3.32754 3.2318,5.95777 6.0942,7.96799 1.9833,1.39281 3.4398,1.70151 4.2421,0.89917 1.2044,-1.20433 0.8366,-2.48224 -1.0914,-3.79305 -3.2828,-2.23203 -5.3718,-5.36928 -5.92,-8.89093 -0.2195,-1.40952 -0.1867,-2.17825 0.1674,-3.92637 0.9394,-4.63821 3.5203,-8.07498 9.7503,-12.98526 3.8146,-3.00652 7.9913,-7.18123 9.6945,-9.68933 1.6833,-2.47868 3.3746,-6.21553 4.1326,-9.13226 0.5372,-2.06694 0.7179,-3.52548 0.8273,-6.66677 l 0.1401,-4.02095 -0.63,-0.13901 c -0.3466,-0.0764 -1.4043,-0.17201 -2.3502,-0.21239 z m 10.1266,0.39688 0.1658,0.85989 c 0.091,0.47294 0.238,2.88397 0.3256,5.35782 0.1845,5.21468 -0.3143,8.97646 -1.772,13.36145 -1.6453,4.94933 -3.1242,7.5628 -7.8414,13.85807 -4.6226,6.16916 -6.1639,10.08821 -6.1639,15.67192 0,2.43988 0.1193,3.3646 0.6521,5.05085 0.7055,2.23281 1.801,4.17127 3.1843,5.63583 1.6004,1.69438 2.249,2.89291 2.249,4.1553 0,1.34914 -0.2833,1.99978 -1.3715,3.15072 -0.9942,1.05146 -1.0918,2.35703 -0.2284,3.05614 0.7597,0.61521 1.1135,0.60976 2.3817,-0.0372 1.9088,-0.97377 3.2658,-3.54956 3.2789,-6.22391 0.011,-2.22179 -0.396,-3.11715 -2.9187,-6.42338 -2.6764,-3.50772 -2.845,-4.00579 -2.8463,-8.39329 0,-3.41215 0.056,-3.84737 0.7193,-5.52162 0.9874,-2.4907 2.1886,-4.39632 5.1113,-8.10907 4.1105,-5.22141 5.9994,-8.61332 7.7722,-13.95419 1.9572,-5.89656 2.6755,-11.75269 2.1399,-17.44958 -0.1698,-1.80587 -0.3748,-3.45471 -0.4553,-3.66437 -0.1105,-0.28794 -0.6642,-0.38138 -2.2644,-0.38138 z m 11.2385,0 -0.1788,0.85989 c -0.4361,2.09498 -0.6182,6.6073 -0.3937,9.77253 0.4074,5.7467 1.8873,11.20066 4.3904,16.18455 1.6379,3.26117 2.8151,5.07329 5.5873,8.59895 4.0274,5.12216 5.3322,7.71994 5.8937,11.73314 0.5543,3.96231 -0.4443,7.42964 -3.0293,10.51925 -2.0122,2.4049 -2.8107,4.15995 -2.8107,6.1774 0,2.72803 1.5706,5.55985 3.5667,6.42959 0.9961,0.43401 0.8277,0.43577 1.7043,-0.0176 0.6755,-0.34931 1.0656,-1.04585 1.0754,-1.9203 0,-0.17704 -0.5455,-0.94004 -1.2165,-1.6955 -1.1786,-1.32706 -1.216,-1.42087 -1.1043,-2.76831 0.096,-1.15887 0.3137,-1.64486 1.2862,-2.87528 2.175,-2.75171 3.3714,-4.61481 3.9419,-6.13967 0.8439,-2.25547 1.1609,-5.44388 0.8201,-8.24653 -0.5543,-4.55886 -2.1113,-7.97984 -5.979,-13.13512 -1.4162,-1.88771 -3.1572,-4.28572 -3.8685,-5.32939 -2.3348,-3.42618 -4.5137,-8.85714 -5.4182,-13.50563 -0.5016,-2.57732 -0.6529,-9.40765 -0.2822,-12.72377 l 0.2145,-1.91823 h -2.0996 z"
         sodipodi:nodetypes="cssssssssssssscccsscsssssssssscsscccssssssssssssssssssscccssssssssssssssssssccc" /><path
         style="fill:#6e72aa;fill-opacity:0.741176;fill-rule:evenodd;stroke-width:1.60834;stroke-linecap:square;stroke-linejoin:round;paint-order:stroke fill markers"
         d="m -1038.8329,-298.19885 c -0.098,10e-4 -0.1755,0.0153 -0.229,0.0434 -0.2657,0.13959 -0.4832,0.3819 -0.4832,0.53847 0,0.15657 0.5923,1.25371 1.3163,2.43809 1.7692,2.89457 2.5235,4.42348 3.345,6.78357 2.1919,6.29684 2.5335,8.6492 3.5518,24.47395 0.4415,6.8602 0.9233,10.03786 2.0472,13.49375 1.5045,4.62592 4.7082,8.77576 8.2168,10.64432 1.8526,0.98665 2.4396,1.064 2.6697,0.35191 0.098,-0.30217 -0.103,-1.03602 -0.4889,-1.78594 -1.0399,-2.02148 -2.3099,-6.09513 -2.8776,-9.23147 -0.3575,-1.97525 -0.6116,-5.23259 -0.8032,-10.29757 -0.544,-14.39166 -1.1282,-18.98035 -3.1108,-24.42693 -1.6713,-4.59173 -4.5261,-8.59849 -7.6125,-10.68358 -1.7258,-1.16599 -4.5939,-2.35318 -5.5416,-2.34198 z"
         id="path90" /><path
         style="fill:#888cc5;fill-opacity:0.741176;fill-rule:evenodd;stroke-width:1.60834;stroke-linecap:square;stroke-linejoin:round;paint-order:stroke fill markers"
         d="m -1056.7943,-298.31306 c -0.622,-0.0343 -2.7659,0.81358 -4.6675,1.86191 -3.2897,1.81356 -6.2983,5.6283 -8.1211,10.29704 -2.3126,5.92394 -3.1585,11.23625 -3.498,21.96817 -0.3973,12.56173 -1.0852,16.89724 -3.5555,22.41414 -0.7456,1.66518 -0.8723,2.17267 -0.6174,2.47426 0.4568,0.54047 0.8087,0.48157 2.585,-0.43046 3.7246,-1.91221 7.0139,-6.39108 8.5378,-11.62565 0.8582,-2.94735 1.2845,-6.43808 1.9378,-15.875 0.6619,-9.55997 1.2517,-14.15357 2.3089,-17.98546 0.9229,-3.34525 2.5935,-7.16475 4.2674,-9.756 1.5636,-2.42055 1.731,-3.02061 0.9262,-3.32383 -0.027,-0.0103 -0.062,-0.0168 -0.1036,-0.0191 z"
         id="path91" /><path
         style="fill:#888cc5;fill-opacity:0.741176;fill-rule:evenodd;stroke-width:1.60834;stroke-linecap:square;stroke-linejoin:round;paint-order:stroke fill markers"
         d="m -1047.9602,-299.24323 c -2.6649,0 -4.4684,3.89538 -5.3291,11.50937 -0.8037,7.11058 -0.5403,29.79309 0.4273,36.77709 0.9787,7.06361 2.9195,11.77395 4.8513,11.77395 0.3271,0 0.9733,-0.34746 1.4363,-0.77204 2.3434,-2.14954 3.7767,-8.24459 4.3295,-18.41025 0.4184,-7.69113 0.349,-23.89339 -0.123,-28.73106 -0.8012,-8.21011 -2.6135,-12.14706 -5.5923,-12.14706 z"
         id="path92" /><path
         id="path93"
         style="fill:#979bd3;fill-opacity:1;fill-rule:evenodd;stroke-width:1.59374;stroke-linecap:square;stroke-linejoin:round;paint-order:stroke fill markers"
         d="m -1047.8532,-303.27399 c -2.6402,-0.006 -5.2796,0.15403 -6.8079,0.48163 -7.3122,1.56733 -13.1983,4.78962 -18.5761,10.1694 -6.641,6.64334 -10.1691,14.71092 -13.5728,31.03687 -1.4739,7.06953 -2.005,11.90349 -1.6144,14.69574 0.5881,4.20403 2.1315,7.47784 4.8002,10.18387 1.9459,1.97313 3.411,2.92625 6.3247,4.11448 l 2.0009,0.81597 0.078,1.911 c 0.1626,3.98208 -1.9013,8.85737 -5.1031,12.05404 -1.9629,1.95975 -2.9759,2.6609 -8.9979,6.22805 -4.183,2.47778 -5.9784,3.79002 -8.262,6.03839 -6.1557,6.06088 -7.8213,13.226 -4.5155,19.42827 0.8843,1.65915 2.789,3.5476 3.8452,3.81269 1.4724,0.36955 2.7736,-1.13645 2.1911,-2.53577 -0.1555,-0.37342 -0.7085,-1.09453 -1.2294,-1.60248 -1.6653,-1.62398 -2.0691,-2.70843 -2.0701,-5.55884 -9e-4,-3.00342 0.4839,-4.64887 2.1048,-7.14375 2.2508,-3.46421 5.1439,-5.83825 11.7724,-9.65987 1.9646,-1.13264 4.4246,-2.69982 5.4673,-3.48248 5.5028,-4.13049 8.6615,-9.67717 9.2315,-16.21089 0.1028,-1.17913 0.2583,-2.27345 0.3881,-2.26808 22.483,0.92962 22.483,0.92962 44.9792,0.0606 0.1521,-0.006 0.3164,1.33962 0.4795,2.72335 0.9746,8.26627 5.2128,13.83328 14.596,19.17144 2.9096,1.65531 6.2638,3.85888 7.7153,5.06894 3.35156,2.79406 5.79351,6.70174 6.32057,10.11359 0.47567,3.07917 -0.18248,5.2527 -2.26601,7.48017 -0.72584,0.77597 -1.18649,1.51552 -1.18649,1.90531 0,0.86846 0.96592,2.0314 1.68723,2.0314 1.03801,0 3.02118,-1.4932 3.98529,-3.00034 3.84448,-6.00989 2.35062,-13.73354 -3.88504,-20.08508 -2.53095,-2.57795 -4.53475,-4.00326 -10.71765,-7.62434 -5.882,-3.44488 -8.3999,-5.85534 -10.1808,-9.74669 -1.3907,-3.03859 -2.1958,-7.39433 -1.6361,-8.85269 0.085,-0.22252 0.9183,-0.6587 1.8505,-0.96893 2.1041,-0.7002 5.1725,-2.68547 6.658,-4.30775 3.7231,-4.06581 5.2123,-9.09515 4.5569,-15.39131 -0.795,-7.63816 -3.9519,-20.76325 -6.5257,-27.13323 -2.2412,-5.54711 -5.5475,-10.51777 -9.4584,-14.2198 -2.3341,-2.20944 -6.0033,-4.82726 -8.6124,-6.14433 -2.0438,-1.0317 -6.3021,-2.48712 -9.0041,-3.07733 -1.53,-0.33419 -4.1707,-0.50538 -6.8109,-0.51108 z m -0.107,4.03076 c 2.9788,0 4.7907,3.93696 5.5919,12.14707 0.472,4.83767 0.5414,21.03993 0.123,28.73106 -0.5528,10.16566 -1.986,16.2607 -4.3294,18.41024 -0.463,0.42458 -1.109,0.77205 -1.4361,0.77205 -1.9318,0 -3.8727,-4.71035 -4.8514,-11.77396 -0.9676,-6.984 -1.2311,-29.6665 -0.4274,-36.77708 0.8607,-7.61399 2.6645,-11.50938 5.3294,-11.50938 z m -8.8341,0.93018 c 0.042,0.002 0.076,0.009 0.1034,0.0191 0.8048,0.30322 0.6375,0.90328 -0.9261,3.32383 -1.6739,2.59125 -3.3445,6.41074 -4.2674,9.75599 -1.0572,3.83189 -1.647,8.4255 -2.3089,17.98547 -0.6533,9.43692 -1.0797,12.92765 -1.9379,15.875 -1.5239,5.23457 -4.8134,9.71343 -8.538,11.62564 -0.8177,0.41987 -1.7245,0.98461 -2.1115,1.25574 -0.8064,0.56486 -1.5042,0.54764 -2.5032,-0.0615 -1.8058,-1.10121 -3.7662,-4.07729 -4.4726,-6.78925 -0.5159,-1.98096 -0.5167,-5.6326 0,-8.85476 0.5899,-3.69116 2.9357,-13.8711 4.1233,-17.89348 4.7598,-16.12181 15.4943,-22.90424 18.171,-24.37991 1.9016,-1.04833 4.0459,-1.8962 4.6679,-1.8619 z m 17.9612,0.1142 c 0.9477,-0.0112 3.691,1.38667 5.5418,2.34198 1.7029,0.87899 7.6799,6.15185 9.3973,8.28632 4.4892,5.57933 7.245,11.88894 10.3513,25.98446 2.8119,12.75913 2.5395,17.44206 -1.249,21.49222 -1.2058,1.28913 -2.3323,2.05569 -3.0205,2.05569 -0.1931,0 -0.6255,-0.19224 -0.9611,-0.42736 -0.3001,-0.21015 -1.4251,-0.85445 -2.295,-1.31775 -3.5086,-1.86856 -6.712,-6.01839 -8.2165,-10.64431 -1.1239,-3.45589 -1.606,-6.63355 -2.0475,-13.49375 -1.0183,-15.82475 -1.3598,-18.17712 -3.5517,-24.47396 -0.8215,-2.36009 -1.5758,-3.889 -3.345,-6.78357 -0.724,-1.18438 -1.3162,-2.28152 -1.3162,-2.43809 0,-0.15657 0.2175,-0.39888 0.4832,-0.53847 0.053,-0.0281 0.1309,-0.0424 0.2289,-0.0434 z m -24.5592,2.74609 c 0.073,0 0.1323,0.0595 0.1323,0.13229 0,0.0728 -0.06,0.13229 -0.1323,0.13229 -0.073,0 -0.1323,-0.0595 -0.1323,-0.13229 0,-0.0728 0.06,-0.13229 0.1323,-0.13229 z m 15.7427,91.33293 c -0.022,0.001 -0.045,0.006 -0.067,0.0134 -0.5531,0.18159 -1.4137,1.66122 -2.4004,4.12636 -2.7051,6.75878 -2.3237,12.51689 1.2372,18.68259 1.8944,3.28002 2.2473,4.12544 2.6112,6.24716 0.608,3.54558 -0.7529,7.86014 -3.4505,10.93835 -1.0934,1.24769 -1.3694,1.75011 -1.3694,2.49287 0,1.79772 1.371,2.40162 3.0696,1.35186 1.4561,-0.89992 2.9996,-2.88371 4.207,-5.40743 1.4015,-2.92977 1.7605,-4.44675 1.7652,-7.45329 0,-3.33945 -0.578,-5.43031 -2.6825,-9.61181 -1.0112,-2.00921 -2.0818,-4.37544 -2.3792,-5.25808 -0.6643,-1.97196 -0.7084,-4.78821 -0.1173,-7.49102 0.7642,-3.4944 0.503,-8.60627 -0.4015,-8.63099 h -5e-4 c -0.01,-2e-4 -0.014,-4.1e-4 -0.022,0 z"
         sodipodi:nodetypes="ssssssscsssssssssssssssssssssssssscssssssscssssssssssssssscsscssscsssssscsssssscsssssscssssssscssssssssss" /></g></g></svg>
