<?xml version="1.0" encoding="UTF-8" standalone="no"?>
<!-- Created with Inkscape (http://www.inkscape.org/) -->

<svg
   width="51.00005mm"
   height="103.31916mm"
   viewBox="0 0 51.000048 103.31916"
   version="1.1"
   id="svg1"
   xml:space="preserve"
   sodipodi:docname="dac.svg"
   inkscape:version="1.4.2 (ebf0e940, 2025-05-08)"
   xmlns:inkscape="http://www.inkscape.org/namespaces/inkscape"
   xmlns:sodipodi="http://sodipodi.sourceforge.net/DTD/sodipodi-0.dtd"
   xmlns="http://www.w3.org/2000/svg"
   xmlns:svg="http://www.w3.org/2000/svg"><sodipodi:namedview
     id="namedview1"
     pagecolor="#ffffff"
     bordercolor="#000000"
     borderopacity="0.25"
     inkscape:showpageshadow="2"
     inkscape:pageopacity="0.0"
     inkscape:pagecheckerboard="0"
     inkscape:deskcolor="#797979"
     inkscape:document-units="mm"
     showgrid="false"
     showguides="true"
     inkscape:zoom="1.2711951"
     inkscape:cx="25.173161"
     inkscape:cy="195.87866"
     inkscape:window-width="2384"
     inkscape:window-height="1371"
     inkscape:window-x="1371"
     inkscape:window-y="25"
     inkscape:window-maximized="0"
     inkscape:current-layer="g86"><inkscape:grid
       id="grid1"
       units="mm"
       originx="547.98248"
       originy="-1071.8192"
       spacingx="0.99999998"
       spacingy="1"
       empcolor="#0099e5"
       empopacity="0.30196078"
       color="#0099e5"
       opacity="0.14901961"
       empspacing="5"
       enabled="true"
       visible="false" /></sodipodi:namedview><defs
     id="defs1" /><g
     inkscape:label="Layer 1"
     inkscape:groupmode="layer"
     id="layer1"
     transform="translate(547.98248,-1071.8192)"><g
       id="g281"
       transform="rotate(180,34.665114,341.3709)"><g
         id="g191"
         transform="translate(8.3867273,178.00957)" /></g><g
       id="g540"
       transform="matrix(0.8090083,0,0,0.889878,-89.218707,21.16354)" /><g
       id="g1"
       transform="rotate(-90,-179.83507,315.22888)"
       style="stroke:#cccccc" /><g
       id="g69"
       transform="translate(-0.31667328,0.83252488)"><g
         id="g14"
         transform="translate(-48.246283,692.41297)" /><g
         id="g86"
         transform="translate(-1.040687,-210.75465)"><g
           id="g56"
           transform="translate(-112.75147,227.92063)"><path
             id="path9"
             style="fill:#ececec;fill-opacity:1;fill-rule:evenodd;stroke:#cccccc;stroke-width:1;stroke-linecap:square;stroke-linejoin:round;stroke-dasharray:none;paint-order:stroke fill markers"
             d="m -447.99956,163.02018 c -2.77075,0 -5.00124,2.23049 -5.00124,5.00124 v 61.44535 c 0,2.77075 2.23049,5.00124 5.00124,5.00124 h 39.99756 c 2.77076,0 5.00125,-2.23049 5.00125,-5.00124 v -61.44535 c 0,-2.77075 -2.23049,-5.00124 -5.00125,-5.00124 z m 2.99879,19.99981 a 4.9999976,4.9999976 0 0 1 5.00021,5.00021 4.9999976,4.9999976 0 0 1 -5.00021,4.9997 4.9999976,4.9999976 0 0 1 -5.00022,-4.9997 4.9999976,4.9999976 0 0 1 5.00022,-5.00021 z m 33.99999,0 a 4.9999976,4.9999976 0 0 1 5.00021,5.00021 4.9999976,4.9999976 0 0 1 -5.00021,4.9997 4.9999976,4.9999976 0 0 1 -5.00021,-4.9997 4.9999976,4.9999976 0 0 1 5.00021,-5.00021 z"
             transform="translate(19.627155,891.3005)" /><path
             id="path10"
             style="fill:#cccccc;fill-opacity:1;fill-rule:evenodd;stroke-width:0;stroke-linecap:square;stroke-linejoin:round;paint-order:stroke fill markers"
             d="m -411.00078,181.02011 a 6.9999986,6.9999986 0 0 0 -7.00009,7.00009 6.9999986,6.9999986 0 0 0 7.00009,7.00009 h 8.00003 v -14.00018 h -7.98556 z m 0,1.99988 a 4.9999976,4.9999976 0 0 1 5.00021,5.00021 4.9999976,4.9999976 0 0 1 -5.00021,4.9997 4.9999976,4.9999976 0 0 1 -5.00021,-4.9997 4.9999976,4.9999976 0 0 1 5.00021,-5.00021 z"
             transform="translate(19.627155,891.3005)" /><path
             id="path11"
             style="fill:#cccccc;fill-opacity:1;fill-rule:evenodd;stroke-width:0;stroke-linecap:square;stroke-linejoin:round;paint-order:stroke fill markers"
             d="m -453.0008,181.02011 v 14.00018 h 8.00003 a 6.9999986,6.9999986 0 0 0 7.00009,-7.00009 6.9999986,6.9999986 0 0 0 -7.00009,-7.00009 h -0.0145 z m 8.00003,1.99988 a 4.9999976,4.9999976 0 0 1 5.00021,5.00021 4.9999976,4.9999976 0 0 1 -5.00021,4.9997 4.9999976,4.9999976 0 0 1 -5.00022,-4.9997 4.9999976,4.9999976 0 0 1 5.00022,-5.00021 z"
             transform="translate(19.627155,891.3005)" /><g
             id="g33"
             transform="matrix(-1.6376375,0,0,-2.0264509,-765.3748,1618.1302)"><g
               id="g32"><rect
                 style="fill:#ff9955;fill-opacity:1;fill-rule:evenodd;stroke:none;stroke-width:0.010216;paint-order:fill markers stroke"
                 id="rect12"
                 width="23.991852"
                 height="11.910857"
                 x="-229.99361"
                 y="243.01772"
                 ry="0" /><rect
                 style="fill:#ff7f2a;fill-opacity:1;fill-rule:evenodd;stroke:none;stroke-width:0.0049446;paint-order:fill markers stroke"
                 id="rect13"
                 width="23.991852"
                 height="2.7902513"
                 x="-229.99361"
                 y="253.53345"
                 ry="1.3951256" /><rect
                 style="fill:#aa4400;fill-opacity:1;fill-rule:evenodd;stroke:none;stroke-width:0.00210823;paint-order:fill markers stroke"
                 id="rect21"
                 width="4.5999284"
                 height="0.85726452"
                 x="-217.33395"
                 y="254.55016"
                 ry="0.121225" /><rect
                 style="fill:#aa4400;fill-opacity:1;fill-rule:evenodd;stroke:none;stroke-width:0.00210823;paint-order:fill markers stroke"
                 id="rect29"
                 width="4.5999284"
                 height="0.85726452"
                 x="-229.18867"
                 y="254.55014"
                 ry="0.121225" /><rect
                 style="fill:#aa4400;fill-opacity:1;fill-rule:evenodd;stroke:none;stroke-width:0.00210823;paint-order:fill markers stroke"
                 id="rect30"
                 width="4.5999284"
                 height="0.85726452"
                 x="-223.26132"
                 y="254.55016"
                 ry="0.121225" /><rect
                 style="fill:#aa4400;fill-opacity:1;fill-rule:evenodd;stroke:none;stroke-width:0.00210823;paint-order:fill markers stroke"
                 id="rect31"
                 width="4.5999284"
                 height="0.85726452"
                 x="-211.4066"
                 y="254.55016"
                 ry="0.121225" /><rect
                 style="fill:#ff7f2a;fill-opacity:1;fill-rule:evenodd;stroke:none;stroke-width:0.00681207;paint-order:fill markers stroke"
                 id="rect32"
                 width="23.991852"
                 height="5.2958889"
                 x="-229.99361"
                 y="241.62259"
                 ry="1.3449163" /><rect
                 style="fill:#ff7f2a;fill-opacity:1;fill-rule:evenodd;stroke:none;stroke-width:0.00681207;paint-order:fill markers stroke"
                 id="rect60"
                 width="23.991852"
                 height="5.2958889"
                 x="-229.99361"
                 y="236.06558"
                 ry="1.3449163" /><g
                 id="g62"
                 transform="translate(0,0.64263439)"><ellipse
                   style="fill:#f9f9f9;fill-opacity:1;fill-rule:evenodd;stroke-width:0.00548938;paint-order:fill markers stroke"
                   id="path60"
                   cx="209.10664"
                   cy="-238.07089"
                   transform="scale(-1)"
                   rx="1.6401378"
                   ry="1.325446" /><ellipse
                   style="fill:#f9f9f9;fill-opacity:1;fill-rule:evenodd;stroke-width:0.00548938;paint-order:fill markers stroke"
                   id="ellipse60"
                   cx="226.88872"
                   cy="-238.07089"
                   transform="scale(-1)"
                   rx="1.6401378"
                   ry="1.325446" /><ellipse
                   style="fill:#f9f9f9;fill-opacity:1;fill-rule:evenodd;stroke-width:0.00548938;paint-order:fill markers stroke"
                   id="ellipse61"
                   cx="220.96136"
                   cy="-238.07089"
                   transform="scale(-1)"
                   rx="1.6401378"
                   ry="1.325446" /><ellipse
                   style="fill:#f9f9f9;fill-opacity:1;fill-rule:evenodd;stroke-width:0.00548938;paint-order:fill markers stroke"
                   id="ellipse62"
                   cx="215.034"
                   cy="-238.07089"
                   transform="scale(-1)"
                   rx="1.6401378"
                   ry="1.325446" /></g></g></g><g
             id="g55"
             transform="rotate(180,-153.93678,619.66038)"><rect
               style="opacity:1;fill:#8b2c3a;fill-opacity:1;fill-rule:evenodd;stroke-width:0;stroke-linecap:square;stroke-linejoin:round;paint-order:stroke fill markers"
               id="rect47"
               width="11.031602"
               height="3.9999957"
               x="95"
               y="178" /><g
               id="g54"
               transform="matrix(1,0,0,1.3333394,0.49999809,-60.334418)"
               style="fill:#ffeeaa"><rect
                 style="opacity:1;fill:#ffeeaa;fill-opacity:1;fill-rule:evenodd;stroke-width:0;stroke-linecap:square;stroke-linejoin:round;paint-order:stroke fill markers"
                 id="rect48"
                 width="2"
                 height="2.9999998"
                 x="97.000008"
                 y="177.99998"
                 ry="0.75001168" /><rect
                 style="opacity:1;fill:#ffeeaa;fill-opacity:1;fill-rule:evenodd;stroke-width:0;stroke-linecap:square;stroke-linejoin:round;paint-order:stroke fill markers"
                 id="rect54"
                 width="2"
                 height="2.9999998"
                 x="101"
                 y="178"
                 ry="0.74999642" /></g><path
               id="path54"
               style="opacity:1;fill:#c44156;fill-opacity:1;fill-rule:evenodd;stroke-width:0;stroke-linecap:square;stroke-linejoin:round;paint-order:stroke fill markers"
               d="m 91.00013,170.9999 c -0.553997,0 -0.999939,0.44594 -0.999939,0.99994 v 5.00021 7.00009 c 0,0.554 0.445942,0.99994 0.999939,0.99994 h 2.999817 c 0.553997,0 0.999939,-0.44594 0.999939,-0.99994 v -6.00015 h 11.000364 v 6.00015 c 0,0.554 0.44594,0.99994 0.99994,0.99994 H 110 c 0.554,0 0.99994,-0.44594 0.99994,-0.99994 v -6.99751 c 1e-5,-9.3e-4 0,-0.002 0,-0.003 v -5.00021 c 0,-0.17313 -0.0436,-0.33578 -0.1204,-0.47749 -0.0307,-0.0567 -0.0668,-0.10982 -0.10749,-0.15917 -0.18312,-0.22207 -0.46042,-0.36328 -0.77205,-0.36328 h -2.99981 z" /></g></g><g
           id="g70"
           transform="matrix(0.52851735,0,0,0.52851735,-419.92383,1237.6892)"
           style="fill:#b3b3b3"><rect
             style="fill:#b3b3b3;fill-opacity:1;fill-rule:evenodd;stroke:none;stroke-width:2.5;stroke-linecap:butt;stroke-linejoin:miter;stroke-dasharray:none;stroke-opacity:1;paint-order:fill markers stroke"
             id="rect69"
             width="1.1004788"
             height="7.7530198"
             x="218.48051"
             y="-239.66901"
             ry="0.55023938"
             transform="scale(-1)" /><rect
             style="fill:#b3b3b3;fill-opacity:1;fill-rule:evenodd;stroke:none;stroke-width:2.5;stroke-linecap:butt;stroke-linejoin:miter;stroke-dasharray:none;stroke-opacity:1;paint-order:fill markers stroke"
             id="rect70"
             width="1.1004788"
             height="7.7530198"
             x="-236.34274"
             y="-222.90727"
             ry="0.55023938"
             transform="rotate(-90)" /></g><g
           id="g72"
           transform="matrix(0.52851735,0,0,0.52851735,-410.21698,1237.6892)"
           style="fill:#b3b3b3"><rect
             style="fill:#b3b3b3;fill-opacity:1;fill-rule:evenodd;stroke:none;stroke-width:2.5;stroke-linecap:butt;stroke-linejoin:miter;stroke-dasharray:none;stroke-opacity:1;paint-order:fill markers stroke"
             id="rect71"
             width="1.1004788"
             height="7.7530198"
             x="218.48051"
             y="-239.66901"
             ry="0.55023938"
             transform="scale(-1)" /><rect
             style="fill:#b3b3b3;fill-opacity:1;fill-rule:evenodd;stroke:none;stroke-width:2.5;stroke-linecap:butt;stroke-linejoin:miter;stroke-dasharray:none;stroke-opacity:1;paint-order:fill markers stroke"
             id="rect72"
             width="1.1004788"
             height="7.7530198"
             x="-236.34274"
             y="-222.90727"
             ry="0.55023938"
             transform="rotate(-90)" /></g><g
           id="g74"
           transform="matrix(0.52851735,0,0,0.52851735,-400.5101,1237.6892)"
           style="fill:#b3b3b3"><rect
             style="fill:#b3b3b3;fill-opacity:1;fill-rule:evenodd;stroke:none;stroke-width:2.5;stroke-linecap:butt;stroke-linejoin:miter;stroke-dasharray:none;stroke-opacity:1;paint-order:fill markers stroke"
             id="rect73"
             width="1.1004788"
             height="7.7530198"
             x="218.48051"
             y="-239.66901"
             ry="0.55023938"
             transform="scale(-1)" /><rect
             style="fill:#b3b3b3;fill-opacity:1;fill-rule:evenodd;stroke:none;stroke-width:2.5;stroke-linecap:butt;stroke-linejoin:miter;stroke-dasharray:none;stroke-opacity:1;paint-order:fill markers stroke"
             id="rect74"
             width="1.1004788"
             height="7.7530198"
             x="-236.34274"
             y="-222.90727"
             ry="0.55023938"
             transform="rotate(-90)" /></g><g
           id="g76"
           transform="matrix(0.52851735,0,0,0.52851735,-390.80325,1237.6892)"
           style="fill:#b3b3b3"><rect
             style="fill:#b3b3b3;fill-opacity:1;fill-rule:evenodd;stroke:none;stroke-width:2.5;stroke-linecap:butt;stroke-linejoin:miter;stroke-dasharray:none;stroke-opacity:1;paint-order:fill markers stroke"
             id="rect75"
             width="1.1004788"
             height="7.7530198"
             x="218.48051"
             y="-239.66901"
             ry="0.55023938"
             transform="scale(-1)" /><rect
             style="fill:#b3b3b3;fill-opacity:1;fill-rule:evenodd;stroke:none;stroke-width:2.5;stroke-linecap:butt;stroke-linejoin:miter;stroke-dasharray:none;stroke-opacity:1;paint-order:fill markers stroke"
             id="rect76"
             width="1.1004788"
             height="7.7530198"
             x="-236.34274"
             y="-222.90727"
             ry="0.55023938"
             transform="rotate(-90)" /></g><g
           id="g85"
           transform="translate(-45.29431,216.22075)"><rect
             style="fill:#b3b3b3;fill-opacity:1;fill-rule:evenodd;stroke-width:0.00785623;paint-order:fill markers stroke"
             id="rect77"
             width="50.000057"
             height="12.5"
             x="-500.83081"
             y="1156.3397"
             ry="0.094533004" /><rect
             style="fill:#4d4d4d;fill-opacity:1;fill-rule:evenodd;stroke-width:0.01;paint-order:fill markers stroke"
             id="rect78"
             width="12.5"
             height="12.5"
             x="-500.83081"
             y="1156.3397"
             ry="0" /><rect
             style="fill:#c44156;fill-opacity:1;fill-rule:evenodd;stroke-width:0.01;paint-order:fill markers stroke"
             id="rect79"
             width="12.5"
             height="12.5"
             x="-488.33081"
             y="1156.3397"
             ry="0" /><rect
             style="fill:#4d4d4d;fill-opacity:1;fill-rule:evenodd;stroke-width:0.01;paint-order:fill markers stroke"
             id="rect80"
             width="12.5"
             height="12.5"
             x="-475.83081"
             y="1156.3397"
             ry="0" /><rect
             style="fill:#c44156;fill-opacity:1;fill-rule:evenodd;stroke-width:0.01;paint-order:fill markers stroke"
             id="rect81"
             width="12.5"
             height="12.5"
             x="-463.33081"
             y="1156.3397"
             ry="0" /><path
             d="m -493.07649,1162.6512 h 1.00697 v 3.5612 q -0.23333,0.086 -0.74909,0.2088 -0.51576,0.135 -1.21573,0.135 -0.68769,0 -1.25257,-0.2578 -0.56488,-0.2702 -0.97013,-0.7737 -0.39296,-0.5035 -0.614,-1.2403 -0.22104,-0.7491 -0.22104,-1.6946 0,-0.9579 0.2456,-1.6947 0.2456,-0.7368 0.66312,-1.2403 0.42981,-0.5035 0.99469,-0.7613 0.56489,-0.2702 1.21573,-0.2702 0.41752,0 0.73681,0.061 0.31928,0.061 0.54032,0.1474 0.23332,0.086 0.38068,0.1842 0.14737,0.086 0.22105,0.135 l -0.33157,0.8474 q -0.28244,-0.2211 -0.6754,-0.3561 -0.38069,-0.1474 -0.81049,-0.1474 -0.46664,0 -0.87189,0.221 -0.39296,0.2211 -0.6754,0.6263 -0.28244,0.4053 -0.44209,0.9824 -0.15964,0.5649 -0.15964,1.2649 0,0.6877 0.13508,1.2525 0.14737,0.5649 0.41753,0.9702 0.27016,0.4052 0.66312,0.6385 0.40525,0.2211 0.92101,0.2211 0.35612,0 0.55261,-0.049 0.19648,-0.049 0.29472,-0.098 z"
             id="text82"
             style="font-size:12.2801px;font-family:'Ubuntu Mono';-inkscape-font-specification:'Ubuntu Mono';text-align:center;letter-spacing:0px;text-anchor:middle;fill:#ececec;fill-rule:evenodd;stroke-width:0.00386774;paint-order:fill markers stroke"
             aria-label="G" /><path
             d="m -468.07649,1162.6512 h 1.00697 v 3.5612 q -0.23333,0.086 -0.74909,0.2088 -0.51576,0.135 -1.21573,0.135 -0.68769,0 -1.25257,-0.2578 -0.56488,-0.2702 -0.97013,-0.7737 -0.39296,-0.5035 -0.614,-1.2403 -0.22104,-0.7491 -0.22104,-1.6946 0,-0.9579 0.2456,-1.6947 0.2456,-0.7368 0.66312,-1.2403 0.42981,-0.5035 0.99469,-0.7613 0.56489,-0.2702 1.21573,-0.2702 0.41752,0 0.73681,0.061 0.31928,0.061 0.54032,0.1474 0.23332,0.086 0.38068,0.1842 0.14737,0.086 0.22105,0.135 l -0.33157,0.8474 q -0.28244,-0.2211 -0.6754,-0.3561 -0.38069,-0.1474 -0.81049,-0.1474 -0.46664,0 -0.87189,0.221 -0.39296,0.2211 -0.6754,0.6263 -0.28244,0.4053 -0.44209,0.9824 -0.15964,0.5649 -0.15964,1.2649 0,0.6877 0.13508,1.2525 0.14737,0.5649 0.41753,0.9702 0.27016,0.4052 0.66312,0.6385 0.40525,0.2211 0.92101,0.2211 0.35612,0 0.55261,-0.049 0.19648,-0.049 0.29472,-0.098 z"
             id="text83"
             style="font-size:12.2801px;font-family:'Ubuntu Mono';-inkscape-font-specification:'Ubuntu Mono';text-align:center;letter-spacing:0px;text-anchor:middle;fill:#ececec;fill-rule:evenodd;stroke-width:0.00386774;paint-order:fill markers stroke"
             aria-label="G" /><path
             d="m -486.66742,1158.789 q 0.14736,0.7736 0.36841,1.6947 0.23332,0.9087 0.47892,1.8297 0.25788,0.9087 0.51576,1.7438 0.25789,0.835 0.47893,1.4613 0.19648,-0.6263 0.45436,-1.4736 0.27016,-0.8473 0.52805,-1.7561 0.25788,-0.921 0.47892,-1.8297 0.23332,-0.9087 0.38068,-1.6701 h 1.05609 q -0.0982,0.4912 -0.31928,1.3262 -0.22104,0.8228 -0.52805,1.8543 -0.307,1.0193 -0.68768,2.1736 -0.3684,1.1421 -0.77365,2.2473 h -1.25257 q -0.38068,-1.1052 -0.74908,-2.2473 -0.35613,-1.142 -0.66313,-2.1613 -0.307,-1.0315 -0.52804,-1.8666 -0.22105,-0.835 -0.33157,-1.3262 z m 5.80849,1.5719 q 0.62628,-0.2457 1.21573,-0.6141 0.58944,-0.3806 1.09293,-0.9578 h 0.71224 v 6.7418 h 1.43678 v 0.8596 h -4.08928 v -0.8596 h 1.64554 v -5.3296 q -0.13508,0.1228 -0.33157,0.2579 -0.1842,0.1228 -0.41752,0.2456 -0.22104,0.1228 -0.46664,0.2333 -0.24561,0.1105 -0.47893,0.1842 z"
             id="text84"
             style="font-size:12.2801px;font-family:'Ubuntu Mono';-inkscape-font-specification:'Ubuntu Mono';text-align:center;letter-spacing:0px;text-anchor:middle;fill:#ececec;fill-rule:evenodd;stroke-width:0.00386774;paint-order:fill markers stroke"
             aria-label="V1" /><path
             d="m -461.76565,1158.7952 q 0.14736,0.7737 0.3684,1.6947 0.23332,0.9087 0.47892,1.8297 0.25789,0.9087 0.51577,1.7438 0.25788,0.835 0.47892,1.4613 0.19648,-0.6263 0.45437,-1.4736 0.27016,-0.8473 0.52804,-1.756 0.25788,-0.9211 0.47892,-1.8298 0.23333,-0.9087 0.38069,-1.6701 h 1.05608 q -0.0982,0.4912 -0.31928,1.3263 -0.22104,0.8227 -0.52804,1.8543 -0.307,1.0192 -0.68769,2.1735 -0.3684,1.1421 -0.77364,2.2473 h -1.25257 q -0.38069,-1.1052 -0.74909,-2.2473 -0.35612,-1.142 -0.66313,-2.1612 -0.307,-1.0316 -0.52804,-1.8666 -0.22104,-0.8351 -0.33156,-1.3263 z m 8.66975,3.6595 q 0,0.3193 -0.19648,0.5526 -0.18421,0.2333 -0.49121,0.2333 -0.31928,0 -0.51576,-0.2333 -0.19648,-0.2333 -0.19648,-0.5526 0,-0.3193 0.19648,-0.5649 0.19648,-0.2456 0.51576,-0.2456 0.307,0 0.49121,0.2456 0.19648,0.2456 0.19648,0.5649 z m -3.21739,0.1351 q 0,-1.9157 0.65085,-2.935 0.66312,-1.0315 1.85429,-1.0315 1.20345,0 1.8543,1.0315 0.65084,1.0193 0.65084,2.935 0,1.9157 -0.65084,2.9472 -0.65085,1.0192 -1.8543,1.0192 -1.19117,0 -1.85429,-1.0192 -0.65085,-1.0315 -0.65085,-2.9472 z m 3.97875,0 q 0,-0.6263 -0.0737,-1.1789 -0.0737,-0.5649 -0.2456,-0.9824 -0.17192,-0.4175 -0.45436,-0.6631 -0.28245,-0.2456 -0.69997,-0.2456 -0.41752,0 -0.69996,0.2456 -0.28245,0.2456 -0.45437,0.6631 -0.17192,0.4175 -0.2456,0.9824 -0.0737,0.5526 -0.0737,1.1789 0,0.6263 0.0737,1.1911 0.0737,0.5526 0.2456,0.9702 0.17192,0.4175 0.45437,0.6631 0.28244,0.2456 0.69996,0.2456 0.41752,0 0.69997,-0.2456 0.28244,-0.2456 0.45436,-0.6631 0.17192,-0.4176 0.2456,-0.9702 0.0737,-0.5648 0.0737,-1.1911 z"
             id="text85"
             style="font-size:12.2801px;font-family:'Ubuntu Mono';-inkscape-font-specification:'Ubuntu Mono';text-align:center;letter-spacing:0px;text-anchor:middle;fill:#ececec;fill-rule:evenodd;stroke-width:0.00386774;paint-order:fill markers stroke"
             aria-label="V0" /></g></g></g></g></svg>
