<?xml version="1.0" encoding="UTF-8" standalone="no"?>
<!-- Created with Inkscape (http://www.inkscape.org/) -->

<svg
   width="51.00005mm"
   height="101.0001mm"
   viewBox="0 0 51.000048 101.0001"
   version="1.1"
   id="svg1"
   xml:space="preserve"
   sodipodi:docname="dual_buttons.svg"
   inkscape:version="1.4.2 (ebf0e940, 2025-05-08)"
   xmlns:inkscape="http://www.inkscape.org/namespaces/inkscape"
   xmlns:sodipodi="http://sodipodi.sourceforge.net/DTD/sodipodi-0.dtd"
   xmlns="http://www.w3.org/2000/svg"
   xmlns:svg="http://www.w3.org/2000/svg"><sodipodi:namedview
     id="namedview1"
     pagecolor="#ffffff"
     bordercolor="#000000"
     borderopacity="0.25"
     inkscape:showpageshadow="2"
     inkscape:pageopacity="0.0"
     inkscape:pagecheckerboard="0"
     inkscape:deskcolor="#797979"
     inkscape:document-units="mm"
     showgrid="false"
     showguides="true"
     inkscape:zoom="0.31779878"
     inkscape:cx="1680.3086"
     inkscape:cy="44.053033"
     inkscape:window-width="2384"
     inkscape:window-height="1371"
     inkscape:window-x="1371"
     inkscape:window-y="25"
     inkscape:window-maximized="0"
     inkscape:current-layer="layer1"><inkscape:grid
       id="grid1"
       units="mm"
       originx="884.24263"
       originy="-735.2086"
       spacingx="0.99999998"
       spacingy="1"
       empcolor="#0099e5"
       empopacity="0.30196078"
       color="#0099e5"
       opacity="0.14901961"
       empspacing="5"
       enabled="true"
       visible="false" /></sodipodi:namedview><defs
     id="defs1" /><g
     inkscape:label="Layer 1"
     inkscape:groupmode="layer"
     id="layer1"
     transform="translate(884.24263,-735.20854)"><g
       id="g281"
       transform="rotate(180,34.665114,341.3709)"><g
         id="g191"
         transform="translate(8.3867273,178.00957)" /></g><g
       id="g540"
       transform="matrix(0.8090083,0,0,0.889878,-89.218707,21.16354)" /><g
       id="g8"
       transform="translate(-575.58863,535.63989)"><g
         id="g119"
         transform="rotate(180,-55.094604,268.83838)"><g
           id="g113"
           transform="translate(102.72844,162.18731)"><path
             id="rect111"
             style="fill:#ececec;fill-opacity:1;fill-rule:evenodd;stroke:#cccccc;stroke-width:1;stroke-linecap:square;stroke-linejoin:round;stroke-dasharray:none;paint-order:stroke fill markers"
             d="m 88.236263,175.4208 c 3.878003,0 7.000089,-3.12209 7.000089,-7.00009 V 82.420793 c 0,-3.878003 -3.122086,-7.000089 -7.000089,-7.000089 h -35.99987 c -3.878003,0 -7.00009,3.122086 -7.00009,7.000089 v 85.999917 c 0,3.878 3.122087,7.00009 7.00009,7.00009 z m -0.999939,-19.99981 a 4.9999976,4.9999976 0 0 1 -5.000212,-5.00021 4.9999976,4.9999976 0 0 1 5.000212,-4.9997 4.9999976,4.9999976 0 0 1 5.000211,4.9997 4.9999976,4.9999976 0 0 1 -5.000211,5.00021 z m -33.999992,0 a 4.9999976,4.9999976 0 0 1 -5.000212,-5.00021 4.9999976,4.9999976 0 0 1 5.000212,-4.9997 4.9999976,4.9999976 0 0 1 5.000211,4.9997 4.9999976,4.9999976 0 0 1 -5.000211,5.00021 z" /><path
             id="path111"
             style="fill:#cccccc;fill-opacity:1;fill-rule:evenodd;stroke-width:0;stroke-linecap:square;stroke-linejoin:round;paint-order:stroke fill markers"
             d="m 53.236332,157.42087 a 6.9999986,6.9999986 0 0 0 7.000089,-7.00009 6.9999986,6.9999986 0 0 0 -7.000089,-7.00009 h -8.000029 v 14.00018 h 7.985559 z m 0,-1.99988 a 4.9999976,4.9999976 0 0 1 -5.000212,-5.00021 4.9999976,4.9999976 0 0 1 5.000212,-4.9997 4.9999976,4.9999976 0 0 1 5.000211,4.9997 4.9999976,4.9999976 0 0 1 -5.000211,5.00021 z" /><path
             id="path112"
             style="fill:#cccccc;fill-opacity:1;fill-rule:evenodd;stroke-width:0;stroke-linecap:square;stroke-linejoin:round;paint-order:stroke fill markers"
             d="m 95.236352,157.42087 v -14.00018 h -8.000028 a 6.9999986,6.9999986 0 0 0 -7.00009,7.00009 6.9999986,6.9999986 0 0 0 7.00009,7.00009 h 0.01447 z m -8.000028,-1.99988 a 4.9999976,4.9999976 0 0 1 -5.000212,-5.00021 4.9999976,4.9999976 0 0 1 5.000212,-4.9997 4.9999976,4.9999976 0 0 1 5.000211,4.9997 4.9999976,4.9999976 0 0 1 -5.000211,5.00021 z" /></g><g
           id="g117"
           transform="translate(107.12453,-76.39678)"><g
             id="g116"
             transform="translate(-34.659812,229.00496)"><rect
               style="opacity:1;fill:#666666;fill-opacity:1;fill-rule:evenodd;stroke-width:0;stroke-linecap:square;stroke-linejoin:round;paint-order:stroke fill markers"
               id="rect113"
               width="11.031602"
               height="3.9999957"
               x="95"
               y="178" /><g
               id="g115"
               transform="matrix(1,0,0,1.3333394,0.49999809,-60.334418)"
               style="fill:#ffeeaa"><rect
                 style="opacity:1;fill:#ffeeaa;fill-opacity:1;fill-rule:evenodd;stroke-width:0;stroke-linecap:square;stroke-linejoin:round;paint-order:stroke fill markers"
                 id="rect114"
                 width="2"
                 height="2.9999998"
                 x="97.000008"
                 y="177.99998"
                 ry="0.75001168" /><rect
                 style="opacity:1;fill:#ffeeaa;fill-opacity:1;fill-rule:evenodd;stroke-width:0;stroke-linecap:square;stroke-linejoin:round;paint-order:stroke fill markers"
                 id="rect115"
                 width="2"
                 height="2.9999998"
                 x="101"
                 y="178"
                 ry="0.74999642" /></g><path
               id="path115"
               style="opacity:1;fill:#4d4d4d;fill-opacity:1;fill-rule:evenodd;stroke-width:0;stroke-linecap:square;stroke-linejoin:round;paint-order:stroke fill markers"
               d="m 91.00013,170.9999 c -0.553997,0 -0.999939,0.44594 -0.999939,0.99994 v 5.00021 7.00009 c 0,0.554 0.445942,0.99994 0.999939,0.99994 h 2.999817 c 0.553997,0 0.999939,-0.44594 0.999939,-0.99994 v -6.00015 h 11.000364 v 6.00015 c 0,0.554 0.44594,0.99994 0.99994,0.99994 H 110 c 0.554,0 0.99994,-0.44594 0.99994,-0.99994 v -6.99751 c 1e-5,-9.3e-4 0,-0.002 0,-0.003 v -5.00021 c 0,-0.17313 -0.0436,-0.33578 -0.1204,-0.47749 -0.0307,-0.0567 -0.0668,-0.10982 -0.10749,-0.15917 -0.18312,-0.22207 -0.46042,-0.36328 -0.77205,-0.36328 h -2.99981 z" /></g></g><rect
           style="fill:#cccccc;fill-opacity:1;fill-rule:evenodd;stroke-width:0;stroke-linecap:square;stroke-linejoin:round;paint-order:stroke fill markers"
           id="rect117"
           width="33.093861"
           height="63.09071"
           x="156.41783"
           y="242.51732"
           ry="16.54693" /><g
           id="g118"
           transform="translate(43.71109,163.15885)"><circle
             style="fill:#0066ff;fill-opacity:1;fill-rule:evenodd;stroke-width:0;stroke-linecap:square;stroke-linejoin:round;paint-order:stroke fill markers"
             id="circle117"
             cx="129.25368"
             cy="96.386673"
             r="12.5" /><circle
             style="fill:#ff5555;fill-opacity:1;fill-rule:evenodd;stroke-width:0;stroke-linecap:square;stroke-linejoin:round;paint-order:stroke fill markers"
             id="circle118"
             cx="129.25368"
             cy="125.42096"
             r="12.5" /></g></g></g></g></svg>
