<?xml version="1.0" encoding="UTF-8" standalone="no"?>
<!-- Created with Inkscape (http://www.inkscape.org/) -->

<svg
   width="51.00005mm"
   height="98.174088mm"
   viewBox="0 0 51.000048 98.17409"
   version="1.1"
   id="svg1"
   xml:space="preserve"
   sodipodi:docname="ext_io.svg"
   inkscape:version="1.4.2 (ebf0e940, 2025-05-08)"
   xmlns:inkscape="http://www.inkscape.org/namespaces/inkscape"
   xmlns:sodipodi="http://sodipodi.sourceforge.net/DTD/sodipodi-0.dtd"
   xmlns="http://www.w3.org/2000/svg"
   xmlns:svg="http://www.w3.org/2000/svg"><sodipodi:namedview
     id="namedview1"
     pagecolor="#ffffff"
     bordercolor="#000000"
     borderopacity="0.25"
     inkscape:showpageshadow="2"
     inkscape:pageopacity="0.0"
     inkscape:pagecheckerboard="0"
     inkscape:deskcolor="#797979"
     inkscape:document-units="mm"
     showgrid="false"
     showguides="true"
     inkscape:zoom="0.22471767"
     inkscape:cx="1139.2073"
     inkscape:cy="-547.35349"
     inkscape:window-width="2384"
     inkscape:window-height="1371"
     inkscape:window-x="1371"
     inkscape:window-y="25"
     inkscape:window-maximized="0"
     inkscape:current-layer="layer1"><inkscape:grid
       id="grid1"
       units="mm"
       originx="538.93496"
       originy="-1069.9564"
       spacingx="0.99999998"
       spacingy="1"
       empcolor="#0099e5"
       empopacity="0.30196078"
       color="#0099e5"
       opacity="0.14901961"
       empspacing="5"
       enabled="true"
       visible="false" /></sodipodi:namedview><defs
     id="defs1" /><g
     inkscape:label="Layer 1"
     inkscape:groupmode="layer"
     id="layer1"
     transform="translate(538.93496,-1069.9563)"><g
       id="g281"
       transform="rotate(180,34.665114,341.3709)"><g
         id="g191"
         transform="translate(8.3867273,178.00957)" /></g><g
       id="g540"
       transform="matrix(0.8090083,0,0,0.889878,-89.218707,21.16354)" /><g
       id="g594"
       transform="translate(-44.767831,653.17184)"><g
         id="g161"
         transform="rotate(180,-179.89012,390.14711)"
         style="stroke:#cccccc"><g
           id="g144"
           style="stroke:#cccccc"><path
             id="rect129"
             style="fill:#ececec;fill-opacity:1;fill-rule:evenodd;stroke:#cccccc;stroke-width:1;stroke-linecap:square;stroke-linejoin:round;stroke-dasharray:none;stroke-opacity:1;paint-order:stroke fill markers"
             d="m 128.88564,363.00978 c 2.77076,0 5.00125,-2.23049 5.00125,-5.00124 v -61.44535 c 0,-2.77075 -2.23049,-5.00176 -5.00125,-5.00176 H 88.888084 c -2.770755,0 -5.001245,2.23101 -5.001245,5.00176 v 61.44535 c 0,2.77075 2.23049,5.00124 5.001245,5.00124 z m -2.99878,-20.00033 a 4.9999976,4.9999976 0 0 1 -1.91358,-0.38033 4.9999976,4.9999976 0 0 1 -2.0531,-1.57562 4.9999976,4.9999976 0 0 1 -0.36329,-0.54363 4.9999976,4.9999976 0 0 1 -0.28939,-0.58653 4.9999976,4.9999976 0 0 1 -0.38085,-1.91358 4.9999976,4.9999976 0 0 1 0.17053,-1.29398 4.9999976,4.9999976 0 0 1 1.29398,-2.24172 4.9999976,4.9999976 0 0 1 1.03559,-0.79479 4.9999976,4.9999976 0 0 1 1.20613,-0.49919 4.9999976,4.9999976 0 0 1 1.29398,-0.17053 4.9999976,4.9999976 0 0 1 1.91358,0.38085 4.9999976,4.9999976 0 0 1 1.13016,0.65268 4.9999976,4.9999976 0 0 1 0.49144,0.43098 4.9999976,4.9999976 0 0 1 0.4315,0.49196 4.9999976,4.9999976 0 0 1 0.65268,1.13016 4.9999976,4.9999976 0 0 1 0.38033,1.91358 4.9999976,4.9999976 0 0 1 -0.66972,2.49959 4.9999976,4.9999976 0 0 1 0,5.2e-4 4.9999976,4.9999976 0 0 1 -0.36329,0.54363 4.9999976,4.9999976 0 0 1 -0.4315,0.49144 4.9999976,4.9999976 0 0 1 -1.03559,0.79479 4.9999976,4.9999976 0 0 1 -2.49959,0.66972 z m -33.999993,0 a 4.9999976,4.9999976 0 0 1 -5.000212,-4.99969 4.9999976,4.9999976 0 0 1 5.000212,-5.00021 4.9999976,4.9999976 0 0 1 4.999695,5.00021 4.9999976,4.9999976 0 0 1 -4.999695,4.99969 z" /><path
             id="path129"
             style="fill:#cccccc;fill-opacity:1;fill-rule:evenodd;stroke:#cccccc;stroke-width:0;stroke-linecap:square;stroke-linejoin:round;paint-order:stroke fill markers"
             d="m 91.886867,345.00985 a 6.9999986,6.9999986 0 0 0 7.00009,-7.00009 6.9999986,6.9999986 0 0 0 -7.00009,-7.00009 h -8.000028 v 14.00018 h 7.985559 z m 0,-2.0004 a 4.9999976,4.9999976 0 0 1 -5.000212,-4.99969 4.9999976,4.9999976 0 0 1 5.000212,-5.00021 4.9999976,4.9999976 0 0 1 4.999695,5.00021 4.9999976,4.9999976 0 0 1 -4.999695,4.99969 z" /><path
             id="path133"
             style="fill:#cccccc;fill-opacity:1;fill-rule:evenodd;stroke:#cccccc;stroke-width:0;stroke-linecap:square;stroke-linejoin:round;paint-order:stroke fill markers"
             d="m 133.88689,345.00985 v -14.00018 h -8.00003 a 6.9999986,6.9999986 0 0 0 -7.00009,7.00009 6.9999986,6.9999986 0 0 0 7.00009,7.00009 h 0.0145 z m -8.00003,-2.0004 a 4.9999976,4.9999976 0 0 1 -5.00021,-4.99969 4.9999976,4.9999976 0 0 1 5.00021,-5.00021 4.9999976,4.9999976 0 0 1 4.99969,5.00021 4.9999976,4.9999976 0 0 1 -4.99969,4.99969 z" /></g><g
           id="g133"
           transform="translate(8.3867038,178.00956)"
           style="stroke:#cccccc"><rect
             style="opacity:1;fill:#8b2c3a;fill-opacity:1;fill-rule:evenodd;stroke:#cccccc;stroke-width:0;stroke-linecap:square;stroke-linejoin:round;paint-order:stroke fill markers"
             id="rect130"
             width="11.031602"
             height="3.9999957"
             x="95"
             y="178" /><g
             id="g132"
             transform="matrix(1,0,0,1.3333394,0.49999809,-60.334418)"
             style="fill:#ffeeaa;stroke:#cccccc"><rect
               style="opacity:1;fill:#ffeeaa;fill-opacity:1;fill-rule:evenodd;stroke:#cccccc;stroke-width:0;stroke-linecap:square;stroke-linejoin:round;paint-order:stroke fill markers"
               id="rect131"
               width="2"
               height="2.9999998"
               x="97.000008"
               y="177.99998"
               ry="0.75001168" /><rect
               style="opacity:1;fill:#ffeeaa;fill-opacity:1;fill-rule:evenodd;stroke:#cccccc;stroke-width:0;stroke-linecap:square;stroke-linejoin:round;paint-order:stroke fill markers"
               id="rect132"
               width="2"
               height="2.9999998"
               x="101"
               y="178"
               ry="0.74999642" /></g><path
             id="path132"
             style="opacity:1;fill:#c44156;fill-opacity:1;fill-rule:evenodd;stroke:#cccccc;stroke-width:0;stroke-linecap:square;stroke-linejoin:round;paint-order:stroke fill markers"
             d="m 91.00013,170.9999 c -0.553997,0 -0.999939,0.44594 -0.999939,0.99994 v 5.00021 7.00009 c 0,0.554 0.445942,0.99994 0.999939,0.99994 h 2.999817 c 0.553997,0 0.999939,-0.44594 0.999939,-0.99994 v -6.00015 h 11.000364 v 6.00015 c 0,0.554 0.44594,0.99994 0.99994,0.99994 H 110 c 0.554,0 0.99994,-0.44594 0.99994,-0.99994 v -6.99751 c 1e-5,-9.3e-4 0,-0.002 0,-0.003 v -5.00021 c 0,-0.17313 -0.0436,-0.33578 -0.1204,-0.47749 -0.0307,-0.0567 -0.0668,-0.10982 -0.10749,-0.15917 -0.18312,-0.22207 -0.46042,-0.36328 -0.77205,-0.36328 h -2.99981 z" /></g><path
           id="rect159"
           style="fill:#cccccc;fill-opacity:1;fill-rule:evenodd;stroke:#cccccc;stroke-width:2.68195;stroke-linecap:butt;stroke-linejoin:miter;stroke-dasharray:none;stroke-opacity:1;paint-order:fill markers stroke"
           d="m 92.238975,291.56168 v 2.08566 3.09025 27.57403 c 0,1.15523 0.929918,2.08514 2.085144,2.08514 h 29.125351 c 1.15523,0 2.08515,-0.92991 2.08515,-2.08514 v -27.57403 -3.09025 -2.08566 h -2.08515 -29.125351 z" /><path
           id="rect160"
           style="fill:#a5a5a5;fill-opacity:1;fill-rule:evenodd;stroke:#cccccc;stroke-width:0.933749;stroke-linecap:butt;stroke-linejoin:miter;stroke-dasharray:none;stroke-opacity:1;paint-order:fill markers stroke"
           d="m 92.238963,322.17405 v 2.1115 c 0,1.16965 0.941851,2.11098 2.111499,2.11098 h 29.072648 c 1.16964,0 2.1115,-0.94133 2.1115,-2.11098 v -2.1115 h -2.1115 -29.072648 z" /></g><g
         id="g180"
         transform="translate(-579.13862,125.7229)"><rect
           style="fill:#cccccc;fill-opacity:1;fill-rule:evenodd;stroke:none;stroke-width:2.12418;stroke-linecap:butt;stroke-linejoin:miter;stroke-dasharray:none;stroke-opacity:1;paint-order:fill markers stroke"
           id="rect161"
           width="50"
           height="20"
           x="85.471619"
           y="369.23563" /><rect
           style="fill:#c44156;fill-opacity:1;fill-rule:evenodd;stroke:none;stroke-width:0.671725;stroke-linecap:butt;stroke-linejoin:miter;stroke-dasharray:none;stroke-opacity:1;paint-order:fill markers stroke"
           id="rect162"
           width="10"
           height="10"
           x="85.471619"
           y="369.23563" /><rect
           style="fill:#4d4d4d;fill-opacity:1;fill-rule:evenodd;stroke:none;stroke-width:0.671725;stroke-linecap:butt;stroke-linejoin:miter;stroke-dasharray:none;stroke-opacity:1;paint-order:fill markers stroke"
           id="rect163"
           width="10"
           height="10"
           x="85.471619"
           y="379.23563" /><rect
           style="fill:#a5a5a5;fill-opacity:1;fill-rule:evenodd;stroke:none;stroke-width:0.671725;stroke-linecap:butt;stroke-linejoin:miter;stroke-dasharray:none;stroke-opacity:1;paint-order:fill markers stroke"
           id="rect164"
           width="10"
           height="10"
           x="95.471619"
           y="369.23563" /><rect
           style="fill:#cccccc;fill-opacity:1;fill-rule:evenodd;stroke:none;stroke-width:0.671725;stroke-linecap:butt;stroke-linejoin:miter;stroke-dasharray:none;stroke-opacity:1;paint-order:fill markers stroke"
           id="rect165"
           width="10"
           height="10"
           x="95.471619"
           y="379.23563" /><rect
           style="fill:#cccccc;fill-opacity:1;fill-rule:evenodd;stroke:none;stroke-width:0.671725;stroke-linecap:butt;stroke-linejoin:miter;stroke-dasharray:none;stroke-opacity:1;paint-order:fill markers stroke"
           id="rect166"
           width="10"
           height="10"
           x="105.47162"
           y="369.23563" /><rect
           style="fill:#a5a5a5;fill-opacity:1;fill-rule:evenodd;stroke:none;stroke-width:0.671725;stroke-linecap:butt;stroke-linejoin:miter;stroke-dasharray:none;stroke-opacity:1;paint-order:fill markers stroke"
           id="rect167"
           width="10"
           height="10"
           x="105.47162"
           y="379.23563" /><rect
           style="fill:#a5a5a5;fill-opacity:1;fill-rule:evenodd;stroke:none;stroke-width:0.671725;stroke-linecap:butt;stroke-linejoin:miter;stroke-dasharray:none;stroke-opacity:1;paint-order:fill markers stroke"
           id="rect168"
           width="10"
           height="10"
           x="115.47162"
           y="369.23563" /><rect
           style="fill:#cccccc;fill-opacity:1;fill-rule:evenodd;stroke:none;stroke-width:0.671725;stroke-linecap:butt;stroke-linejoin:miter;stroke-dasharray:none;stroke-opacity:1;paint-order:fill markers stroke"
           id="rect169"
           width="10"
           height="10"
           x="115.47162"
           y="379.23563" /><rect
           style="fill:#cccccc;fill-opacity:1;fill-rule:evenodd;stroke:none;stroke-width:0.671725;stroke-linecap:butt;stroke-linejoin:miter;stroke-dasharray:none;stroke-opacity:1;paint-order:fill markers stroke"
           id="rect170"
           width="10"
           height="10"
           x="125.47162"
           y="369.23563" /><rect
           style="fill:#a5a5a5;fill-opacity:1;fill-rule:evenodd;stroke:none;stroke-width:0.671725;stroke-linecap:butt;stroke-linejoin:miter;stroke-dasharray:none;stroke-opacity:1;paint-order:fill markers stroke"
           id="rect171"
           width="10"
           height="10"
           x="125.47162"
           y="379.23563" /><path
           d="m 87.000681,373.45186 q 1.363946,0.0509 1.984846,0.60054 0.620901,0.54965 0.620901,1.47591 0,0.41733 -0.132323,0.77358 -0.132323,0.35626 -0.417327,0.61073 -0.274825,0.25446 -0.712509,0.39696 -0.427505,0.14251 -1.01787,0.14251 -0.244289,0 -0.488578,-0.0407 -0.23411,-0.0305 -0.447862,-0.0814 -0.213753,-0.0509 -0.376612,-0.10179 -0.162859,-0.0611 -0.23411,-0.10178 l 0.162859,-0.72269 q 0.162859,0.0814 0.498756,0.1934 0.346076,0.11196 0.86519,0.11196 0.407148,0 0.681973,-0.0916 0.274825,-0.0916 0.437684,-0.24429 0.173038,-0.16286 0.244289,-0.36643 0.08143,-0.20357 0.08143,-0.4275 0,-0.34608 -0.122144,-0.61073 -0.111966,-0.27482 -0.407148,-0.45804 -0.285004,-0.18321 -0.793939,-0.27482 -0.498756,-0.10179 -1.262159,-0.10179 0.06107,-0.44786 0.09161,-0.83465 0.04071,-0.39697 0.06107,-0.76341 0.03054,-0.37661 0.04072,-0.74304 0.02036,-0.36643 0.04071,-0.77358 h 3.033253 v 0.71251 h -2.300386 q -0.01018,0.1425 -0.03054,0.37661 -0.01018,0.22393 -0.03054,0.4784 -0.02036,0.25446 -0.04072,0.48858 -0.02036,0.23411 -0.03054,0.37661 z m 4.234339,-2.43271 q 0.122144,0.64126 0.305361,1.40466 0.193395,0.75322 0.396969,1.51662 0.213753,0.75323 0.427506,1.44538 0.213753,0.69215 0.396969,1.21127 0.162859,-0.51912 0.376612,-1.22145 0.223931,-0.70233 0.437684,-1.45555 0.213753,-0.76341 0.396969,-1.51663 0.193396,-0.75322 0.31554,-1.3843 h 0.875368 q -0.08143,0.40715 -0.264646,1.0993 -0.183216,0.68197 -0.437684,1.53698 -0.254467,0.84483 -0.570007,1.80163 -0.305361,0.94662 -0.641258,1.8627 h -1.038228 q -0.315539,-0.91608 -0.6209,-1.8627 -0.295183,-0.94662 -0.54965,-1.79145 -0.254468,-0.85501 -0.437684,-1.54716 -0.183217,-0.69215 -0.274825,-1.0993 z"
           id="text171"
           style="font-size:10.1787px;font-family:'Ubuntu Mono';-inkscape-font-specification:'Ubuntu Mono';text-align:center;letter-spacing:0px;text-anchor:middle;fill:#ececec;fill-rule:evenodd;stroke-width:0.801474;paint-order:fill markers stroke"
           aria-label="5V" /><path
           d="m 91.448773,384.21526 h 0.834653 v 2.95182 q -0.193395,0.0713 -0.620901,0.17304 -0.427505,0.11197 -1.007691,0.11197 -0.570007,0 -1.038227,-0.21376 -0.468221,-0.22393 -0.804118,-0.64125 -0.325718,-0.41733 -0.508935,-1.02805 -0.183216,-0.6209 -0.183216,-1.40466 0,-0.79394 0.203574,-1.40466 0.203574,-0.61073 0.54965,-1.02805 0.356254,-0.41733 0.824474,-0.63108 0.468221,-0.22393 1.007692,-0.22393 0.346075,0 0.610722,0.0509 0.264646,0.0509 0.447862,0.12214 0.193396,0.0712 0.31554,0.15268 0.122145,0.0713 0.183217,0.11197 l -0.274825,0.70233 q -0.23411,-0.18322 -0.559829,-0.29518 -0.315539,-0.12215 -0.671794,-0.12215 -0.38679,0 -0.722688,0.18322 -0.325718,0.18322 -0.559828,0.51911 -0.23411,0.3359 -0.366433,0.8143 -0.132323,0.46822 -0.132323,1.04841 0,0.57 0.111965,1.03822 0.122145,0.46822 0.346076,0.80412 0.223931,0.3359 0.54965,0.52929 0.335897,0.18322 0.763402,0.18322 0.295183,0 0.458042,-0.0407 0.162859,-0.0407 0.244289,-0.0814 z"
           id="text172"
           style="font-size:10.1787px;font-family:'Ubuntu Mono';-inkscape-font-specification:'Ubuntu Mono';text-align:center;letter-spacing:0px;text-anchor:middle;fill:#ececec;fill-rule:evenodd;stroke-width:0.801474;paint-order:fill markers stroke"
           aria-label="G" /><path
           d="m 98.201767,374.79545 q 0,-0.91609 0.244289,-1.61842 0.254468,-0.71251 0.712509,-1.19091 0.46822,-0.47839 1.129835,-0.73286 0.66162,-0.25447 1.49627,-0.26465 l 0.0712,0.71251 q -0.53947,0.0102 -0.98733,0.12214 -0.43769,0.10179 -0.78376,0.34608 -0.346079,0.23411 -0.580189,0.61072 -0.23411,0.37661 -0.356255,0.92626 0.244289,-0.11196 0.529293,-0.18321 0.295182,-0.0712 0.620901,-0.0712 0.52929,0 0.89573,0.16286 0.37661,0.16286 0.60054,0.43768 0.22393,0.26465 0.32572,0.6209 0.10178,0.35626 0.10178,0.73287 0,0.34607 -0.11196,0.71251 -0.11197,0.35625 -0.34608,0.66161 -0.23411,0.29518 -0.60054,0.48858 -0.36643,0.18322 -0.87537,0.18322 -1.048405,0 -1.567519,-0.70233 -0.519114,-0.70233 -0.519114,-1.95431 z m 2.005203,-0.65144 q -0.325717,0 -0.600542,0.0611 -0.264646,0.0611 -0.539471,0.18322 -0.01018,0.10178 -0.01018,0.20357 0,0.0916 0,0.20358 0,0.39696 0.05089,0.75322 0.06107,0.34608 0.193395,0.6209 0.142502,0.26465 0.376612,0.42751 0.23411,0.15268 0.600536,0.15268 0.30536,0 0.50894,-0.12215 0.20357,-0.13232 0.33589,-0.32572 0.13233,-0.19339 0.18322,-0.4275 0.0611,-0.24429 0.0611,-0.45804 0,-0.6209 -0.285,-0.94662 -0.27483,-0.32572 -0.87537,-0.32572 z"
           id="text173"
           style="font-size:10.1787px;font-family:'Ubuntu Mono';-inkscape-font-specification:'Ubuntu Mono';text-align:center;letter-spacing:0px;text-anchor:middle;fill:#4d4d4d;fill-rule:evenodd;stroke-width:0.801474;paint-order:fill markers stroke"
           aria-label="6" /><path
           d="m 108.27811,375.15681 q 0.17304,-0.40715 0.46822,-0.93644 0.30536,-0.52929 0.68197,-1.08912 0.37662,-0.57001 0.80412,-1.10948 0.42751,-0.54965 0.86519,-0.98733 h 0.8143 v 4.00023 h 0.74304 v 0.69215 h -0.74304 v 1.60823 h -0.8143 v -1.60823 h -2.8195 z m 2.8195,-3.12486 q -0.27482,0.29518 -0.55983,0.65144 -0.27482,0.35625 -0.53947,0.75322 -0.26465,0.38679 -0.49876,0.79394 -0.22393,0.40715 -0.40714,0.80412 h 2.0052 z"
           id="text174"
           style="font-size:10.1787px;font-family:'Ubuntu Mono';-inkscape-font-specification:'Ubuntu Mono';text-align:center;letter-spacing:0px;text-anchor:middle;fill:#4d4d4d;fill-rule:evenodd;stroke-width:0.801474;paint-order:fill markers stroke"
           aria-label="4" /><path
           d="m 122.18673,372.64267 q 0,0.32572 -0.13232,0.63108 -0.12215,0.30536 -0.3359,0.60054 -0.20357,0.29519 -0.46822,0.58019 -0.26465,0.285 -0.53947,0.55983 -0.15268,0.15268 -0.35625,0.36643 -0.20358,0.21375 -0.3868,0.43769 -0.18321,0.22393 -0.30536,0.43768 -0.12214,0.21375 -0.12214,0.36643 h 2.90093 v 0.71251 h -3.81701 q -0.0102,-0.0509 -0.0102,-0.10178 0,-0.0611 0,-0.11197 0,-0.42751 0.1425,-0.79394 0.1425,-0.36643 0.36643,-0.69215 0.22393,-0.32572 0.49876,-0.61072 0.285,-0.29518 0.55983,-0.57001 0.22393,-0.22393 0.4275,-0.43768 0.21376,-0.21376 0.36644,-0.42751 0.16286,-0.21375 0.25446,-0.43768 0.10179,-0.23411 0.10179,-0.4784 0,-0.27483 -0.0916,-0.46822 -0.0814,-0.1934 -0.23411,-0.31554 -0.1425,-0.13233 -0.3359,-0.1934 -0.19339,-0.0611 -0.41732,-0.0611 -0.26465,0 -0.48858,0.0713 -0.21375,0.0713 -0.38679,0.17304 -0.16286,0.10179 -0.285,0.20357 -0.12215,0.0916 -0.18322,0.15268 l -0.41733,-0.59036 q 0.0814,-0.0916 0.24429,-0.22393 0.16286,-0.13233 0.38679,-0.24429 0.23411,-0.12215 0.51912,-0.20358 0.285,-0.0814 0.61072,-0.0814 0.98733,0 1.45555,0.45804 0.4784,0.44786 0.4784,1.29269 z"
           id="text175"
           style="font-size:10.1787px;font-family:'Ubuntu Mono';-inkscape-font-specification:'Ubuntu Mono';text-align:center;letter-spacing:0px;text-anchor:middle;fill:#4d4d4d;fill-rule:evenodd;stroke-width:0.801474;paint-order:fill markers stroke"
           aria-label="2" /><path
           d="m 131.04671,374.06769 q 0,0.26465 -0.16286,0.45804 -0.15268,0.1934 -0.40715,0.1934 -0.26464,0 -0.4275,-0.1934 -0.16286,-0.19339 -0.16286,-0.45804 0,-0.26465 0.16286,-0.46822 0.16286,-0.20357 0.4275,-0.20357 0.25447,0 0.40715,0.20357 0.16286,0.20357 0.16286,0.46822 z m -2.66682,0.11197 q 0,-1.58788 0.53947,-2.43271 0.54965,-0.85501 1.53698,-0.85501 0.99752,0 1.53699,0.85501 0.53947,0.84483 0.53947,2.43271 0,1.58787 -0.53947,2.44288 -0.53947,0.84484 -1.53699,0.84484 -0.98733,0 -1.53698,-0.84484 -0.53947,-0.85501 -0.53947,-2.44288 z m 3.2979,0 q 0,-0.51912 -0.0611,-0.97716 -0.0611,-0.46822 -0.20358,-0.8143 -0.1425,-0.34607 -0.37661,-0.54965 -0.23411,-0.20357 -0.58019,-0.20357 -0.34607,0 -0.58018,0.20357 -0.23411,0.20358 -0.37661,0.54965 -0.14251,0.34608 -0.20358,0.8143 -0.0611,0.45804 -0.0611,0.97716 0,0.51911 0.0611,0.98733 0.0611,0.45804 0.20358,0.80412 0.1425,0.34607 0.37661,0.54965 0.23411,0.20357 0.58018,0.20357 0.34608,0 0.58019,-0.20357 0.23411,-0.20358 0.37661,-0.54965 0.1425,-0.34608 0.20358,-0.80412 0.0611,-0.46822 0.0611,-0.98733 z"
           id="text176"
           style="font-size:10.1787px;font-family:'Ubuntu Mono';-inkscape-font-specification:'Ubuntu Mono';text-align:center;letter-spacing:0px;text-anchor:middle;fill:#4d4d4d;fill-rule:evenodd;stroke-width:0.801474;paint-order:fill markers stroke"
           aria-label="0" /><path
           d="m 120.06956,386.72433 q 0.80412,0 1.14002,-0.31554 0.34607,-0.32572 0.34607,-0.86519 0,-0.34607 -0.1425,-0.58018 -0.1425,-0.23411 -0.37661,-0.37662 -0.23411,-0.1425 -0.53947,-0.20357 -0.30536,-0.0611 -0.64126,-0.0611 h -0.21375 v -0.68198 h 0.29518 q 0.22393,0 0.45804,-0.0407 0.24429,-0.0509 0.43768,-0.16286 0.20358,-0.12214 0.32572,-0.32572 0.12215,-0.20357 0.12215,-0.51911 0,-0.51912 -0.32572,-0.73287 -0.31554,-0.22393 -0.74305,-0.22393 -0.43768,0 -0.74304,0.13232 -0.30536,0.12215 -0.50894,0.25447 l -0.32572,-0.64126 q 0.21376,-0.15268 0.64126,-0.31554 0.43769,-0.17303 0.96698,-0.17303 0.49876,0 0.85501,0.12214 0.35625,0.12214 0.58019,0.34608 0.23411,0.22393 0.34607,0.52929 0.11197,0.29518 0.11197,0.65143 0,0.49876 -0.26465,0.84484 -0.25447,0.34607 -0.66161,0.52929 0.48857,0.1425 0.84483,0.55983 0.35625,0.40715 0.35625,1.08912 0,0.40715 -0.1425,0.7634 -0.13232,0.34608 -0.41733,0.60054 -0.27482,0.25447 -0.72268,0.39697 -0.43769,0.14251 -1.04841,0.14251 -0.23411,0 -0.48858,-0.0407 -0.24429,-0.0305 -0.45804,-0.0916 -0.21375,-0.0509 -0.38679,-0.10178 -0.16286,-0.0611 -0.23411,-0.0916 l 0.16286,-0.72269 q 0.16286,0.0814 0.51911,0.19339 0.35626,0.11197 0.87537,0.11197 z"
           id="text177"
           style="font-size:10.1787px;font-family:'Ubuntu Mono';-inkscape-font-specification:'Ubuntu Mono';text-align:center;letter-spacing:0px;text-anchor:middle;fill:#4d4d4d;fill-rule:evenodd;stroke-width:0.801474;paint-order:fill markers stroke"
           aria-label="3" /><path
           d="m 109.80492,383.46715 q 1.36394,0.0509 1.98484,0.60054 0.6209,0.54965 0.6209,1.47591 0,0.41733 -0.13232,0.77358 -0.13232,0.35626 -0.41733,0.61072 -0.27482,0.25447 -0.71251,0.39697 -0.4275,0.14251 -1.01787,0.14251 -0.24428,0 -0.48857,-0.0407 -0.23411,-0.0305 -0.44787,-0.0814 -0.21375,-0.0509 -0.37661,-0.10179 -0.16286,-0.0611 -0.23411,-0.10178 l 0.16286,-0.72269 q 0.16286,0.0814 0.49876,0.19339 0.34607,0.11197 0.86519,0.11197 0.40714,0 0.68197,-0.0916 0.27482,-0.0916 0.43768,-0.24429 0.17304,-0.16286 0.24429,-0.36643 0.0814,-0.20357 0.0814,-0.42751 0,-0.34607 -0.12214,-0.61072 -0.11197,-0.27482 -0.40715,-0.45804 -0.285,-0.18322 -0.79394,-0.27482 -0.49876,-0.10179 -1.26216,-0.10179 0.0611,-0.44786 0.0916,-0.83465 0.0407,-0.39697 0.0611,-0.76341 0.0305,-0.37661 0.0407,-0.74304 0.0204,-0.36644 0.0407,-0.77358 h 3.03325 v 0.71251 h -2.30038 q -0.0102,0.1425 -0.0305,0.37661 -0.0102,0.22393 -0.0305,0.4784 -0.0204,0.25446 -0.0407,0.48857 -0.0204,0.23411 -0.0305,0.37662 z"
           id="text178"
           style="font-size:10.1787px;font-family:'Ubuntu Mono';-inkscape-font-specification:'Ubuntu Mono';text-align:center;letter-spacing:0px;text-anchor:middle;fill:#4d4d4d;fill-rule:evenodd;stroke-width:0.801474;paint-order:fill markers stroke"
           aria-label="5" /><path
           d="m 99.489376,387.33505 q 0.05089,-0.72269 0.254467,-1.5268 0.213753,-0.8143 0.508937,-1.56752 0.29518,-0.7634 0.65144,-1.40466 0.35625,-0.65144 0.70233,-1.06877 h -3.053615 v -0.73286 h 3.990055 v 0.70233 q -0.30537,0.35625 -0.66162,0.9568 -0.35625,0.60054 -0.68197,1.35376 -0.31554,0.74305 -0.54965,1.59806 -0.23411,0.84483 -0.29518,1.68966 z"
           id="text179"
           style="font-size:10.1787px;font-family:'Ubuntu Mono';-inkscape-font-specification:'Ubuntu Mono';text-align:center;letter-spacing:0px;text-anchor:middle;fill:#4d4d4d;fill-rule:evenodd;stroke-width:0.801474;paint-order:fill markers stroke"
           aria-label="7" /><path
           d="m 128.67507,382.33731 q 0.51912,-0.20357 1.00769,-0.50893 0.48858,-0.31554 0.90591,-0.79394 h 0.59036 v 5.5881 h 1.19091 v 0.71251 h -3.38951 v -0.71251 h 1.36395 v -4.41755 q -0.11197,0.10178 -0.27483,0.21375 -0.15268,0.10179 -0.34607,0.20357 -0.18322,0.10179 -0.38679,0.1934 -0.20358,0.0916 -0.39697,0.15268 z"
           id="text180"
           style="font-size:10.1787px;font-family:'Ubuntu Mono';-inkscape-font-specification:'Ubuntu Mono';text-align:center;letter-spacing:0px;text-anchor:middle;fill:#4d4d4d;fill-rule:evenodd;stroke-width:0.801474;paint-order:fill markers stroke"
           aria-label="1" /></g></g></g></svg>
