<?xml version="1.0" encoding="UTF-8" standalone="no"?>
<!-- Created with Inkscape (http://www.inkscape.org/) -->

<svg
   width="51.00005mm"
   height="85.399498mm"
   viewBox="0 0 51.000048 85.3995"
   version="1.1"
   id="svg1"
   xml:space="preserve"
   sodipodi:docname="joystick2.svg"
   inkscape:version="1.4.2 (ebf0e940, 2025-05-08)"
   xmlns:inkscape="http://www.inkscape.org/namespaces/inkscape"
   xmlns:sodipodi="http://sodipodi.sourceforge.net/DTD/sodipodi-0.dtd"
   xmlns="http://www.w3.org/2000/svg"
   xmlns:svg="http://www.w3.org/2000/svg"><sodipodi:namedview
     id="namedview1"
     pagecolor="#ffffff"
     bordercolor="#000000"
     borderopacity="0.25"
     inkscape:showpageshadow="2"
     inkscape:pageopacity="0.0"
     inkscape:pagecheckerboard="0"
     inkscape:deskcolor="#797979"
     inkscape:document-units="mm"
     showgrid="false"
     showguides="true"
     inkscape:zoom="0.22471767"
     inkscape:cx="1900.1621"
     inkscape:cy="-769.85491"
     inkscape:window-width="2384"
     inkscape:window-height="1371"
     inkscape:window-x="1371"
     inkscape:window-y="25"
     inkscape:window-maximized="0"
     inkscape:current-layer="layer1"><inkscape:grid
       id="grid1"
       units="mm"
       originx="903.40715"
       originy="-984.67111"
       spacingx="0.99999998"
       spacingy="1"
       empcolor="#0099e5"
       empopacity="0.30196078"
       color="#0099e5"
       opacity="0.14901961"
       empspacing="5"
       enabled="true"
       visible="false" /></sodipodi:namedview><defs
     id="defs1" /><g
     inkscape:label="Layer 1"
     inkscape:groupmode="layer"
     id="layer1"
     transform="translate(903.40715,-984.67103)"><g
       id="g281"
       transform="rotate(180,34.665114,341.3709)"><g
         id="g191"
         transform="translate(8.3867273,178.00957)" /></g><g
       id="g540"
       transform="matrix(0.8090083,0,0,0.889878,-89.218707,21.16354)" /><g
       id="g593"
       transform="translate(-448.23171,787.26349)"><path
         id="rect103"
         style="fill:#ececec;fill-opacity:1;fill-rule:evenodd;stroke:#cccccc;stroke-width:1;stroke-linecap:square;stroke-linejoin:round;stroke-dasharray:none;paint-order:stroke fill markers"
         d="m 448.76727,-197.90754 c 3.27301,0 5.90817,-2.63515 5.90817,-5.90816 v -72.58369 c 0,-3.27301 -2.63516,-5.90765 -5.90817,-5.90765 h -38.18371 c -3.27301,0 -5.90817,2.63464 -5.90817,5.90765 v 72.58369 c 0,3.27301 2.63516,5.90816 5.90817,5.90816 z m -36.09185,-19.99981 a 4.9999976,4.9999976 0 0 1 -5.00021,-5.00021 4.9999976,4.9999976 0 0 1 5.00021,-5.00021 4.9999976,4.9999976 0 0 1 4.99969,5.00021 4.9999976,4.9999976 0 0 1 -4.99969,5.00021 z m 33.99999,-5.2e-4 a 4.9999976,4.9999976 0 0 1 -5.00021,-4.99969 4.9999976,4.9999976 0 0 1 5.00021,-5.00021 4.9999976,4.9999976 0 0 1 5.00021,5.00021 4.9999976,4.9999976 0 0 1 -5.00021,4.99969 z"
         transform="scale(-1)" /><g
         id="g127"
         transform="rotate(180,-164.58766,191.45388)"><rect
           style="opacity:1;fill:#8b2c3a;fill-opacity:1;fill-rule:evenodd;stroke-width:0;stroke-linecap:square;stroke-linejoin:round;paint-order:stroke fill markers"
           id="rect124"
           width="11.031602"
           height="3.9999957"
           x="95"
           y="178" /><g
           id="g126"
           transform="matrix(1,0,0,1.3333394,0.49999809,-60.334418)"
           style="fill:#ffeeaa"><rect
             style="opacity:1;fill:#ffeeaa;fill-opacity:1;fill-rule:evenodd;stroke-width:0;stroke-linecap:square;stroke-linejoin:round;paint-order:stroke fill markers"
             id="rect125"
             width="2"
             height="2.9999998"
             x="97.000008"
             y="177.99998"
             ry="0.75001168" /><rect
             style="opacity:1;fill:#ffeeaa;fill-opacity:1;fill-rule:evenodd;stroke-width:0;stroke-linecap:square;stroke-linejoin:round;paint-order:stroke fill markers"
             id="rect126"
             width="2"
             height="2.9999998"
             x="101"
             y="178"
             ry="0.74999642" /></g><path
           id="path126"
           style="opacity:1;fill:#c44156;fill-opacity:1;fill-rule:evenodd;stroke-width:0;stroke-linecap:square;stroke-linejoin:round;paint-order:stroke fill markers"
           d="m 91.00013,170.9999 c -0.553997,0 -0.999939,0.44594 -0.999939,0.99994 v 5.00021 7.00009 c 0,0.554 0.445942,0.99994 0.999939,0.99994 h 2.999817 c 0.553997,0 0.999939,-0.44594 0.999939,-0.99994 v -6.00015 h 11.000364 v 6.00015 c 0,0.554 0.44594,0.99994 0.99994,0.99994 H 110 c 0.554,0 0.99994,-0.44594 0.99994,-0.99994 v -6.99751 c 1e-5,-9.3e-4 0,-0.002 0,-0.003 v -5.00021 c 0,-0.17313 -0.0436,-0.33578 -0.1204,-0.47749 -0.0307,-0.0567 -0.0668,-0.10982 -0.10749,-0.15917 -0.18312,-0.22207 -0.46042,-0.36328 -0.77205,-0.36328 h -2.99981 z" /></g><path
         id="path103"
         style="fill:#cccccc;fill-opacity:1;fill-rule:evenodd;stroke-width:0;stroke-linecap:square;stroke-linejoin:round;paint-order:stroke fill markers"
         d="m -412.67542,215.90799 a 6.9999986,6.9999986 0 0 0 -7.00009,7.00009 6.9999986,6.9999986 0 0 0 7.00009,7.00009 h 8.00003 v -14.00018 h -7.98556 z m 0,1.99988 a 4.9999976,4.9999976 0 0 1 5.00021,4.99969 4.9999976,4.9999976 0 0 1 -5.00021,5.00021 4.9999976,4.9999976 0 0 1 -5.00021,-5.00021 4.9999976,4.9999976 0 0 1 5.00021,-4.99969 z" /><path
         id="path107"
         style="fill:#cccccc;fill-opacity:1;fill-rule:evenodd;stroke-width:0;stroke-linecap:square;stroke-linejoin:round;paint-order:stroke fill markers"
         d="m -454.67544,215.90747 v 14.00018 h 8.00003 a 6.9999986,6.9999986 0 0 0 7.00009,-7.00009 6.9999986,6.9999986 0 0 0 -7.00009,-7.00009 h -0.0145 z m 8.00003,2.0004 a 4.9999976,4.9999976 0 0 1 5.00021,4.99969 4.9999976,4.9999976 0 0 1 -5.00021,5.00021 4.9999976,4.9999976 0 0 1 -5.00021,-5.00021 4.9999976,4.9999976 0 0 1 5.00021,-4.99969 z" /><circle
         style="fill:#c44156;fill-opacity:1;fill-rule:evenodd;stroke:none;stroke-width:1.8375;stroke-linecap:square;stroke-linejoin:round;stroke-dasharray:none;stroke-opacity:1;paint-order:stroke fill markers"
         id="path119"
         cx="429.67538"
         cy="-258.17041"
         r="21.634737"
         transform="scale(-1)" /><circle
         style="fill:#b1354b;fill-opacity:1;fill-rule:evenodd;stroke:none;stroke-width:1.5193;stroke-linecap:square;stroke-linejoin:round;stroke-dasharray:none;stroke-opacity:1;paint-order:stroke fill markers"
         id="circle119"
         cx="429.67538"
         cy="-258.17041"
         r="17.888269"
         transform="scale(-1)" /><circle
         style="fill:#c44156;fill-opacity:1;fill-rule:evenodd;stroke:none;stroke-width:0.406096;stroke-linecap:square;stroke-linejoin:round;stroke-dasharray:none;stroke-opacity:1;paint-order:stroke fill markers"
         id="circle120"
         cx="429.67538"
         cy="-258.17041"
         r="4.7813854"
         transform="scale(-1)" /></g></g></svg>
