<?xml version="1.0" encoding="UTF-8" standalone="no"?>
<!-- Created with Inkscape (http://www.inkscape.org/) -->

<svg
   width="51.00005mm"
   height="72.44783mm"
   viewBox="0 0 51.000048 72.447832"
   version="1.1"
   id="svg1"
   xml:space="preserve"
   sodipodi:docname="light_sensor.svg"
   inkscape:version="1.4.2 (ebf0e940, 2025-05-08)"
   xmlns:inkscape="http://www.inkscape.org/namespaces/inkscape"
   xmlns:sodipodi="http://sodipodi.sourceforge.net/DTD/sodipodi-0.dtd"
   xmlns="http://www.w3.org/2000/svg"
   xmlns:svg="http://www.w3.org/2000/svg"><sodipodi:namedview
     id="namedview1"
     pagecolor="#ffffff"
     bordercolor="#000000"
     borderopacity="0.25"
     inkscape:showpageshadow="2"
     inkscape:pageopacity="0.0"
     inkscape:pagecheckerboard="0"
     inkscape:deskcolor="#797979"
     inkscape:document-units="mm"
     showgrid="false"
     showguides="true"
     inkscape:zoom="0.89887068"
     inkscape:cx="48.950312"
     inkscape:cy="-147.96344"
     inkscape:window-width="2384"
     inkscape:window-height="1371"
     inkscape:window-x="1371"
     inkscape:window-y="25"
     inkscape:window-maximized="0"
     inkscape:current-layer="layer1"><inkscape:grid
       id="grid1"
       units="mm"
       originx="390.95589"
       originy="-1270.9271"
       spacingx="0.99999998"
       spacingy="1"
       empcolor="#0099e5"
       empopacity="0.30196078"
       color="#0099e5"
       opacity="0.14901961"
       empspacing="5"
       enabled="true"
       visible="false" /></sodipodi:namedview><defs
     id="defs1" /><g
     inkscape:label="Layer 1"
     inkscape:groupmode="layer"
     id="layer1"
     transform="translate(390.95589,-1270.9271)"><g
       id="g281"
       transform="rotate(180,34.665114,341.3709)"><g
         id="g191"
         transform="translate(8.3867273,178.00957)" /></g><g
       id="g540"
       transform="matrix(0.8090083,0,0,0.889878,-89.218707,21.16354)" /><g
       id="g7"
       transform="translate(-146.42511,1071.3584)"><path
         id="rect144"
         style="fill:#ececec;fill-opacity:1;fill-rule:evenodd;stroke:#cccccc;stroke-width:1;stroke-linecap:square;stroke-linejoin:round;stroke-dasharray:none;paint-order:stroke fill markers"
         d="m 239.02954,-200.06865 c 2.77075,0 5.00124,-2.23049 5.00124,-5.00124 v -61.44535 c 0,-2.77075 -2.23049,-5.00124 -5.00124,-5.00124 h -39.99756 c -2.77076,0 -5.00125,2.23049 -5.00125,5.00124 v 61.44535 c 0,2.77075 2.23049,5.00124 5.00125,5.00124 z m -2.99879,-19.99981 a 4.9999976,4.9999976 0 0 1 -5.00021,-5.00021 4.9999976,4.9999976 0 0 1 5.00021,-4.9997 4.9999976,4.9999976 0 0 1 5.00022,4.9997 4.9999976,4.9999976 0 0 1 -5.00022,5.00021 z m -33.99999,0 a 4.9999976,4.9999976 0 0 1 -5.00021,-5.00021 4.9999976,4.9999976 0 0 1 5.00021,-4.9997 4.9999976,4.9999976 0 0 1 5.00021,4.9997 4.9999976,4.9999976 0 0 1 -5.00021,5.00021 z"
         transform="scale(-1)" /><path
         id="path144"
         style="fill:#cccccc;fill-opacity:1;fill-rule:evenodd;stroke-width:0;stroke-linecap:square;stroke-linejoin:round;paint-order:stroke fill markers"
         d="m -202.03076,218.06858 a 6.9999986,6.9999986 0 0 0 -7.00009,7.00009 6.9999986,6.9999986 0 0 0 7.00009,7.00009 h 8.00003 v -14.00018 h -7.98556 z m 0,1.99988 a 4.9999976,4.9999976 0 0 1 5.00021,5.00021 4.9999976,4.9999976 0 0 1 -5.00021,4.9997 4.9999976,4.9999976 0 0 1 -5.00021,-4.9997 4.9999976,4.9999976 0 0 1 5.00021,-5.00021 z" /><path
         id="path145"
         style="fill:#cccccc;fill-opacity:1;fill-rule:evenodd;stroke-width:0;stroke-linecap:square;stroke-linejoin:round;paint-order:stroke fill markers"
         d="m -244.03078,218.06858 v 14.00018 h 8.00003 a 6.9999986,6.9999986 0 0 0 7.00009,-7.00009 6.9999986,6.9999986 0 0 0 -7.00009,-7.00009 h -0.0145 z m 8.00003,1.99988 a 4.9999976,4.9999976 0 0 1 5.00021,5.00021 4.9999976,4.9999976 0 0 1 -5.00021,4.9997 4.9999976,4.9999976 0 0 1 -5.00022,-4.9997 4.9999976,4.9999976 0 0 1 5.00022,-5.00021 z" /><rect
         style="fill:#666666;fill-opacity:1;fill-rule:evenodd;stroke-width:0;stroke-linecap:square;stroke-linejoin:round;paint-order:stroke fill markers"
         id="rect146"
         width="11.031602"
         height="3.9999957"
         x="213.53069"
         y="-207.0686"
         transform="scale(-1)" /><rect
         style="fill:#ffeeaa;fill-opacity:1;fill-rule:evenodd;stroke-width:0;stroke-linecap:square;stroke-linejoin:round;paint-order:stroke fill markers"
         id="rect147"
         width="2"
         height="4.0000181"
         x="216.03069"
         y="-208.06863"
         ry="1.0000201"
         transform="scale(-1)" /><rect
         style="fill:#ffeeaa;fill-opacity:1;fill-rule:evenodd;stroke-width:0;stroke-linecap:square;stroke-linejoin:round;paint-order:stroke fill markers"
         id="rect148"
         width="2"
         height="4.0000181"
         x="220.03069"
         y="-208.0686"
         ry="0.99999976"
         transform="scale(-1)" /><path
         id="path148"
         style="fill:#4d4d4d;fill-opacity:1;fill-rule:evenodd;stroke-width:0;stroke-linecap:square;stroke-linejoin:round;paint-order:stroke fill markers"
         d="m -209.53081,214.0687 c 0.554,0 0.99994,-0.44594 0.99994,-0.99994 v -5.00021 -7.00009 c 0,-0.554 -0.44594,-0.99994 -0.99994,-0.99994 h -2.99982 c -0.554,0 -0.99994,0.44594 -0.99994,0.99994 v 6.00015 h -11.00036 v -6.00015 c 0,-0.554 -0.44594,-0.99994 -0.99994,-0.99994 h -2.99981 c -0.554,0 -0.99994,0.44594 -0.99994,0.99994 v 6.99751 c -1e-5,9.3e-4 0,0.002 0,0.003 v 5.00021 c 0,0.17313 0.0436,0.33578 0.1204,0.47749 0.0307,0.0567 0.0668,0.10982 0.10749,0.15917 0.18312,0.22207 0.46042,0.36328 0.77205,0.36328 h 2.99981 z" /><circle
         style="fill:#000000;fill-opacity:0;fill-rule:evenodd;stroke:none;stroke-width:2.8253;stroke-linecap:butt;stroke-linejoin:miter;stroke-dasharray:none;stroke-opacity:1;paint-order:fill markers stroke"
         id="circle150"
         cx="219.03075"
         cy="-257.03113"
         r="5.7040973"
         transform="scale(-1)" /><ellipse
         style="fill:#cccccc;fill-opacity:1;fill-rule:evenodd;stroke:none;stroke-width:4.10372;stroke-linecap:butt;stroke-linejoin:miter;stroke-dasharray:none;stroke-opacity:1;paint-order:fill markers stroke"
         id="ellipse150"
         cx="219.03075"
         cy="-257.03113"
         rx="6.0089126"
         ry="5.7040811"
         transform="scale(-1)" /><rect
         style="fill:#db8b97;fill-opacity:1;fill-rule:evenodd;stroke:none;stroke-width:2.72576;stroke-linecap:butt;stroke-linejoin:miter;stroke-dasharray:none;stroke-opacity:1;paint-order:fill markers stroke"
         id="rect150"
         width="8.1155043"
         height="1.1448098"
         x="212.9054"
         y="-260.32901"
         ry="0.57240492"
         transform="scale(-1)" /><rect
         style="fill:#db8b97;fill-opacity:1;fill-rule:evenodd;stroke:none;stroke-width:2.81128;stroke-linecap:butt;stroke-linejoin:miter;stroke-dasharray:none;stroke-opacity:1;paint-order:fill markers stroke"
         id="rect151"
         width="8.632659"
         height="1.1448098"
         x="217.0406"
         y="-258.51202"
         ry="0.57240492"
         transform="scale(-1)" /><rect
         style="fill:#db8b97;fill-opacity:1;fill-rule:evenodd;stroke:none;stroke-width:2.81128;stroke-linecap:butt;stroke-linejoin:miter;stroke-dasharray:none;stroke-opacity:1;paint-order:fill markers stroke"
         id="rect152"
         width="8.6326485"
         height="1.1448098"
         x="212.38826"
         y="-256.69504"
         ry="0.57240492"
         transform="scale(-1)" /><rect
         style="fill:#db8b97;fill-opacity:1;fill-rule:evenodd;stroke:none;stroke-width:2.72576;stroke-linecap:butt;stroke-linejoin:miter;stroke-dasharray:none;stroke-opacity:1;paint-order:fill markers stroke"
         id="rect153"
         width="8.1154957"
         height="1.1448098"
         x="217.0406"
         y="-254.87804"
         ry="0.57240492"
         transform="scale(-1)" /><rect
         style="fill:#db8b97;fill-opacity:1;fill-rule:evenodd;stroke:none;stroke-width:2.59932;stroke-linecap:butt;stroke-linejoin:miter;stroke-dasharray:none;stroke-opacity:1;paint-order:fill markers stroke"
         id="rect154"
         width="7.380043"
         height="1.1448098"
         x="217.0406"
         y="-262.146"
         ry="0.57240492"
         transform="scale(-1)" /><rect
         style="fill:#db8b97;fill-opacity:1;fill-rule:evenodd;stroke:none;stroke-width:2.59932;stroke-linecap:butt;stroke-linejoin:miter;stroke-dasharray:none;stroke-opacity:1;paint-order:fill markers stroke"
         id="rect155"
         width="7.380043"
         height="1.1448098"
         x="213.64085"
         y="-253.06104"
         ry="0.57240492"
         transform="scale(-1)" /><circle
         style="fill:#000000;fill-opacity:0;fill-rule:evenodd;stroke:#ececec;stroke-width:1.95684;stroke-linecap:butt;stroke-linejoin:miter;stroke-dasharray:none;stroke-opacity:1;paint-order:fill markers stroke"
         id="circle155"
         cx="219.03075"
         cy="-257.03113"
         r="6.7043424"
         transform="scale(-1)" /><rect
         style="fill:#2a7fff;fill-opacity:1;fill-rule:evenodd;stroke:none;stroke-width:3.4125;stroke-linecap:butt;stroke-linejoin:miter;stroke-dasharray:none;stroke-opacity:1;paint-order:fill markers stroke"
         id="rect156"
         width="16.026302"
         height="16.026302"
         x="211.01759"
         y="-243.80563"
         ry="2.4192998"
         transform="scale(-1)" /><circle
         style="fill:#cccccc;fill-opacity:1;fill-rule:evenodd;stroke:none;stroke-width:3.11475;stroke-linecap:butt;stroke-linejoin:miter;stroke-dasharray:none;stroke-opacity:1;paint-order:fill markers stroke"
         id="circle156"
         cx="219.03076"
         cy="-235.79248"
         r="3.9546118"
         transform="scale(-1)" /><rect
         style="fill:#666666;fill-opacity:1;fill-rule:evenodd;stroke:none;stroke-width:2.5;stroke-linecap:butt;stroke-linejoin:miter;stroke-dasharray:none;stroke-opacity:1;paint-order:fill markers stroke"
         id="rect157"
         width="1.1004788"
         height="7.7530198"
         x="218.48051"
         y="-239.66901"
         ry="0.55023938"
         transform="scale(-1)" /><rect
         style="fill:#666666;fill-opacity:1;fill-rule:evenodd;stroke:none;stroke-width:2.5;stroke-linecap:butt;stroke-linejoin:miter;stroke-dasharray:none;stroke-opacity:1;paint-order:fill markers stroke"
         id="rect158"
         width="1.1004788"
         height="7.7530198"
         x="-236.34274"
         y="-222.90727"
         ry="0.55023938"
         transform="rotate(-90)" /></g></g></svg>
