<?xml version="1.0" encoding="UTF-8" standalone="no"?>
<!-- Created with Inkscape (http://www.inkscape.org/) -->

<svg
   width="1174.5178mm"
   height="511.99991mm"
   viewBox="0 0 1174.5178 511.99993"
   version="1.1"
   id="svg1"
   xml:space="preserve"
   inkscape:version="1.4.2 (ebf0e940, 2025-05-08)"
   sodipodi:docname="cteno_logo_dark.svg"
   xmlns:inkscape="http://www.inkscape.org/namespaces/inkscape"
   xmlns:sodipodi="http://sodipodi.sourceforge.net/DTD/sodipodi-0.dtd"
   xmlns="http://www.w3.org/2000/svg"
   xmlns:svg="http://www.w3.org/2000/svg"><sodipodi:namedview
     id="namedview1"
     pagecolor="#808080"
     bordercolor="#000000"
     borderopacity="0.25"
     inkscape:showpageshadow="2"
     inkscape:pageopacity="0.0"
     inkscape:pagecheckerboard="0"
     inkscape:deskcolor="#d1d1d1"
     inkscape:document-units="mm"
     inkscape:zoom="0.125"
     inkscape:cx="1744"
     inkscape:cy="1660"
     inkscape:window-width="2288"
     inkscape:window-height="1376"
     inkscape:window-x="1522"
     inkscape:window-y="31"
     inkscape:window-maximized="0"
     inkscape:current-layer="layer1"
     showguides="true"
     showgrid="false" /><defs
     id="defs1"><rect
       x="3179.1521"
       y="-2234.4575"
       width="1521.6938"
       height="848.52814"
       id="rect6" /><rect
       x="2168"
       y="-2848"
       width="8056"
       height="5648"
       id="rect5" /><rect
       x="48"
       y="-4216"
       width="11360"
       height="3880"
       id="rect3" /></defs><g
     inkscape:label="Layer 1"
     inkscape:groupmode="layer"
     id="layer1"
     transform="translate(2004.8545,-309.46924)"><g
       id="g13"
       transform="translate(-222.91145,284.498)" /><g
       id="g31"
       transform="translate(-73.547309,-83.266593)"><g
         id="g32"
         transform="translate(73.547009,83.266753)" /></g><text
       xml:space="preserve"
       transform="matrix(0.26458333,0,0,0.26458333,-2030.8516,-569.1521)"
       id="text2"
       style="font-style:normal;font-variant:normal;font-weight:normal;font-stretch:normal;font-size:120px;font-family:'Myanmar MN';-inkscape-font-specification:'Myanmar MN';text-align:start;writing-mode:lr-tb;direction:ltr;white-space:pre;shape-inside:url(#rect3);display:inline;fill:#ff6600;fill-opacity:0;fill-rule:evenodd;stroke:none;stroke-width:6.34961;stroke-linecap:square;stroke-linejoin:round;paint-order:stroke fill markers" /><text
       xml:space="preserve"
       transform="matrix(0.26458333,0,0,0.26458333,-2030.8516,-569.1521)"
       id="text5"
       style="font-style:normal;font-variant:normal;font-weight:normal;font-stretch:normal;font-size:120px;font-family:'Myanmar MN';-inkscape-font-specification:'Myanmar MN';text-align:start;writing-mode:lr-tb;direction:ltr;white-space:pre;shape-inside:url(#rect5);display:inline;fill:#ffd42a;fill-opacity:0;fill-rule:evenodd;stroke:none;stroke-width:6.34961;stroke-linecap:square;stroke-linejoin:round;paint-order:stroke fill markers" /><text
       xml:space="preserve"
       transform="matrix(0.26458333,0,0,0.26458333,-2030.8516,-569.1521)"
       id="text6"
       style="font-style:normal;font-variant:normal;font-weight:normal;font-stretch:normal;font-size:120px;font-family:Ubuntu;-inkscape-font-specification:Ubuntu;text-align:start;writing-mode:lr-tb;direction:ltr;white-space:pre;shape-inside:url(#rect6);display:inline;fill:#ffd42a;fill-opacity:0;fill-rule:evenodd;stroke:none;stroke-width:6.34961;stroke-linecap:square;stroke-linejoin:round;paint-order:stroke fill markers" /><g
       id="g14"
       transform="translate(25.997117,1000.6587)"
       style="opacity:1;fill:#afc5fc;fill-opacity:1"><path
         d="m -1831.3886,-691.18888 c -9.4187,-0.0214 -18.8339,0.54957 -24.2859,1.71824 -26.0854,5.59128 -47.0836,17.08614 -66.2683,36.27789 -23.691,23.69936 -36.277,52.47942 -48.4193,110.72038 -5.2579,25.21974 -7.1527,42.46471 -5.7593,52.42574 2.098,14.99739 7.6037,26.67611 17.124,36.32956 6.9418,7.03892 12.1687,10.4393 22.563,14.67818 l 7.138,2.91093 0.2781,6.81716 c 0.58,14.20561 -6.7841,31.59775 -18.2062,43.00151 -7.0024,6.99118 -10.616,9.49236 -32.0988,22.21776 -14.9224,8.8392 -21.3256,13.52052 -29.4721,21.54132 -21.9597,21.6215 -27.9037,47.18203 -16.1106,69.30792 3.1546,5.91882 9.9496,12.65555 13.7175,13.60123 5.2526,1.31833 9.8946,-4.05404 7.8166,-9.04596 -0.5548,-1.33213 -2.5276,-3.90439 -4.3858,-5.71644 -5.9408,-5.79337 -7.38,-9.66232 -7.3836,-19.83083 0,-10.71436 1.7263,-16.58404 7.5086,-25.48424 8.0295,-12.35817 18.3505,-20.82775 41.997,-34.46094 7.0084,-4.04057 15.7829,-9.63097 19.5026,-12.42302 19.6306,-14.73505 30.899,-34.52228 32.9324,-57.83058 0.3667,-4.20641 0.9214,-8.11013 1.3844,-8.09098 22.9304,0.94812 39.3051,1.62511 52.8738,2.03606 v -5.2e-4 c 5.5376,0.16792 10.609,0.29097 15.4667,0.37052 v 0 c 0,0 0,5.2e-4 0,5.2e-4 12.1169,0.1981 22.9121,0.12295 36.3409,-0.22066 0.8735,-0.0224 1.7579,-0.0462 2.6547,-0.0708 13.6171,-0.37377 30.0541,-1.00859 53.1213,-1.89962 0.5426,-0.0214 1.1271,4.77938 1.7089,9.71568 3.4768,29.48898 18.5962,49.34842 52.0697,68.39169 10.3797,5.90513 22.3453,13.76587 27.5234,18.08262 11.9564,9.96749 20.6691,23.90807 22.5495,36.07945 1.697,10.98459 -0.6511,18.73843 -8.0837,26.68468 -2.5892,2.76818 -4.2323,5.40647 -4.2323,6.797 0,3.09813 3.444,7.24658 6.0172,7.24658 3.7029,0 10.7774,-5.32667 14.2167,-10.70322 13.7148,-21.43959 8.3872,-48.99305 -13.8576,-71.65144 -9.029,-9.19654 -16.177,-14.28107 -38.2338,-27.19885 -20.9834,-12.28922 -29.9676,-20.88803 -36.3208,-34.76998 -4.9612,-10.83982 -7.833,-26.37848 -5.8363,-31.58101 0.3032,-0.79382 3.2761,-2.34993 6.6016,-3.45664 7.5062,-2.49788 18.4522,-9.58024 23.7515,-15.36754 13.2818,-14.50431 18.5955,-32.44589 16.2575,-54.90672 -2.8361,-27.24827 -14.098,-74.07044 -23.2798,-96.79461 -7.9952,-19.78868 -19.7914,-37.52109 -33.7431,-50.72766 -8.3267,-7.88192 -21.4161,-17.22057 -30.7237,-21.91907 -7.2911,-3.68047 -22.482,-8.87264 -32.1211,-10.97814 -5.4581,-1.19219 -14.877,-1.80281 -24.2956,-1.82315 z m -0.3907,14.37897 c 0,0 0.01,0 0.01,0 0.6636,1.1e-4 1.3135,0.0545 1.9446,0.16433 0.6311,0.10988 1.248,0.2756 1.8469,0.4961 1.1994,0.44121 2.3363,1.1055 3.4086,1.99264 0.5358,0.44339 1.0548,0.94299 1.5596,1.49862 0.5048,0.5559 0.9944,1.16721 1.4681,1.83606 0.4741,0.66888 0.9333,1.39476 1.3767,2.17713 0.058,0.10219 0.1075,0.2359 0.1648,0.34003 0.455,0.82665 0.8842,1.74824 1.3064,2.69751 0.7478,1.67851 1.4625,3.48266 2.1089,5.54798 0.04,0.12678 0.065,0.311 0.1039,0.43925 0.7897,2.57944 1.4535,5.6593 2.0924,8.83409 1.023,5.08378 1.92,10.67638 2.5673,17.30953 1.6838,17.25766 1.9313,75.05749 0.4387,102.49504 -1.972,36.26419 -7.0835,58.00802 -15.443,65.67661 -0.805,0.73818 -1.761,1.40129 -2.6691,1.89704 -0.1001,0.0548 -0.1887,0.0865 -0.2873,0.13694 -0.3528,0.17983 -0.7018,0.35104 -1.0185,0.46509 -0.047,0.0169 -0.09,0.0302 -0.1354,0.0455 -0.1386,0.0463 -0.2726,0.0871 -0.3995,0.11782 -0.1225,0.03 -0.2417,0.0569 -0.3514,0.0713 -0.01,0.001 -0.02,0.005 -0.029,0.006 -0.062,0.008 -0.1226,0.0121 -0.1794,0.0134 -0.021,7.6e-4 -0.042,10e-4 -0.062,10e-4 -1.3712,0 -2.7426,-0.69162 -4.0891,-1.95596 -0.207,-0.1947 -0.4125,-0.4144 -0.6181,-0.63717 -0.1881,-0.20346 -0.3764,-0.39819 -0.5633,-0.62476 -0.06,-0.0732 -0.1192,-0.16213 -0.1793,-0.23772 -0.6555,-0.82254 -1.3029,-1.77468 -1.9378,-2.87114 -0.016,-0.0284 -0.033,-0.052 -0.05,-0.0806 -0.2597,-0.45184 -0.5056,-1.02865 -0.7612,-1.52446 -0.4908,-0.95362 -0.9788,-1.92646 -1.4515,-3.03651 -0.1708,-0.4004 -0.3291,-0.85734 -0.4972,-1.27744 -1.0452,-2.61482 -1.9735,-5.87728 -2.8949,-9.20305 -0.436,-1.57168 -0.8967,-2.94192 -1.2991,-4.65812 -1.0382,-4.42859 -1.9516,-9.29613 -2.7198,-14.57533 -0.069,-0.47733 -0.1789,-0.83626 -0.2459,-1.31982 -3.4518,-24.91462 -4.3916,-105.83201 -1.5245,-131.19819 2.9749,-26.3167 9.1084,-40.18019 18.1338,-41.01765 0.2899,-0.0269 0.5826,-0.0408 0.8785,-0.0408 z m -31.5754,3.31453 c 0.036,3.9e-4 0.036,0.003 0.061,0.004 0.1499,0.007 0.2747,0.0322 0.3721,0.0682 2.871,1.0817 2.2707,3.22264 -3.3073,11.85767 -5.9714,9.24399 -11.9295,22.86925 -15.2218,34.80305 -3.7714,13.66982 -5.8755,30.05735 -8.2367,64.16145 -2.3306,33.66514 -3.8497,46.11787 -6.9112,56.63221 -5.4364,18.67373 -17.171,34.65133 -30.4581,41.47292 -0.2033,0.10523 -0.4048,0.20762 -0.601,0.30644 -2.753,1.45574 -5.6545,3.27073 -6.9427,4.17339 -2.8768,2.01503 -5.3664,1.95393 -8.9302,-0.21911 -6.442,-3.92844 -13.4351,-14.54562 -15.9551,-24.22023 -1.8404,-7.06685 -1.8433,-20.09356 0,-31.58825 2.1044,-13.16779 10.471,-49.48342 14.7076,-63.8328 14.0815,-47.69577 42.824,-72.47909 57.6714,-82.55206 0.075,0.0528 0.1678,0.0853 0.2677,0.0853 0.2568,0 0.4718,-0.21265 0.4718,-0.47232 v -0.10129 c 2.4162,-1.61086 4.4268,-2.81063 5.8958,-3.6375 0.1747,-0.0998 0.3498,-0.19796 0.525,-0.29456 0.7993,-0.44064 1.5522,-0.70715 2.3652,-1.12396 2.6037,-1.33505 5.2811,-2.6887 7.582,-3.60805 0.017,-0.007 0.028,-0.009 0.045,-0.016 0.762,-0.3037 1.3488,-0.4777 2.0272,-0.71623 0.6499,-0.22861 1.3953,-0.52699 1.9462,-0.6873 0.02,-0.006 0.033,-0.007 0.052,-0.0129 0.2967,-0.0855 0.5348,-0.13401 0.7973,-0.1974 0.2418,-0.0585 0.5119,-0.13536 0.722,-0.17415 0.1083,-0.0199 0.2035,-0.0316 0.3028,-0.046 0.098,-0.0144 0.2009,-0.0319 0.2899,-0.0408 0.078,-0.008 0.1415,-0.007 0.2119,-0.0103 0.081,-0.004 0.1725,-0.0142 0.2439,-0.0124 z m 64.1248,0.41134 h 0.01 v 0 c 0.01,-1e-4 0.02,0.002 0.029,0.002 3.4078,-0.0174 13.599,4.20439 19.7394,8.35298 0.01,0.006 0.017,0.0113 0.025,0.017 6.119,3.18675 27.3755,21.94277 33.491,29.54342 16.0147,19.90362 25.8455,42.41251 36.9269,92.69667 10.0311,45.51674 9.0595,62.2228 -4.4555,76.67129 -4.3016,4.59882 -8.3205,7.3334 -10.7756,7.3334 -0.6889,0 -2.2315,-0.68569 -3.4287,-1.52446 -1.0563,-0.73966 -4.9765,-2.98754 -8.0616,-4.63486 -0.039,-0.0214 -0.082,-0.0447 -0.125,-0.0661 -1.4271,-0.76005 -2.8326,-1.65843 -4.2241,-2.62051 -0.3564,-0.24651 -0.7054,-0.51256 -1.0588,-0.77153 -0.8109,-0.59385 -1.5989,-1.245 -2.3921,-1.90169 -1.8943,-1.56853 -3.7502,-3.25075 -5.5149,-5.14026 -0.054,-0.0582 -0.1158,-0.10013 -0.17,-0.15865 -2.7501,-2.96596 -5.3157,-6.28943 -7.6192,-9.87019 -0.059,-0.0919 -0.1025,-0.19668 -0.1612,-0.28888 -1.4429,-2.26477 -2.7392,-4.65142 -3.9528,-7.0931 -0.3591,-0.72219 -0.7008,-1.43973 -1.0376,-2.17455 -1.1346,-2.4752 -2.177,-4.9947 -3.034,-7.58093 -0.042,-0.12684 -0.1075,-0.24503 -0.1488,-0.37207 -4.0094,-12.32849 -5.7269,-23.66465 -7.3019,-48.13763 -3.6326,-56.45299 -4.8512,-64.84459 -12.6705,-87.30785 -2.9306,-8.41935 -5.6217,-13.87351 -11.9331,-24.19956 -0.066,-0.10778 -0.058,-0.12005 -0.1235,-0.22737 -2.4059,-3.95265 -4.3893,-7.60003 -4.5517,-8.3814 -4e-4,-0.002 -0.014,-0.0241 -0.014,-0.0264 0,-0.025 0,-0.0447 0,-0.0625 0,-0.0696 -7e-4,-0.14511 0.036,-0.22324 0,-0.0194 0.011,-0.0387 0.021,-0.0584 0.01,-0.0186 0.014,-0.0374 0.022,-0.0563 10e-5,-0.002 0,-0.003 0,-0.005 0.05,-0.122 0.1248,-0.25011 0.2175,-0.37982 0.01,-0.009 0.015,-0.0183 0.022,-0.0274 0.01,-0.009 0.016,-0.0182 0.023,-0.0274 0.084,-0.11114 0.1822,-0.22254 0.2909,-0.33279 0.025,-0.0255 0.049,-0.0507 0.076,-0.076 0.019,-0.0186 0.036,-0.0378 0.056,-0.0563 0.1105,-0.10233 0.2355,-0.19844 0.3622,-0.29301 0.02,-0.0145 0.036,-0.0307 0.055,-0.045 0.1717,-0.12395 0.3534,-0.23999 0.5447,-0.34003 0.043,-0.0214 0.093,-0.0452 0.1462,-0.063 0.06,-0.0202 0.1268,-0.0357 0.1974,-0.0491 0.01,-9.8e-4 0.01,-0.002 0.015,-0.003 0.045,-0.008 0.095,-0.0141 0.1442,-0.0196 0.088,-0.0102 0.1815,-0.0172 0.2827,-0.0191 0.01,-1.5e-4 0.014,-10e-4 0.022,-0.002 z m -87.5988,9.7963 c 0.2248,0 0.4146,0.15944 0.461,0.37052 -0.2389,0.15903 -0.4816,0.32181 -0.7276,0.48886 v 0 c -0.1213,-0.0853 -0.2031,-0.22645 -0.2031,-0.38705 0,-0.25971 0.2138,-0.47233 0.4713,-0.47233 z m 56.1666,325.81991 c -0.079,0.004 -0.1602,0.0211 -0.2387,0.0475 -1.9731,0.6478 -5.0434,5.92644 -8.5633,14.72055 -9.6502,24.11117 -8.29,44.6527 4.4131,66.64813 6.7581,11.70109 8.0171,14.71698 9.3152,22.28598 2.169,12.64845 -2.6854,28.04022 -12.3088,39.02139 -3.9005,4.45099 -4.8849,6.24328 -4.8849,8.89299 0,6.41316 4.8906,8.56735 10.9502,4.82245 5.1945,-3.21036 10.7001,-10.28721 15.0073,-19.2903 4.9997,-10.45162 6.2811,-15.86358 6.2979,-26.58907 0,-11.91311 -2.0619,-19.37184 -9.5695,-34.28886 -3.6073,-7.16763 -7.4269,-15.6088 -8.4878,-18.75752 -2.3699,-7.03474 -2.5268,-17.08146 -0.4181,-26.72343 2.7262,-12.46587 1.7942,-30.70167 -1.4325,-30.78985 v 0 c -0.036,-7.2e-4 -0.05,-10e-4 -0.079,0 z"
         style="fill:#afc5fc;fill-opacity:1;fill-rule:evenodd;stroke-width:1.59374;stroke-linecap:square;stroke-linejoin:round;paint-order:stroke fill markers"
         id="path6" /><path
         d="m -1895.4613,-431.84871 -0.036,10.72183 c -0.1,33.97991 -11.583,54.7478 -44.3637,80.22921 -23.1702,18.01098 -33.0839,30.28552 -39.2612,48.60943 -1.9121,5.67097 -2.2243,8.41235 -2.2029,19.34921 0.036,11.51177 0.2748,13.42419 2.6143,19.80292 4.3529,11.87062 11.529,21.2534 21.7402,28.42463 7.0752,4.96869 12.2709,6.07033 15.133,3.20807 4.2965,-4.29631 2.9846,-8.85531 -3.8933,-13.53147 -11.711,-7.96252 -19.1614,-19.15436 -21.1171,-31.71745 -0.783,-5.0283 -0.6679,-7.77068 0.5953,-14.0069 3.3512,-16.54628 12.5581,-28.8064 34.7829,-46.32327 13.6082,-10.72541 28.5085,-25.61797 34.5845,-34.56533 6.0049,-8.84241 12.0381,-22.17327 14.7422,-32.57837 1.9164,-7.37357 2.561,-12.57685 2.9513,-23.78305 l 0.4619,-13.1718 c -5.1245,-0.19728 -10.6672,-0.41991 -16.7317,-0.66766 z"
         style="fill:#afc5fc;fill-opacity:1;fill-rule:evenodd;stroke-width:1.59374;stroke-linecap:square;stroke-linejoin:round;paint-order:stroke fill markers"
         id="path10" /><path
         d="m -1858.9509,-430.48807 0.2139,1.10226 c 0.3247,1.68716 0.8487,10.28838 1.1612,19.11356 0.6582,18.60277 -1.1214,32.02236 -6.3216,47.66531 -5.8694,17.65617 -11.1449,26.97963 -27.973,49.43729 -16.4906,22.00777 -21.9893,35.98845 -21.9893,55.9077 0,8.70399 0.4263,12.00303 2.327,18.01854 2.5168,7.96529 6.4247,14.88058 11.3595,20.10523 5.7092,6.04451 8.0228,10.31995 8.0228,14.82338 0,4.81291 -1.0107,7.13378 -4.8928,11.23963 -3.5467,3.75096 -3.895,8.4087 -0.8149,10.90269 2.7101,2.19469 3.9725,2.17515 8.4966,-0.13281 6.8095,-3.47381 11.6503,-12.66285 11.697,-22.20329 0.039,-7.92598 -1.4123,-11.11977 -10.4118,-22.91437 -9.5477,-12.51339 -10.1498,-14.29045 -10.1544,-29.94235 0,-12.17246 0.2002,-13.72481 2.5668,-19.69751 3.5224,-8.88529 7.8071,-15.68366 18.2335,-28.92847 14.6637,-18.62678 21.4022,-30.72696 27.7265,-49.7799 6.9821,-21.03531 9.5443,-41.92643 7.6336,-62.24943 -0.4887,-5.1974 -1.059,-10.03057 -1.4118,-12.09694 v 0 c -4.8577,-0.0795 -9.9291,-0.2026 -15.4667,-0.37052 z"
         style="fill:#afc5fc;fill-opacity:1;fill-rule:evenodd;stroke-width:1.59374;stroke-linecap:square;stroke-linejoin:round;paint-order:stroke fill markers"
         id="path11" /><path
         d="m -1804.4865,-430.40849 c -5.4517,0.14983 -10.4516,0.25889 -15.2441,0.32453 l -0.1462,0.69866 c -1.5558,7.47361 -2.206,23.57088 -1.4051,34.86248 1.4534,20.50069 6.7331,39.95707 15.6626,57.73652 5.843,11.63385 10.0426,18.09826 19.9321,30.67565 14.3673,18.27272 19.022,27.53973 21.0251,41.85636 1.9774,14.13509 -1.5849,26.50456 -10.8066,37.52639 -7.1783,8.57921 -10.0273,14.84039 -10.0273,22.03742 0,9.73193 5.6029,19.83388 12.7238,22.93658 3.5535,1.54828 2.9531,1.55493 6.0803,-0.0625 2.4097,-1.24612 3.8014,-3.73124 3.8364,-6.85074 0,-0.63157 -1.9461,-3.35319 -4.3398,-6.04821 -4.2045,-4.73414 -4.3383,-5.06905 -3.9398,-9.87588 0.3425,-4.13414 1.1196,-5.86788 4.5889,-10.25726 7.759,-9.81641 12.027,-16.46277 14.0622,-21.90254 3.0105,-8.04613 4.1411,-19.42022 2.9254,-29.41836 -1.9774,-16.26321 -7.5314,-28.46725 -21.329,-46.85812 -5.0521,-6.73419 -11.2632,-15.2891 -13.8007,-19.01228 -8.3291,-12.2225 -16.1023,-31.59653 -19.329,-48.17948 -1.7894,-9.1943 -2.3291,-33.56064 -1.0067,-45.39052 z"
         style="fill:#afc5fc;fill-opacity:1;fill-rule:evenodd;stroke-width:1.59374;stroke-linecap:square;stroke-linejoin:round;paint-order:stroke fill markers"
         id="path12" /><path
         d="m -1767.7053,-431.6787 c -5.9779,0.22796 -11.4469,0.43231 -16.5101,0.61392 -1.2422,5.23992 0.511,24.43808 3.4969,36.42 6.5886,26.42858 19.5,45.03729 44.7838,64.54283 26.8514,20.71492 36.3629,33.61589 39.1155,53.05361 2.2863,16.1446 -5.1433,31.79557 -19.6479,41.3923 -5.9304,3.92388 -8.2884,7.4396 -7.2285,10.77868 1.9424,6.12059 8.138,6.48285 16.4129,0.95704 11.517,-7.6906 20.7345,-20.78436 24.1831,-34.34984 3.2174,-12.65773 1.0345,-30.85979 -5.2395,-43.68725 -6.5137,-13.31798 -15.5803,-23.32167 -35.3322,-38.98057 -11.2048,-8.88301 -24.6261,-22.25049 -29.5791,-29.46125 -9.4632,-13.77717 -13.4312,-27.44382 -14.0658,-48.44149 z"
         style="fill:#afc5fc;fill-opacity:1;fill-rule:evenodd;stroke-width:1.59374;stroke-linecap:square;stroke-linejoin:round;paint-order:stroke fill markers"
         id="path13" /></g><path
       style="font-size:296.987px;font-family:Ubuntu;-inkscape-font-specification:Ubuntu;letter-spacing:0px;fill:#afc5fc;fill-opacity:1;fill-rule:evenodd;stroke-width:15.7145;stroke-linecap:square;stroke-linejoin:round;paint-order:stroke fill markers"
       d="m -1513.4069,663.448 c -14.4533,0 -27.6198,-2.3759 -39.4993,-7.12769 -11.8795,-4.75179 -22.076,-11.68149 -30.5896,-20.78909 -8.5137,-9.1076 -15.1464,-20.29411 -19.8982,-33.55953 -4.5538,-13.46341 -6.8307,-28.80774 -6.8307,-46.03299 0,-17.22525 2.5739,-32.47058 7.7217,-45.73599 5.3458,-13.46341 12.4735,-24.74892 21.3831,-33.85652 8.9096,-9.1076 19.3041,-16.0373 31.1836,-20.78909 11.8795,-4.75179 24.5509,-7.12769 38.0143,-7.12769 8.5137,0 16.1363,0.59397 22.868,1.78192 6.9297,1.18795 12.8695,2.57389 17.8193,4.15782 5.1477,1.58393 9.3055,3.16786 12.4734,4.75179 3.1679,1.58393 5.3458,2.77188 6.5337,3.56385 l -8.3156,23.75896 c -1.7819,-1.18795 -4.3558,-2.4749 -7.7217,-3.86084 -3.3658,-1.38593 -7.2266,-2.77187 -11.5825,-4.15781 -4.1578,-1.38594 -8.8106,-2.47489 -13.9583,-3.26686 -4.9498,-0.98996 -9.9986,-1.48494 -15.1464,-1.48494 -10.8895,0 -20.6901,1.88092 -29.4017,5.64276 -8.7116,3.76183 -16.1363,9.20659 -22.274,16.33428 -6.1377,7.12769 -10.8895,15.83931 -14.2554,26.13486 -3.1679,10.09756 -4.7518,21.48206 -4.7518,34.1535 0,12.27547 1.3859,23.46198 4.1578,33.55953 2.9699,10.09756 7.3257,18.80918 13.0675,26.13486 5.7417,7.12769 12.8694,12.67144 21.383,16.63127 8.7116,3.95983 18.8092,5.93974 30.2927,5.93974 13.2654,0 24.2539,-1.38594 32.9656,-4.15782 8.7116,-2.77187 15.2453,-5.24676 19.6011,-7.42467 l 7.4247,23.75896 c -1.3859,0.98995 -3.8608,2.2769 -7.4247,3.86083 -3.5639,1.38594 -8.0187,2.77188 -13.3644,4.15782 -5.3458,1.38594 -11.5825,2.57389 -18.7102,3.56384 -7.1277,0.98996 -14.8493,1.48494 -23.165,1.48494 z m 119.686,-158.88805 h 58.5065 v 23.16499 h -58.5065 v 71.27688 c 0,7.72166 0.594,14.15638 1.7819,19.30415 1.188,4.94979 2.9699,8.90961 5.3458,11.87948 2.3759,2.77188 5.3458,4.75179 8.9096,5.93974 3.5639,1.18795 7.7217,1.78193 12.4735,1.78193 8.3156,0 14.9483,-0.89096 19.8981,-2.67289 5.1478,-1.97991 8.7116,-3.36585 10.6915,-4.15782 l 5.3458,22.868 c -2.7719,1.38594 -7.6227,3.06887 -14.5524,5.04878 -6.9297,2.17791 -14.8493,3.26686 -23.7589,3.26686 -10.4935,0 -19.2052,-1.28694 -26.1349,-3.86083 -6.7317,-2.77188 -12.1764,-6.8307 -16.3343,-12.17647 -4.1578,-5.34577 -7.1277,-11.87948 -8.9096,-19.60114 -1.5839,-7.91965 -2.3759,-17.02725 -2.3759,-27.3228 V 461.49684 l 27.6198,-4.75179 z m 81.9685,77.51361 c 0,-13.6614 1.9799,-25.54088 5.9397,-35.63844 3.9599,-10.29555 9.2066,-18.80917 15.7403,-25.54088 6.5337,-6.73171 14.0574,-11.78049 22.5711,-15.14634 8.5136,-3.36585 17.2252,-5.04878 26.1348,-5.04878 20.7891,0 36.7274,6.53371 47.8149,19.60114 11.0875,12.86944 16.6313,32.56958 16.6313,59.10042 v 4.75179 c 0,1.78192 -0.099,3.46485 -0.297,5.04878 h -105.7274 c 1.1879,16.03729 5.8407,28.21376 13.9584,36.5294 8.1177,8.31563 20.7891,12.47345 38.0144,12.47345 9.7015,0 17.8192,-0.79196 24.3529,-2.37589 6.7317,-1.78193 11.7804,-3.46485 15.1463,-5.04878 l 3.8609,23.16498 c -3.3659,1.78193 -9.3056,3.66285 -17.8193,5.64276 -8.3156,1.97991 -17.8192,2.96987 -28.5107,2.96987 -13.4634,0 -25.1449,-1.97991 -35.0445,-5.93974 -9.7015,-4.15782 -17.7202,-9.80057 -24.0559,-16.92826 -6.3357,-7.12769 -11.0875,-15.54232 -14.2554,-25.2439 -2.9699,-9.89957 -4.4548,-20.69009 -4.4548,-32.37158 z m 106.0243,-15.14634 c 0.198,-12.47345 -2.9698,-22.67001 -9.5035,-30.58966 -6.3357,-8.11765 -15.1464,-12.17647 -26.4319,-12.17647 -6.3357,0 -11.9785,1.28695 -16.9282,3.86084 -4.7518,2.37589 -8.8106,5.54375 -12.1765,9.50358 -3.3659,3.95983 -6.0388,8.51363 -8.0187,13.6614 -1.7819,5.14777 -2.9698,10.39454 -3.5638,15.74031 z m 68.6041,-57.91246 c 6.3357,-1.58393 14.7503,-3.26686 25.2439,-5.04878 10.4935,-1.78192 22.571,-2.67288 36.2324,-2.67288 12.2755,0 22.472,1.78192 30.5896,5.34576 8.1177,3.36585 14.5524,8.21664 19.3042,14.55236 4.9497,6.13773 8.4146,13.56241 10.3945,22.27403 1.9799,8.71162 2.9699,18.3142 2.9699,28.80774 v 86.7202 h -27.6198 v -80.78046 c 0,-9.50359 -0.693,-17.62123 -2.0789,-24.35294 -1.1879,-6.7317 -3.2668,-12.17646 -6.2367,-16.33428 -2.9699,-4.15782 -6.9297,-7.12769 -11.8795,-8.90961 -4.9498,-1.97991 -11.0875,-2.96987 -18.4132,-2.96987 -2.9699,0 -6.0387,0.099 -9.2066,0.29699 -3.1679,0.19799 -6.2367,0.49497 -9.2066,0.89096 -2.7719,0.19799 -5.3458,0.49497 -7.7217,0.89096 -2.1779,0.39598 -3.7618,0.69297 -4.7518,0.89096 v 130.37729 h -27.6197 z m 306.78731,72.76181 c 0,12.27547 -1.78192,23.36298 -5.34577,33.26255 -3.56384,9.89957 -8.61262,18.41319 -15.14634,25.54088 -6.33572,7.12769 -13.95838,12.67144 -22.86799,16.63127 -8.90961,3.76183 -18.61119,5.64275 -29.10473,5.64275 -10.49354,0 -20.19512,-1.88092 -29.10473,-5.64275 -8.90961,-3.95983 -16.63127,-9.50358 -23.16498,-16.63127 -6.33573,-7.12769 -11.28551,-15.64131 -14.84935,-25.54088 -3.56385,-9.89957 -5.34577,-20.98708 -5.34577,-33.26255 0,-12.07747 1.78192,-23.06598 5.34577,-32.96555 3.56384,-10.09756 8.51362,-18.71018 14.84935,-25.83787 6.53371,-7.12769 14.25537,-12.57246 23.16498,-16.33429 8.90961,-3.95983 18.61119,-5.93974 29.10473,-5.93974 10.49354,0 20.19512,1.97991 29.10473,5.93974 8.90961,3.76183 16.53227,9.2066 22.86799,16.33429 6.53372,7.12769 11.5825,15.74031 15.14634,25.83787 3.56385,9.89957 5.34577,20.88808 5.34577,32.96555 z m -28.80774,0 c 0,-17.42323 -3.95983,-31.18363 -11.87948,-41.28119 -7.72166,-10.29555 -18.3142,-15.44332 -31.77761,-15.44332 -13.46341,0 -24.15495,5.14777 -32.0746,15.44332 -7.72166,10.09756 -11.58249,23.85796 -11.58249,41.28119 0,17.42324 3.86083,31.28263 11.58249,41.57818 7.91965,10.09756 18.61119,15.14634 32.0746,15.14634 13.46341,0 24.05595,-5.04878 31.77761,-15.14634 7.91965,-10.29555 11.87948,-24.15494 11.87948,-41.57818 z"
       id="text4"
       aria-label="Cteno"
       sodipodi:nodetypes="ssscscsssccsccsccssscscccsscccsssccccsccssccccscscscccscssscssccssccccscscsccscsccccssccssccscscssccccccssccsccsscccscccsscscscscs" /></g></svg>
